<svg width="14" height="16" viewBox="0 0 14 16" fill="#EF8829" xmlns="http://www.w3.org/2000/svg">
<path d="M6.73709 0C10.4577 0 13.4739 2.94823 13.4739 6.58506C13.4739 9.36742 11.4739 12.3997 7.52491 15.7149C7.07178 16.0953 6.40237 16.0953 5.94744 15.7134L5.68643 15.4922C1.91221 12.2643 0.000244141 9.3054 0.000244141 6.58506C0.000244141 2.94823 3.01643 0 6.73709 0ZM6.73709 4.05234C5.30607 4.05234 4.14599 5.18628 4.14599 6.58506C4.14599 7.98384 5.30607 9.11777 6.73709 9.11777C8.16811 9.11777 9.32818 7.98384 9.32818 6.58506C9.32818 5.18628 8.16811 4.05234 6.73709 4.05234Z" />
</svg>
