<svg width="375" height="283" viewBox="0 0 375 283" fill="none" xmlns="http://www.w3.org/2000/svg">
<g opacity="0.8">
<g clip-path="url(#clip0)">
<path d="M251.064 140.318C250.397 138.739 251.136 136.917 252.716 136.25L266.539 130.415C268.119 129.748 269.94 130.488 270.607 132.067C271.274 133.647 270.534 135.468 268.954 136.135L255.131 141.97C253.552 142.637 251.731 141.897 251.064 140.318Z" fill="#FDD44B"/>
<path d="M263.159 150.404C266.799 151.883 270.949 150.131 272.429 146.491C273.908 142.85 272.156 138.7 268.515 137.221C264.875 135.742 260.725 137.494 259.246 141.134C257.767 144.775 259.519 148.925 263.159 150.404Z" fill="#FF9330"/>
<path d="M277.439 150.954C277.664 151.487 277.686 152.107 277.45 152.686L271.912 166.316C271.568 167.164 270.747 167.721 269.831 167.727C268.915 167.733 268.086 167.187 267.73 166.344L259.638 147.176C259.282 146.332 259.469 145.357 260.112 144.706C260.755 144.054 261.727 143.854 262.575 144.199L276.205 149.737C276.784 149.972 277.214 150.42 277.439 150.954Z" fill="#84BD93"/>
<path d="M251.634 118.634C250.988 120.222 249.178 120.987 247.589 120.341L233.688 114.693C232.1 114.048 231.335 112.237 231.981 110.648C232.626 109.06 234.437 108.296 236.025 108.941L249.927 114.589C251.515 115.234 252.279 117.045 251.634 118.634Z" fill="#FDD44B"/>
<path d="M263.047 125.381C263.474 125.773 263.751 126.328 263.778 126.952L264.4 141.651C264.438 142.566 263.922 143.413 263.092 143.799C262.262 144.185 261.281 144.033 260.607 143.413L245.286 129.335C244.612 128.716 244.377 127.752 244.692 126.892C245.006 126.032 245.806 125.446 246.722 125.408L261.421 124.786C262.045 124.76 262.621 124.989 263.047 125.381Z" fill="#84BD93"/>
<path d="M240.963 120.161C240.317 121.75 238.506 122.514 236.918 121.869L223.017 116.221C221.429 115.575 220.665 113.764 221.31 112.176C221.955 110.588 223.766 109.823 225.354 110.469L239.255 116.117C240.844 116.762 241.608 118.573 240.963 120.161Z" fill="#FF9330"/>
<path d="M188.092 117.443C187.559 117.669 187.111 118.097 186.875 118.676L181.337 132.306C180.993 133.154 181.193 134.127 181.845 134.769C182.496 135.412 183.471 135.599 184.315 135.244L203.483 127.151C204.326 126.795 204.872 125.966 204.866 125.051C204.86 124.135 204.303 123.314 203.455 122.969L189.825 117.431C189.245 117.196 188.626 117.218 188.092 117.443Z" fill="#84BD93"/>
<path d="M214.133 128.108C212.553 128.775 210.732 128.035 210.065 126.456L204.229 112.632C203.562 111.053 204.302 109.232 205.882 108.565C207.462 107.898 209.283 108.638 209.949 110.217L215.785 124.041C216.451 125.62 215.712 127.441 214.133 128.108Z" fill="#FDD44B"/>
<path d="M183.417 138.527C185.535 139.388 187.949 138.368 188.81 136.251C189.67 134.133 188.651 131.718 186.533 130.858C184.415 129.997 182.001 131.017 181.14 133.134C180.28 135.252 181.299 137.667 183.417 138.527Z" fill="#84BD93"/>
<path d="M177.578 149.138C179.563 149.945 181.826 148.989 182.633 147.004C183.44 145.019 182.484 142.755 180.499 141.949C178.514 141.142 176.25 142.097 175.444 144.083C174.637 146.068 175.593 148.331 177.578 149.138Z" fill="#84BD93"/>
<path d="M263.776 184.161C265.761 184.968 268.025 184.012 268.831 182.027C269.638 180.042 268.683 177.778 266.697 176.972C264.712 176.165 262.449 177.12 261.642 179.106C260.835 181.091 261.791 183.354 263.776 184.161Z" fill="#84BD93"/>
<path d="M266.995 172.485C269.113 173.346 271.527 172.327 272.388 170.209C273.248 168.091 272.229 165.676 270.111 164.816C267.993 163.955 265.579 164.975 264.718 167.093C263.858 169.211 264.877 171.625 266.995 172.485Z" fill="#84BD93"/>
<path d="M254.908 126.386C254.263 127.974 252.452 128.739 250.864 128.094L236.963 122.445C235.375 121.8 234.61 119.989 235.255 118.401C235.901 116.812 237.712 116.048 239.3 116.693L253.201 122.341C254.789 122.987 255.554 124.798 254.908 126.386Z" fill="#FFBE60"/>
<path d="M198.71 127.01C202.35 128.489 206.5 126.737 207.979 123.096C209.458 119.456 207.706 115.306 204.066 113.827C200.426 112.348 196.276 114.1 194.796 117.74C193.317 121.38 195.069 125.531 198.71 127.01Z" fill="#FF9330"/>
<path d="M216.241 109.155C215.662 109.138 215.077 109.342 214.622 109.771L203.924 119.871C203.259 120.499 203.037 121.467 203.363 122.322C203.689 123.178 204.498 123.753 205.413 123.779L226.211 124.377C227.126 124.403 227.967 123.876 228.341 123.04C228.716 122.205 228.551 121.226 227.922 120.561L217.822 109.863C217.393 109.409 216.82 109.171 216.241 109.155Z" fill="#84BD93"/>
<path d="M267.087 179.923C269.403 180.864 272.044 179.749 272.985 177.433C273.926 175.116 272.812 172.475 270.495 171.534C268.179 170.593 265.538 171.708 264.597 174.024C263.655 176.341 264.77 178.981 267.087 179.923Z" fill="#FF9330"/>
<path d="M178.162 143.792C180.478 144.733 183.119 143.618 184.06 141.302C185.002 138.985 183.887 136.344 181.57 135.403C179.254 134.462 176.613 135.577 175.672 137.893C174.731 140.21 175.845 142.85 178.162 143.792Z" fill="#FF9330"/>
<path d="M179.528 152.724C177.459 151.883 176.459 149.515 177.3 147.446L179.847 141.176C188.18 120.668 211.643 110.763 232.151 119.095L245.62 124.568C266.129 132.9 276.034 156.364 267.701 176.872L265.154 183.142C264.313 185.211 261.945 186.21 259.876 185.37L179.528 152.724Z" fill="#FDD44B"/>
<path opacity="0.1" d="M186.278 151.094L188.825 144.824C197.158 124.316 220.622 114.41 241.13 122.743L232.151 119.095C211.643 110.762 188.18 120.668 179.847 141.176L177.3 147.446C176.459 149.515 177.459 151.883 179.528 152.723L188.506 156.371C186.437 155.531 185.437 153.163 186.278 151.094Z" fill="#3F2D20"/>
<path d="M198.989 149.238C198.101 148.878 197.675 147.866 198.035 146.979C198.239 146.477 197.996 145.903 197.495 145.699C196.993 145.495 196.418 145.738 196.214 146.239C195.854 147.127 194.843 147.553 193.955 147.193C193.068 146.832 192.641 145.821 193.002 144.934C193.925 142.66 196.526 141.563 198.8 142.486C201.073 143.41 202.172 146.011 201.248 148.284C200.887 149.172 199.876 149.599 198.989 149.238Z" fill="#E2C447"/>
<path d="M218.162 157.029C217.275 156.668 216.848 155.657 217.209 154.77C217.413 154.268 217.17 153.694 216.668 153.49C216.167 153.286 215.592 153.528 215.388 154.03C215.028 154.917 214.017 155.344 213.129 154.984C212.242 154.623 211.815 153.612 212.175 152.725C213.099 150.451 215.7 149.353 217.974 150.277C220.247 151.201 221.345 153.802 220.422 156.075C220.061 156.962 219.05 157.389 218.162 157.029Z" fill="#E2C447"/>
<path d="M213.297 142.207C212.41 141.846 211.983 140.835 212.343 139.948C212.547 139.446 212.305 138.871 211.803 138.668C211.301 138.464 210.727 138.706 210.523 139.208C210.162 140.095 209.151 140.522 208.264 140.162C207.377 139.801 206.95 138.79 207.31 137.903C208.234 135.629 210.835 134.531 213.108 135.455C215.382 136.378 216.48 138.979 215.556 141.253C215.196 142.14 214.184 142.567 213.297 142.207Z" fill="#E2C447"/>
<path d="M246.758 146.448C245.871 146.087 245.444 145.075 245.804 144.188C246.008 143.687 245.766 143.112 245.264 142.908C244.762 142.705 244.188 142.947 243.984 143.449C243.623 144.336 242.612 144.763 241.725 144.402C240.837 144.042 240.411 143.03 240.771 142.143C241.695 139.87 244.296 138.772 246.569 139.696C248.843 140.619 249.941 143.22 249.017 145.494C248.657 146.381 247.645 146.808 246.758 146.448Z" fill="#E2C447"/>
<path d="M255.032 161.817C254.145 161.457 253.718 160.445 254.079 159.558C254.283 159.056 254.04 158.482 253.538 158.278C253.037 158.074 252.462 158.316 252.258 158.818C251.898 159.706 250.886 160.133 249.999 159.772C249.112 159.411 248.685 158.4 249.046 157.513C249.969 155.24 252.57 154.142 254.844 155.065C257.117 155.989 258.215 158.59 257.291 160.863C256.931 161.75 255.92 162.178 255.032 161.817Z" fill="#E2C447"/>
</g>
<path d="M186.296 194.124H108.797C108.56 194.125 108.332 194.036 108.158 193.876C107.984 193.716 107.877 193.496 107.858 193.26L101.203 113.526C101.192 113.397 101.208 113.267 101.25 113.144C101.292 113.021 101.359 112.909 101.447 112.813C101.534 112.719 101.64 112.643 101.758 112.592C101.876 112.54 102.003 112.513 102.132 112.513H117.151C117.343 112.512 117.53 112.57 117.688 112.679C117.846 112.788 117.966 112.943 118.034 113.123C120.27 119.163 124.303 124.373 129.589 128.053C134.875 131.733 141.162 133.705 147.603 133.705C154.044 133.705 160.33 131.733 165.617 128.053C170.903 124.373 174.936 119.163 177.172 113.123C177.239 112.943 177.36 112.788 177.518 112.679C177.675 112.57 177.863 112.512 178.055 112.513H193.074C193.203 112.513 193.33 112.54 193.448 112.592C193.566 112.643 193.672 112.719 193.759 112.813C193.847 112.909 193.914 113.021 193.956 113.144C193.998 113.267 194.014 113.397 194.003 113.526L187.348 193.26C187.339 193.387 187.304 193.511 187.245 193.624C187.187 193.737 187.106 193.837 187.007 193.918C186.909 193.999 186.795 194.058 186.673 194.094C186.551 194.129 186.423 194.14 186.296 194.124ZM109.66 192.247H185.433L191.938 114.39H178.627C176.164 120.624 171.883 125.974 166.341 129.744C160.798 133.514 154.25 135.53 147.547 135.53C140.843 135.53 134.295 133.514 128.752 129.744C123.21 125.974 118.929 120.624 116.466 114.39H103.155L109.66 192.247Z" fill="#84BD93"/>
<path d="M219.686 193.185H265.589L272.404 186.643H212.871L219.686 193.185Z" fill="white"/>
<path d="M150.072 88.7436L139.577 88.7784L139.73 134.747L150.224 134.712L150.072 88.7436Z" fill="#FF9330"/>
<path d="M139.737 135.671C139.488 135.671 139.25 135.572 139.074 135.396C138.898 135.22 138.799 134.981 138.799 134.732L138.648 88.7351C138.648 88.6116 138.671 88.4891 138.718 88.3748C138.765 88.2604 138.834 88.1564 138.921 88.0687C139.094 87.8918 139.33 87.7906 139.578 87.787H150.082C150.331 87.787 150.57 87.8859 150.746 88.062C150.922 88.238 151.021 88.4768 151.021 88.7258L151.171 134.723C151.172 134.846 151.148 134.969 151.101 135.083C151.054 135.197 150.986 135.301 150.899 135.389C150.724 135.562 150.488 135.66 150.242 135.661H139.737V135.671ZM140.526 89.6739L140.676 133.793H149.293L149.143 89.6739H140.526Z" fill="#FDD44B"/>
<path d="M142.99 96.1079L132.555 97.2213L137.432 142.93L147.867 141.817L142.99 96.1079Z" fill="#FF9330"/>
<path d="M137.428 143.856C137.196 143.858 136.971 143.773 136.798 143.619C136.625 143.464 136.515 143.251 136.489 143.021L131.608 97.315C131.595 97.1923 131.606 97.0683 131.641 96.95C131.676 96.8317 131.734 96.7214 131.811 96.6255C131.889 96.5296 131.985 96.45 132.093 96.3911C132.202 96.3322 132.321 96.2953 132.443 96.2824L142.882 95.1653C143.005 95.152 143.13 95.1634 143.25 95.1988C143.369 95.2343 143.48 95.2931 143.576 95.3718C143.767 95.5288 143.889 95.7548 143.914 96.0008L148.796 141.707C148.809 141.829 148.797 141.953 148.762 142.072C148.727 142.19 148.669 142.3 148.592 142.396C148.514 142.492 148.419 142.572 148.31 142.63C148.202 142.689 148.083 142.726 147.96 142.739L137.522 143.856H137.428ZM133.588 98.0471L138.282 141.885L146.852 140.946L142.159 97.1084L133.588 98.0471Z" fill="#FDD44B"/>
<path d="M129.029 91.3543L118.594 92.4677L123.471 138.177L133.906 137.063L129.029 91.3543Z" fill="#FF9330"/>
<path d="M123.479 139.106C123.246 139.108 123.022 139.023 122.849 138.869C122.675 138.715 122.565 138.501 122.54 138.271L117.659 92.5651C117.646 92.4424 117.657 92.3184 117.692 92.2001C117.727 92.0818 117.785 91.9715 117.862 91.8756C117.94 91.7797 118.036 91.7001 118.144 91.6412C118.252 91.5823 118.371 91.5454 118.494 91.5325L128.932 90.4154C129.179 90.3911 129.426 90.4653 129.618 90.6219C129.714 90.6988 129.794 90.794 129.854 90.9019C129.914 91.0098 129.951 91.1284 129.965 91.2509L134.837 136.957C134.852 137.08 134.842 137.204 134.808 137.324C134.774 137.443 134.717 137.554 134.64 137.651C134.483 137.842 134.257 137.964 134.011 137.989L123.572 139.106H123.479ZM119.63 93.2973L124.323 137.135L132.894 136.196L128.2 92.3586L119.63 93.2973Z" fill="#FDD44B"/>
<path d="M164.977 92.435L154.538 91.3526L149.797 137.076L160.236 138.158L164.977 92.435Z" fill="#FF9330"/>
<path d="M160.238 139.106H160.144L149.705 138.027C149.582 138.015 149.462 137.979 149.353 137.921C149.243 137.862 149.146 137.783 149.068 137.687C148.989 137.591 148.93 137.48 148.895 137.361C148.859 137.242 148.848 137.118 148.861 136.994L153.61 91.2696C153.636 91.0236 153.757 90.7976 153.948 90.6407C154.141 90.4841 154.387 90.4098 154.634 90.4342L165.081 91.5231C165.327 91.5492 165.553 91.6713 165.71 91.8629C165.866 92.0544 165.941 92.3 165.917 92.5463L161.176 138.271C161.163 138.393 161.125 138.512 161.065 138.62C161.006 138.728 160.926 138.823 160.829 138.9C160.661 139.034 160.453 139.107 160.238 139.106ZM150.851 136.29L159.421 137.182L163.974 93.3254L155.394 92.4336L150.851 136.29Z" fill="#FDD44B"/>
<path d="M177.752 96.0614L167.313 94.979L162.572 140.702L173.011 141.785L177.752 96.0614Z" fill="#FF9330"/>
<path d="M173.014 142.72H172.911L162.473 141.641C162.35 141.628 162.231 141.591 162.122 141.532C162.014 141.473 161.918 141.394 161.841 141.298C161.763 141.202 161.705 141.092 161.67 140.973C161.635 140.855 161.624 140.731 161.637 140.608L166.378 94.8837C166.403 94.6377 166.524 94.4117 166.715 94.2548C166.812 94.176 166.923 94.1172 167.042 94.0818C167.161 94.0463 167.286 94.0349 167.41 94.0482L177.849 95.1278C177.971 95.1406 178.09 95.1776 178.199 95.2365C178.307 95.2953 178.403 95.375 178.48 95.4709C178.558 95.5668 178.616 95.677 178.651 95.7953C178.686 95.9136 178.697 96.0377 178.684 96.1603L173.99 141.885C173.965 142.131 173.844 142.357 173.653 142.514C173.472 142.659 173.245 142.732 173.014 142.72ZM163.627 139.904L172.207 140.843L176.75 96.9864L168.18 96.0946L163.627 139.904Z" fill="#FDD44B"/>
<path d="M137.555 111.505L127.15 112.875L133.15 158.45L143.555 157.08L137.555 111.505Z" fill="#FF9330"/>
<path d="M133.137 159.401C132.908 159.403 132.686 159.321 132.513 159.171C132.34 159.02 132.228 158.812 132.198 158.585L126.209 113.01C126.175 112.764 126.239 112.514 126.388 112.316C126.464 112.217 126.559 112.135 126.667 112.074C126.775 112.013 126.894 111.974 127.017 111.959L137.418 110.588C137.664 110.553 137.913 110.618 138.112 110.767C138.31 110.922 138.441 111.147 138.478 111.396L144.477 156.97C144.493 157.093 144.484 157.217 144.451 157.337C144.419 157.456 144.363 157.568 144.287 157.665C144.211 157.763 144.117 157.845 144.009 157.906C143.901 157.967 143.783 158.006 143.66 158.021L133.297 159.392L133.137 159.401ZM128.2 113.695L133.954 157.402L142.496 156.285L136.742 112.569L128.2 113.695Z" fill="#FDD44B"/>
<path d="M116.272 101.609L105.918 103.32L113.41 148.674L123.764 146.963L116.272 101.609Z" fill="#FF9330"/>
<path d="M113.415 149.601C113.19 149.604 112.972 149.526 112.799 149.381C112.627 149.236 112.512 149.035 112.476 148.812L104.967 103.463C104.926 103.218 104.984 102.967 105.129 102.765C105.273 102.562 105.491 102.425 105.737 102.384L116.062 100.675C116.309 100.638 116.56 100.695 116.766 100.835C116.967 100.981 117.102 101.2 117.142 101.445L124.652 146.804C124.689 147.048 124.628 147.298 124.483 147.498C124.411 147.6 124.321 147.686 124.216 147.752C124.111 147.818 123.994 147.862 123.872 147.883L113.547 149.592L113.415 149.601ZM107.013 104.083L114.204 147.583L122.69 146.194L115.462 102.684L107.013 104.083Z" fill="#FDD44B"/>
<path d="M153.216 104.261H142.722V150.23H153.216V104.261Z" fill="#FF9330"/>
<path d="M153.216 151.159H142.684C142.435 151.159 142.196 151.06 142.02 150.884C141.844 150.708 141.745 150.47 141.745 150.221V104.224C141.745 103.975 141.844 103.736 142.02 103.56C142.196 103.384 142.435 103.285 142.684 103.285H153.179C153.428 103.285 153.666 103.384 153.842 103.56C154.018 103.736 154.117 103.975 154.117 104.224V150.221C154.117 150.463 154.024 150.696 153.856 150.871C153.688 151.046 153.459 151.15 153.216 151.159ZM143.66 149.282H152.277V105.163H143.623L143.66 149.282Z" fill="#FDD44B"/>
<path d="M168.792 107.491L158.351 106.435L153.729 152.171L164.171 153.226L168.792 107.491Z" fill="#FF9330"/>
<path d="M164.181 154.154H164.077L153.639 153.093C153.394 153.07 153.169 152.952 153.01 152.764C152.859 152.57 152.785 152.325 152.804 152.079L157.431 106.345C157.455 106.098 157.576 105.87 157.768 105.711C157.96 105.553 158.207 105.477 158.455 105.5L168.902 106.561C169.148 106.587 169.374 106.709 169.531 106.901C169.687 107.093 169.762 107.338 169.738 107.584L165.119 153.318C165.094 153.549 164.984 153.762 164.811 153.916C164.637 154.071 164.413 154.155 164.181 154.154ZM154.794 151.338L163.373 152.211L167.804 108.345L159.224 107.472L154.794 151.338Z" fill="#FDD44B"/>
<path d="M190.985 102.402L180.6 100.892L173.988 146.383L184.373 147.892L190.985 102.402Z" fill="#FF9330"/>
<path d="M184.362 148.841H184.231L173.839 147.329C173.717 147.312 173.599 147.271 173.493 147.208C173.387 147.145 173.294 147.062 173.22 146.963C173.074 146.763 173.013 146.513 173.051 146.269L179.622 100.779C179.64 100.657 179.682 100.539 179.746 100.434C179.81 100.328 179.894 100.236 179.993 100.162C180.093 100.089 180.206 100.036 180.325 100.007C180.445 99.9772 180.57 99.9716 180.692 99.9903L191.074 101.502C191.196 101.519 191.314 101.56 191.42 101.623C191.527 101.686 191.62 101.769 191.694 101.868C191.843 102.067 191.907 102.316 191.872 102.562L185.292 148.071C185.252 148.288 185.137 148.484 184.967 148.625C184.797 148.766 184.583 148.842 184.362 148.841ZM175.041 145.602L183.574 146.841L189.919 103.21L181.387 101.971L175.041 145.602Z" fill="#FDD44B"/>
<path d="M177.98 113.451C175.667 119.656 171.512 125.006 166.072 128.783C160.633 132.56 154.169 134.584 147.547 134.584C140.925 134.584 134.461 132.56 129.022 128.783C123.582 125.006 119.427 119.656 117.114 113.451H102.095L108.76 193.185H186.259L192.924 113.451H177.98Z" fill="#22A45D"/>
<path d="M248.308 143.762H152.297C143.339 143.762 136.076 151.025 136.076 159.983C136.076 168.942 143.339 176.204 152.297 176.204H248.308C257.267 176.204 264.529 168.942 264.529 159.983C264.529 151.025 257.267 143.762 248.308 143.762Z" fill="#FF9330"/>
<path d="M260.05 150.577H140.553C133.264 150.577 127.354 156.484 127.354 163.771C127.354 171.057 133.264 176.964 140.553 176.964H260.05C267.34 176.964 273.249 171.057 273.249 163.771C273.249 156.484 267.34 150.577 260.05 150.577Z" fill="#FDD44B"/>
<path d="M260.022 177.903H140.553C138.666 177.952 136.789 177.622 135.032 176.934C133.275 176.245 131.673 175.212 130.322 173.895C128.971 172.578 127.896 171.004 127.163 169.265C126.43 167.526 126.052 165.658 126.052 163.771C126.052 161.884 126.43 160.016 127.163 158.277C127.896 156.538 128.971 154.964 130.322 153.647C131.673 152.329 133.275 151.296 135.032 150.608C136.789 149.92 138.666 149.59 140.553 149.639H260.022C263.708 149.734 267.21 151.264 269.783 153.904C272.355 156.544 273.795 160.085 273.795 163.771C273.795 167.457 272.355 170.998 269.783 173.638C267.21 176.278 263.708 177.808 260.022 177.903ZM140.553 151.516C138.915 151.471 137.285 151.754 135.758 152.35C134.232 152.945 132.84 153.841 131.666 154.983C130.491 156.125 129.558 157.492 128.92 159.001C128.283 160.511 127.954 162.132 127.954 163.771C127.954 165.409 128.283 167.031 128.92 168.541C129.558 170.05 130.491 171.416 131.666 172.559C132.84 173.701 134.232 174.597 135.758 175.192C137.285 175.788 138.915 176.071 140.553 176.026H260.022C263.214 175.937 266.245 174.608 268.471 172.319C270.697 170.03 271.943 166.964 271.943 163.771C271.943 160.578 270.697 157.511 268.471 155.223C266.245 152.934 263.214 151.604 260.022 151.516H140.553Z" fill="#FDD44B"/>
<path d="M248.308 160.734H152.297C143.339 160.734 136.076 167.996 136.076 176.955C136.076 185.914 143.339 193.176 152.297 193.176H248.308C257.267 193.176 264.529 185.914 264.529 176.955C264.529 167.996 257.267 160.734 248.308 160.734Z" fill="#FF9330"/>
<path d="M248.308 194.124H152.306C147.755 194.124 143.39 192.316 140.172 189.098C136.954 185.88 135.146 181.515 135.146 176.964C135.146 172.413 136.954 168.049 140.172 164.831C143.39 161.613 147.755 159.805 152.306 159.805H248.308C252.859 159.805 257.223 161.613 260.442 164.831C263.66 168.049 265.467 172.413 265.467 176.964C265.467 181.515 263.66 185.88 260.442 189.098C257.223 192.316 252.859 194.124 248.308 194.124ZM152.306 161.682C148.253 161.682 144.366 163.292 141.5 166.158C138.634 169.024 137.024 172.911 137.024 176.964C137.024 181.017 138.634 184.905 141.5 187.771C144.366 190.637 148.253 192.247 152.306 192.247H248.308C252.361 192.247 256.248 190.637 259.114 187.771C261.98 184.905 263.59 181.017 263.59 176.964C263.59 172.911 261.98 169.024 259.114 166.158C256.248 163.292 252.361 161.682 248.308 161.682H152.306Z" fill="#FF9330"/>
<path d="M202.105 159.401C198.941 159.401 196.341 157.449 194.022 155.712C193.525 155.337 193.027 154.97 192.539 154.623C191.902 154.052 191.066 153.755 190.211 153.797C189.813 153.9 189.439 154.082 189.113 154.332C188.691 154.604 188.277 154.895 187.855 155.186C185.856 156.566 183.79 158.002 181.125 158.34C177.37 158.838 174 157.045 171.005 155.459L170.658 155.28C169.509 154.566 168.205 154.137 166.856 154.032C165.166 154.032 163.749 154.97 162.256 156.012C161.646 156.425 161.017 156.848 160.379 157.223C154.653 160.434 145.82 158.397 142.891 153.206C142.829 153.098 142.789 152.98 142.773 152.857C142.758 152.735 142.766 152.61 142.798 152.491C142.83 152.371 142.886 152.259 142.961 152.161C143.037 152.063 143.131 151.981 143.238 151.92C143.345 151.858 143.464 151.818 143.586 151.802C143.709 151.786 143.834 151.795 143.953 151.827C144.073 151.859 144.184 151.915 144.282 151.99C144.38 152.066 144.463 152.16 144.524 152.267C146.956 156.576 154.634 158.275 159.469 155.571C160.051 155.243 160.623 154.858 161.224 154.454C162.885 153.318 164.603 152.154 166.856 152.145C168.521 152.219 170.138 152.724 171.55 153.609L171.888 153.788C174.769 155.318 177.755 156.885 180.88 156.472C183.105 156.181 184.898 154.942 186.794 153.656L188.09 152.774C188.896 152.149 189.902 151.838 190.921 151.898C191.939 151.959 192.901 152.387 193.628 153.102C194.135 153.459 194.642 153.844 195.158 154.229C197.524 156.003 199.974 157.843 202.799 157.496C204.583 157.289 206.057 156.256 207.624 155.158C209.502 153.863 211.379 152.52 213.932 152.52C216.289 152.52 218.11 153.684 219.884 154.811C220.74 155.383 221.637 155.891 222.569 156.332C223.9 156.872 225.334 157.114 226.769 157.041C228.204 156.968 229.606 156.581 230.876 155.909C231.527 155.525 232.154 155.101 232.754 154.642C233.945 153.604 235.353 152.844 236.874 152.417C239.991 151.723 242.647 153.262 245.201 154.745C247.303 155.965 249.294 157.12 251.509 157.12H251.575C253.602 157.12 255.583 155.872 256.08 154.304C256.156 154.066 256.324 153.868 256.545 153.754C256.767 153.639 257.025 153.618 257.263 153.694C257.501 153.77 257.699 153.937 257.813 154.159C257.928 154.381 257.949 154.639 257.873 154.877C257.132 157.186 254.428 158.951 251.593 158.979H251.509C248.787 158.979 246.487 157.646 244.262 156.35C242.037 155.055 239.691 153.694 237.287 154.229C236.035 154.607 234.876 155.247 233.889 156.106C233.24 156.621 232.556 157.092 231.843 157.514C230.32 158.325 228.638 158.79 226.915 158.878C225.192 158.965 223.471 158.673 221.874 158.021C220.841 157.553 219.849 157.001 218.908 156.369C217.302 155.337 215.772 154.37 213.97 154.37C212.027 154.37 210.431 155.487 208.741 156.67C207.052 157.852 205.306 159.073 203.109 159.335C202.776 159.38 202.441 159.402 202.105 159.401Z" fill="white"/>
<path d="M286.626 204.788H88.8585C87.1954 204.788 85.6005 204.127 84.4245 202.951C83.2485 201.775 82.5879 200.18 82.5879 198.517C82.5879 196.854 83.2485 195.259 84.4245 194.083C85.6005 192.907 87.1954 192.247 88.8585 192.247H286.626C288.289 192.247 289.884 192.907 291.06 194.083C292.236 195.259 292.896 196.854 292.896 198.517C292.896 200.18 292.236 201.775 291.06 202.951C289.884 204.127 288.289 204.788 286.626 204.788ZM88.8585 194.124C87.6933 194.124 86.5759 194.587 85.752 195.411C84.9282 196.235 84.4653 197.352 84.4653 198.517C84.4653 199.682 84.9282 200.8 85.752 201.624C86.5759 202.448 87.6933 202.91 88.8585 202.91H286.626C287.791 202.91 288.908 202.448 289.732 201.624C290.556 200.8 291.019 199.682 291.019 198.517C291.019 197.352 290.556 196.235 289.732 195.411C288.908 194.587 287.791 194.124 286.626 194.124H88.8585Z" fill="#84BD93"/>
<path d="M286.635 193.185H88.8582C85.9135 193.185 83.5264 195.572 83.5264 198.517C83.5264 201.462 85.9135 203.849 88.8582 203.849H286.635C289.58 203.849 291.967 201.462 291.967 198.517C291.967 195.572 289.58 193.185 286.635 193.185Z" fill="white"/>
</g>
<defs>
<clipPath id="clip0">
<rect width="105.039" height="105.039" fill="white" transform="translate(208.539 57) rotate(22.1124)"/>
</clipPath>
</defs>
</svg>
