<svg width="24" height="24" viewBox="0 0 24 24" fill="none" xmlns="http://www.w3.org/2000/svg">
<path d="M8.80012 6.40426C8.82362 6.44141 8.886 6.53997 9.2861 6.60908C9.37961 6.62529 9.47737 6.63348 9.57652 6.63348C9.57661 6.63348 9.57661 6.63348 9.57661 6.63348C9.90604 6.63348 10.2157 6.54533 10.5151 6.46009C10.7988 6.37938 11.0668 6.30308 11.336 6.30308L11.3475 6.30316C11.7483 6.30642 12.1231 6.42003 12.5198 6.54041C12.6911 6.59238 12.8677 6.6481 13.0483 6.69042C13.1246 6.70831 13.1739 6.68947 13.2053 6.67429C14.0957 6.24367 14.868 5.67094 15.3798 5.06173C15.6345 4.75871 15.8507 4.35134 16.0408 3.81628C16.1284 3.56922 16.2254 3.20059 16.0544 2.85287C15.8344 2.40496 15.2519 2.35314 14.8328 2.35314C14.7062 2.35314 13.939 2.38 13.7365 2.38C13.2243 2.38 12.6251 2.34456 12.0647 2.08172C11.8212 1.96747 11.5926 1.81955 11.3507 1.66298C10.984 1.42557 10.6049 1.18014 10.1586 1.05297C10.0354 1.0178 9.91151 1 9.79064 1C8.94553 1 8.43683 1.862 8.2697 2.14522C8.02853 2.55379 7.75147 3.10502 7.74904 3.7467C7.7467 4.33131 7.97044 4.88016 8.16566 5.29301C8.35355 5.69017 8.57295 6.04529 8.80012 6.40426Z" fill="#010F07"/>
<path d="M9.56836 12.1748C9.56836 12.748 10.0687 13.0003 10.6269 13.1596V11.0631C10.375 11.1123 10.1575 11.2034 9.98502 11.3337C9.71233 11.5397 9.56836 11.8304 9.56836 12.1748Z" fill="#010F07"/>
<path d="M12.076 14.703L11.998 14.683V16.9125C12.211 16.8489 12.4004 16.7529 12.5595 16.6256C12.8479 16.3948 13.0134 16.072 13.0134 15.74C13.0134 15.2237 12.6805 14.8554 12.076 14.703Z" fill="#010F07"/>
<path d="M17.8907 11.8744C17.0522 10.4695 15.8678 9.32799 14.6046 8.23288C14.2538 7.92887 13.9269 7.66193 13.5865 7.3979C13.2792 7.29688 12.6519 7.29573 12.2796 7.18255C11.9338 7.0774 11.5713 6.96243 11.2015 6.98365C10.8628 7.00313 10.5455 7.11428 10.2179 7.18553C9.84991 7.26553 9.49494 7.28814 9.12198 7.22364C9.12198 7.22364 8.61523 7.1566 7.4174 6.34285C6.93107 6.01245 6.41119 5.71675 5.81167 5.59793C5.24184 5.48494 4.99963 6.28578 5.57076 6.399C6.11687 6.50729 6.56505 6.79541 7.00928 7.09322C7.01024 7.09385 7.01119 7.09449 7.0121 7.09512C6.38791 7.17035 5.80634 7.39846 5.20209 7.55018C4.63911 7.69158 4.87842 8.49305 5.44304 8.35126C6.05457 8.19767 6.66125 7.93022 7.30139 7.90152C7.4031 7.89699 7.50068 7.90745 7.59701 7.92402C6.16907 9.0016 4.85059 10.1897 3.90966 11.6705C3.09546 12.9519 2.73264 14.4424 3.22006 15.8856C3.50523 16.7302 4.0526 17.4795 4.6907 18.1338C5.24813 18.7054 5.87306 19.2202 6.61499 19.5793C7.95289 20.227 9.51328 20.488 11.0122 20.5454C12.6187 20.6067 14.275 20.4036 15.756 19.8118C17.1051 19.2728 18.251 18.3348 18.7297 17.034C19.361 15.3177 18.8065 13.4085 17.8907 11.8744ZM13.4897 17.2671C13.1076 17.5542 12.6074 17.7354 11.9978 17.8089V18.425C11.9978 18.7721 11.6907 19.0535 11.3122 19.0535C10.9335 19.0535 10.6266 18.7721 10.6266 18.425V17.8033C9.84155 17.7035 9.33666 17.4479 9.03328 17.2258C8.60314 16.9109 8.34636 16.4896 8.34636 16.0987C8.34636 15.7945 8.54418 15.5901 8.83859 15.5901C9.09983 15.5901 9.22659 15.7424 9.44596 16.0344C9.68023 16.3461 9.98097 16.7453 10.6265 16.9176V14.3318L10.0815 14.1921C8.81292 13.8658 8.36791 12.8967 8.36791 12.2726C8.36791 11.5481 8.68859 10.965 9.2953 10.5863C9.65387 10.3625 10.1141 10.2126 10.6266 10.148V9.53328C10.6266 9.18616 10.9335 8.9048 11.3122 8.9048C11.6907 8.9048 11.9978 9.18619 11.9978 9.53328V10.1964C12.3907 10.2783 12.7742 10.4165 13.099 10.5994C13.4226 10.7815 13.9653 11.1677 13.9653 11.7074C13.9653 12.0363 13.6856 12.1835 13.4083 12.1835C13.2 12.1835 13.0933 12.0714 12.8907 11.8382C12.6939 11.6119 12.4494 11.3308 11.9977 11.164V13.4817L12.442 13.5831C13.8025 13.8941 14.2779 14.7674 14.2779 15.6095C14.2779 16.3068 14.0054 16.8799 13.4897 17.2671Z" fill="#010F07"/>
</svg>
