<svg width="24" height="24" viewBox="0 0 24 24" fill="none" xmlns="http://www.w3.org/2000/svg">
<g clip-path="url(#clip0)">
<path d="M13.0085 10.3334L10.3317 13.0102L17.5181 20.1966L20.1949 17.5197L13.0085 10.3334Z" fill="#FDD44B"/>
<path d="M18.5011 24C19.9376 24 21.1022 22.8354 21.1022 21.3989C21.1022 19.9624 19.9376 18.7978 18.5011 18.7978C17.0646 18.7978 15.9 19.9624 15.9 21.3989C15.9 22.8354 17.0646 24 18.5011 24Z" fill="#FDD44B"/>
<path d="M21.3975 21.1037C22.834 21.1037 23.9986 19.9392 23.9986 18.5026C23.9986 17.0661 22.834 15.9016 21.3975 15.9016C19.9609 15.9016 18.7964 17.0661 18.7964 18.5026C18.7964 19.9392 19.9609 21.1037 21.3975 21.1037Z" fill="#FDD44B"/>
<path d="M14.2101 6.66731C14.2524 7.16235 14.6037 10.9575 15.5009 12.8426L12.841 15.5025C10.9565 14.6054 7.16189 14.254 6.66599 14.2114C5.00075 14.026 3.4173 13.2576 2.20689 12.0472C-0.634083 9.20631 -0.744787 4.69499 1.95973 1.9904L1.98872 1.96141C3.29552 0.654681 5.05815 -0.0412661 6.95243 0.0018934C8.85713 0.0451968 10.6659 0.828614 12.0456 2.20842C13.256 3.41883 14.0247 5.002 14.2101 6.66731Z" fill="#EF8829"/>
<path d="M5.54403 6.12951C6.13088 6.12951 6.60662 5.65377 6.60662 5.06692C6.60662 4.48007 6.13088 4.00433 5.54403 4.00433C4.95718 4.00433 4.48145 4.48007 4.48145 5.06692C4.48145 5.65377 4.95718 6.12951 5.54403 6.12951Z" fill="#FDD44B"/>
<path d="M7.16134 3.35045C7.74819 3.35045 8.22393 2.87472 8.22393 2.28787C8.22393 1.70102 7.74819 1.22528 7.16134 1.22528C6.57449 1.22528 6.09875 1.70102 6.09875 2.28787C6.09875 2.87472 6.57449 3.35045 7.16134 3.35045Z" fill="#FDD44B"/>
<path d="M8.79611 6.12951C9.38296 6.12951 9.8587 5.65377 9.8587 5.06692C9.8587 4.48007 9.38296 4.00433 8.79611 4.00433C8.20926 4.00433 7.73352 4.48007 7.73352 5.06692C7.73352 5.65377 8.20926 6.12951 8.79611 6.12951Z" fill="#FDD44B"/>
</g>
<defs>
<clipPath id="clip0">
<rect width="24" height="24" fill="white"/>
</clipPath>
</defs>
</svg>
