<svg width="43" height="43" viewBox="0 0 43 43" fill="none" xmlns="http://www.w3.org/2000/svg">
<g clip-path="url(#clip0)">
<path d="M23.6113 17.8056H24.4143L39.0035 6.31406L38.6959 5.92371L23.6113 17.8056Z" fill="#FDD44B"/>
<path d="M30.283 3.7534L30.1321 3.65331L19.832 17.8247H20.0622L30.7565 3.11176L30.283 3.7534Z" fill="#FDD44B"/>
<path d="M30.3008 20.735L9.48145 20.6798L12.7946 27.7161H26.802L30.3008 20.735Z" fill="#EF8829"/>
<path d="M28.1548 28.8963C28.0072 29.2022 27.8196 28.8936 27.4799 28.8936H11.7505C11.4109 28.8936 10.9789 29.2024 10.8312 28.8963L8.68555 24.4478L10.432 27.9198L12.4451 41.0223H27.7213L30.3009 24.3022L28.1548 28.8963ZM24.213 37.6464C22.9377 38.2071 21.2614 38.5158 19.4929 38.5158C17.7247 38.5158 16.0484 38.2071 14.773 37.6464C13.2663 36.9841 12.4365 36.0149 12.4365 34.9177C12.4365 33.8205 13.2663 32.8515 14.773 32.189C16.0484 31.6282 17.7247 31.3195 19.4929 31.3195C21.2615 31.3195 22.9377 31.6282 24.2132 32.189C25.7198 32.8515 26.5497 33.8205 26.5497 34.9177C26.5497 36.0151 25.7198 36.9841 24.213 37.6464Z" fill="#84BD93"/>
<path d="M24.2516 34.2258C23.3757 33.9126 22.1745 33.68 20.6739 33.68C17.2536 33.68 15.3877 34.8875 15.3877 35.5079C15.3877 35.6998 15.5669 35.9482 15.9151 36.1994C16.7911 36.5128 17.9924 36.7455 19.4937 36.7455C22.9141 36.7455 24.78 35.538 24.78 34.9177C24.78 34.7257 24.6002 34.4772 24.2516 34.2258Z" fill="#FDD44B"/>
<path d="M24.2132 32.189C22.9378 31.6283 21.2614 31.3195 19.493 31.3195C17.7246 31.3195 16.0484 31.6283 14.773 32.189C13.2663 32.8514 12.4365 33.8205 12.4365 34.9177C12.4365 36.015 13.2663 36.9841 14.773 37.6465C16.0484 38.2071 17.7248 38.5158 19.493 38.5158C21.2614 38.5158 22.9378 38.2071 24.213 37.6465C25.7198 36.9841 26.5496 36.015 26.5496 34.9177C26.5496 33.8205 25.7198 32.8515 24.2132 32.189ZM19.493 36.7455C16.0727 36.7455 14.2068 35.5381 14.2068 34.9177C14.2068 34.2973 16.0728 33.09 19.493 33.09C22.9133 33.09 24.7793 34.2974 24.7793 34.9177C24.7793 35.5381 22.9133 36.7455 19.493 36.7455Z" fill="#3F2D20"/>
<path d="M40.9423 5.91387L39.5392 4.13284C39.2368 3.74884 38.6802 3.6829 38.2963 3.98517L24.2642 15.0381L32.7088 3.42772C32.9963 3.03242 32.9089 2.47886 32.5136 2.19118L30.68 0.857496C30.4902 0.71937 30.2533 0.66273 30.0214 0.698998C29.7895 0.73562 29.5816 0.862795 29.4434 1.05273L17.2589 17.8056H6.88968C6.63109 17.8056 6.28194 17.9424 6.08423 18.3266L2.35 25.8649C2.13298 26.303 2.3122 26.834 2.75025 27.051C3.1883 27.2683 3.71937 27.0888 3.93639 26.6507L6.44645 21.5837L9.63347 41.9522C9.70083 42.383 10.0719 42.7005 10.508 42.7005H28.4794C28.9155 42.7005 29.2866 42.383 29.3539 41.9522L32.5408 21.5838L35.0509 26.6508C35.2678 27.0888 35.7986 27.2683 36.2369 27.0512C36.6751 26.8341 36.8542 26.3032 36.6373 25.865L32.9048 18.3303C32.7036 17.9456 32.4387 17.8058 32.0976 17.8058H27.2755L40.7946 7.15713C40.979 7.01194 41.0982 6.79927 41.1259 6.56623C41.1535 6.33296 41.0876 6.0984 40.9423 5.91387ZM11.2656 40.9302L8.68614 24.4448L10.8317 28.8904C10.9795 29.1964 11.2892 29.3908 11.6288 29.3908H27.3582C27.698 29.3908 28.0079 29.1964 28.1554 28.8904L30.3015 24.4441L27.722 40.9302H11.2656ZM26.8027 27.6204H12.1846L8.30179 19.5759H30.6854L26.8027 27.6204ZM30.7564 3.10225L20.0622 17.8056H19.4478L30.3544 2.80987L30.7564 3.10225ZM24.4146 17.8056H23.6116L38.6962 5.92365L39.0037 6.314L24.4146 17.8056Z" fill="#3F2D20"/>
</g>
<defs>
<clipPath id="clip0">
<rect width="42.0122" height="42.0122" fill="white" transform="translate(0.688477 0.688354)"/>
</clipPath>
</defs>
</svg>
