<svg width="16" height="18" viewBox="0 0 16 18" fill="none" xmlns="http://www.w3.org/2000/svg">
<path d="M14.7621 10.0208C14.7621 5.95354 11.7482 2.65259 7.99617 2.65259C4.24413 2.65259 1.23022 5.95358 1.23022 10.0208C1.23022 14.0881 4.27491 17.3891 7.9962 17.3891C11.7175 17.3891 14.7621 14.0881 14.7621 10.0208Z" fill="#EF8829"/>
<path d="M1.23024 10.0208C1.23024 5.95354 4.27492 2.65259 7.99622 2.65259C3.75213 2.65259 0.307617 5.95358 0.307617 10.0208C0.307617 14.0881 3.75213 17.3891 7.99622 17.3891C4.27492 17.3891 1.23024 14.0881 1.23024 10.0208Z" fill="white"/>
<path d="M7.99609 2.65259C11.7481 2.65259 14.7621 5.95358 14.7621 10.0208C14.7621 14.0881 11.7481 17.3891 7.99609 17.3891C12.2402 17.3891 15.6847 14.0881 15.6847 10.0208C15.6847 5.95358 12.2402 2.65259 7.99609 2.65259Z" fill="#EF8829"/>
<path d="M6.45837 1.47367H9.53384V0.294739H6.45837V1.47367Z" fill="#84BD93"/>
<path d="M7.99607 2.65256C8.21134 2.65256 8.39586 2.65256 8.61117 2.68202V1.47363H7.38098V2.68202C7.59628 2.68202 7.78081 2.65256 7.99607 2.65256Z" fill="#22A45D"/>
<path d="M2.5526 3.15363L0.799579 4.83361L0.553535 4.59781C0.215228 4.2736 0.215228 3.71364 0.553535 3.38943L1.04562 2.91784C1.38393 2.59363 1.96824 2.59363 2.30655 2.91784L2.5526 3.15363Z" fill="#84BD93"/>
<path d="M2.55257 4.83357C2.70635 4.68619 2.8601 4.56831 3.01388 4.42094L2.122 3.56622L1.26086 4.39148L2.15274 5.2462C2.27578 5.09886 2.39882 4.95148 2.55257 4.83357Z" fill="#22A45D"/>
<path d="M15.1619 4.83357L13.4089 3.15363L13.655 2.91784C13.9933 2.59363 14.5776 2.59363 14.9159 2.91784L15.3772 3.35993C15.7155 3.68414 15.7155 4.24411 15.3772 4.56832L15.1619 4.83357Z" fill="#84BD93"/>
<path d="M13.4397 4.83355C13.5935 4.98093 13.7165 5.12827 13.8703 5.27564L14.7622 4.42093L13.901 3.5957L12.9784 4.42096C13.1322 4.53884 13.286 4.68621 13.4397 4.83355Z" fill="#22A45D"/>
<path d="M8.91885 10.0208C8.91885 9.51979 8.51906 9.13666 7.99623 9.13666C7.4734 9.13666 7.07361 9.51979 7.07361 10.0208C7.07361 10.5219 7.4734 10.905 7.99623 10.905C8.51902 10.905 8.91885 10.5219 8.91885 10.0208Z" fill="#3F2D20"/>
<path d="M7.99613 17.6838C3.59826 17.6838 0 14.2649 0 10.0208C0 5.80621 3.59826 2.35785 7.99613 2.35785C12.394 2.35785 15.9923 5.80618 15.9923 10.0208C15.9923 14.2649 12.394 17.6838 7.99613 17.6838ZM7.99613 2.94728C3.93656 2.94728 0.615056 6.13035 0.615056 10.0208C0.615056 13.9113 3.93656 17.0943 7.99613 17.0943C12.0557 17.0943 15.3772 13.9113 15.3772 10.0208C15.3772 6.13035 12.0557 2.94728 7.99613 2.94728Z" fill="#3F2D20"/>
<path d="M9.53395 1.76839H6.45853C6.274 1.76839 6.151 1.65051 6.151 1.47368V0.294714C6.151 0.117879 6.274 0 6.45853 0H9.53395C9.71848 0 9.84148 0.117879 9.84148 0.294714V1.47364C9.84148 1.65048 9.71848 1.76839 9.53395 1.76839ZM6.76606 1.17893H9.22643V0.589463H6.76606V1.17893Z" fill="#3F2D20"/>
<path d="M8.6112 2.97675C8.6112 2.97675 8.58046 2.97675 8.6112 2.97675C8.14989 2.94728 7.84232 2.94728 7.41179 2.97675C7.31953 2.97675 7.22727 2.94728 7.16575 2.88833C7.10423 2.85887 7.07349 2.77045 7.07349 2.68203V1.47361C7.07349 1.29677 7.19649 1.17889 7.38101 1.17889H8.6112C8.79572 1.17889 8.91873 1.29677 8.91873 1.47361V2.682C8.91873 2.77041 8.88798 2.82937 8.82646 2.88829C8.76498 2.94725 8.70346 2.97675 8.6112 2.97675ZM7.99611 2.35782C8.08837 2.35782 8.21137 2.35782 8.30363 2.35782V1.76836H7.68854V2.35782C7.78084 2.35782 7.90384 2.35782 7.99611 2.35782Z" fill="#3F2D20"/>
<path d="M0.830364 5.12832C0.738102 5.12832 0.676582 5.09886 0.615098 5.0399L0.369054 4.80411C-0.0922562 4.36202 -0.0922562 3.62518 0.369054 3.1831L0.861142 2.71151C1.32245 2.26942 2.09133 2.26942 2.55264 2.71151L2.7679 2.9473C2.89091 3.06518 2.89091 3.24202 2.7679 3.35993L1.01489 5.0399C0.984146 5.09886 0.891884 5.12832 0.830364 5.12832ZM1.6915 2.9768C1.53772 2.9768 1.38397 3.03576 1.29171 3.15363L0.799622 3.62522C0.584356 3.83152 0.584356 4.18522 0.799622 4.42098L0.830364 4.45044L2.12203 3.21259L2.09129 3.12417C1.99903 3.03572 1.84528 2.9768 1.6915 2.9768Z" fill="#3F2D20"/>
<path d="M2.15277 5.54091C2.0605 5.54091 1.99898 5.51145 1.9375 5.45249L1.04562 4.59778C0.922618 4.4799 0.922618 4.30306 1.04562 4.18515L1.90676 3.35989C2.02976 3.24201 2.21429 3.24201 2.33733 3.35989L3.2292 4.21461C3.29072 4.27357 3.32147 4.36198 3.32147 4.42091C3.32147 4.50932 3.29073 4.56828 3.19846 4.6272C3.04468 4.77458 2.89094 4.89246 2.76789 5.01033C2.64489 5.12821 2.52185 5.27559 2.36811 5.42296C2.30655 5.51142 2.24503 5.54091 2.15277 5.54091ZM1.69146 4.39145L2.12202 4.80407C2.18354 4.71566 2.27581 4.6567 2.33729 4.59778C2.39881 4.53882 2.49107 4.4504 2.55256 4.39148L2.12199 3.97885L1.69146 4.39145Z" fill="#3F2D20"/>
<path d="M15.162 5.12832C15.0697 5.12832 15.0082 5.09886 14.9467 5.0399L13.2245 3.35993C13.1015 3.24205 13.1015 3.06522 13.2245 2.9473L13.4705 2.71151C13.9318 2.26942 14.7007 2.26942 15.1927 2.71151L15.654 3.1536C16.1154 3.59569 16.1154 4.33253 15.654 4.80408L15.3773 5.03987C15.3157 5.09886 15.2542 5.12832 15.162 5.12832ZM13.8703 3.15363L15.1619 4.39148L15.1927 4.36202C15.4387 4.12623 15.4387 3.77256 15.1927 3.56626L14.7314 3.12417C14.4853 2.91784 14.1163 2.91784 13.8703 3.15363Z" fill="#3F2D20"/>
<path d="M13.8394 5.5409C13.7472 5.5409 13.6549 5.51144 13.5934 5.42302C13.4396 5.27565 13.3166 5.12831 13.1936 5.01039C13.0706 4.89252 12.9168 4.7746 12.763 4.62726C12.7015 4.56831 12.6708 4.50938 12.64 4.42097C12.64 4.33255 12.6708 4.27359 12.7323 4.21467L13.6242 3.35995C13.7472 3.24208 13.9317 3.24208 14.0547 3.35995L14.9159 4.18521C14.9774 4.24417 15.0081 4.30309 15.0081 4.39151C15.0081 4.47992 14.9774 4.53888 14.9159 4.5978L14.024 5.45252C13.9932 5.5114 13.9317 5.5409 13.8394 5.5409ZM13.4396 4.42093C13.5319 4.47989 13.5934 4.56831 13.6549 4.62723C13.7164 4.68618 13.8086 4.7746 13.8701 4.83352L14.3007 4.4209L13.8701 4.00827L13.4396 4.42093Z" fill="#3F2D20"/>
<path d="M7.99618 11.1997C7.31956 11.1997 6.76599 10.6692 6.76599 10.0208C6.76599 9.37237 7.31956 8.84186 7.99618 8.84186C8.67279 8.84186 9.22636 9.37237 9.22636 10.0208C9.22636 10.6692 8.67279 11.1997 7.99618 11.1997ZM7.99618 9.43132C7.65787 9.43132 7.38108 9.69658 7.38108 10.0208C7.38108 10.345 7.65787 10.6102 7.99618 10.6102C8.33448 10.6102 8.61127 10.345 8.61127 10.0208C8.61127 9.69658 8.33448 9.43132 7.99618 9.43132Z" fill="#3F2D20"/>
<path d="M7.99613 9.43133C7.8116 9.43133 7.6886 9.31345 7.6886 9.13662V5.01041C7.6886 4.83358 7.8116 4.7157 7.99613 4.7157C8.18065 4.7157 8.30366 4.83358 8.30366 5.01041V9.13662C8.30369 9.31345 8.18065 9.43133 7.99613 9.43133Z" fill="#3F2D20"/>
<path d="M7.99613 3.83151C7.8116 3.83151 7.6886 3.71363 7.6886 3.5368V2.65262C7.6886 2.47579 7.8116 2.35791 7.99613 2.35791C8.18065 2.35791 8.30366 2.47579 8.30366 2.65262V3.5368C8.30369 3.7136 8.18065 3.83151 7.99613 3.83151Z" fill="#3F2D20"/>
<path d="M7.99613 17.6838C7.8116 17.6838 7.6886 17.5659 7.6886 17.3891V16.5049C7.6886 16.3281 7.8116 16.2102 7.99613 16.2102C8.18065 16.2102 8.30366 16.3281 8.30366 16.5049V17.3891C8.30369 17.5659 8.18065 17.6838 7.99613 17.6838Z" fill="#3F2D20"/>
<path d="M15.6846 10.3155H14.762C14.5775 10.3155 14.4545 10.1976 14.4545 10.0208C14.4545 9.84395 14.5775 9.72607 14.762 9.72607H15.6846C15.8691 9.72607 15.9921 9.84395 15.9921 10.0208C15.9922 10.1976 15.8691 10.3155 15.6846 10.3155Z" fill="#3F2D20"/>
<path d="M1.23015 10.3155H0.307528C0.123004 10.3155 0 10.1976 0 10.0208C0 9.84395 0.123004 9.72607 0.307528 9.72607H1.23015C1.41467 9.72607 1.53768 9.84395 1.53768 10.0208C1.53768 10.1976 1.41467 10.3155 1.23015 10.3155Z" fill="#3F2D20"/>
<path d="M12.6093 5.89461C12.517 5.89461 12.4555 5.86515 12.394 5.80619C12.271 5.68831 12.271 5.51148 12.394 5.39357L13.2244 4.59781C13.3474 4.47993 13.5319 4.47993 13.6549 4.59781C13.778 4.71569 13.7779 4.89252 13.6549 5.01043L12.8246 5.80619C12.7631 5.86511 12.7015 5.89461 12.6093 5.89461Z" fill="#3F2D20"/>
<path d="M3.38299 5.89461C3.29073 5.89461 3.22921 5.86515 3.16773 5.80619L2.33737 5.01043C2.21437 4.89256 2.21437 4.71572 2.33737 4.59781C2.46037 4.47993 2.6449 4.47993 2.76794 4.59781L3.5983 5.39357C3.7213 5.51144 3.7213 5.68828 3.5983 5.80619C3.53674 5.86511 3.47525 5.89461 3.38299 5.89461Z" fill="#3F2D20"/>
<path d="M7.99618 11.1997C7.31956 11.1997 6.76599 10.6692 6.76599 10.0208C6.76599 9.37237 7.31956 8.84186 7.99618 8.84186C8.67279 8.84186 9.22636 9.37237 9.22636 10.0208C9.22636 10.6692 8.67279 11.1997 7.99618 11.1997ZM7.99618 9.43132C7.65787 9.43132 7.38108 9.69658 7.38108 10.0208C7.38108 10.345 7.65787 10.6102 7.99618 10.6102C8.33448 10.6102 8.61127 10.345 8.61127 10.0208C8.61127 9.69658 8.33448 9.43132 7.99618 9.43132Z" fill="#3F2D20"/>
</svg>
