<svg width="24" height="24" viewBox="0 0 24 24" fill="none" xmlns="http://www.w3.org/2000/svg">
<path d="M17.6569 6.34314C16.1459 4.83214 14.1369 4 12 4C9.86314 4 7.85413 4.83214 6.34314 6.34314C4.83214 7.85413 4 9.86314 4 12C4 14.1369 4.83214 16.1459 6.34314 17.6569C7.85413 19.1679 9.86314 20 12 20C14.1369 20 16.1459 19.1679 17.6569 17.6569C19.1679 16.1459 20 14.1369 20 12C20 9.86314 19.1679 7.85413 17.6569 6.34314ZM14.9036 9.88969L13.4921 11.2832C13.5965 11.5001 13.655 11.7432 13.655 12C13.655 12.914 12.914 13.655 12 13.655C11.086 13.655 10.345 12.914 10.345 12C10.345 11.2744 10.8121 10.6584 11.4619 10.435V7.01345C11.4619 6.71627 11.7028 6.47534 12 6.47534C12.2972 6.47534 12.5381 6.71627 12.5381 7.01345V10.435C12.6061 10.4583 12.6721 10.4859 12.7357 10.5175L14.1475 9.12377C14.359 8.91501 14.6997 8.91713 14.9085 9.12868C15.1173 9.34016 15.1151 9.6809 14.9036 9.88969Z" fill="#FF9330"/>
</svg>
