<svg width="24" height="24" viewBox="0 0 24 24" fill="none" xmlns="http://www.w3.org/2000/svg">
<rect width="24" height="24" rx="6" fill="white"/>
<path fill-rule="evenodd" clip-rule="evenodd" d="M9.27249 8.36346C9.02144 8.1124 8.6144 8.11241 8.36335 8.36346C8.1123 8.61451 8.1123 9.02154 8.36335 9.27259L11.0908 12L8.36335 14.7274C8.1123 14.9785 8.1123 15.3855 8.36335 15.6365C8.6144 15.8876 9.02144 15.8876 9.27249 15.6365L11.9999 12.9091L14.7273 15.6366C14.9784 15.8876 15.3854 15.8876 15.6364 15.6366C15.8875 15.3855 15.8875 14.9785 15.6364 14.7274L12.909 12L15.6364 9.27258C15.8875 9.02153 15.8875 8.6145 15.6364 8.36345C15.3854 8.1124 14.9784 8.1124 14.7273 8.36345L11.9999 11.0909L9.27249 8.36346Z" fill="#010F07"/>
</svg>
