<svg width="50" height="50" viewBox="0 0 50 50" fill="none" xmlns="http://www.w3.org/2000/svg">
<path d="M35.9375 23.4375L48.3326 17.3995C48.5194 17.3097 48.6865 17.1837 48.8241 17.0287C48.9618 16.8738 49.0672 16.693 49.1343 16.4969C49.2014 16.3008 49.2288 16.0933 49.2149 15.8865C49.201 15.6797 49.1461 15.4777 49.0534 15.2924L48.8705 14.9265C48.6903 14.5661 48.3779 14.2893 47.9984 14.1538C47.6189 14.0183 47.2018 14.0346 46.8341 14.1994L34.668 19.7265L35.9375 23.4375Z" fill="#D38F29"/>
<path opacity="0.9" d="M35.5469 23.4375C36.6256 23.4375 37.5 22.5631 37.5 21.4844C37.5 20.4057 36.6256 19.5312 35.5469 19.5312C34.4682 19.5312 33.5938 20.4057 33.5938 21.4844C33.5938 22.5631 34.4682 23.4375 35.5469 23.4375Z" fill="#3F2D20"/>
<path d="M31.8367 24.9023C31.669 24.9025 31.5056 24.8487 31.3708 24.7488C31.2361 24.649 31.137 24.5084 31.0883 24.3478C31.0396 24.1873 31.0439 24.0153 31.1005 23.8574C31.1571 23.6995 31.2631 23.564 31.4027 23.471L34.723 21.2249C34.8954 21.11 35.1064 21.0682 35.3096 21.1089C35.5127 21.1495 35.6914 21.2692 35.8064 21.4416C35.9213 21.614 35.963 21.825 35.9224 22.0282C35.8818 22.2314 35.7621 22.4101 35.5897 22.525L32.2694 24.7711C32.1413 24.8567 31.9908 24.9024 31.8367 24.9023Z" fill="#D38F29"/>
<path d="M33.3226 24.1854C35.874 31.5208 30.674 39.9953 21.7092 43.1138C12.7443 46.2322 3.40693 42.8137 0.855469 35.4785L33.3226 24.1854Z" fill="#22A45D"/>
<path d="M8.59373 28.3237C10.0195 27.6048 11.595 26.9018 13.2812 26.2418C14.0169 25.9538 14.7728 25.6746 15.5488 25.4044C24.5143 22.2859 32.4718 21.7401 33.3222 24.1852C34.1727 26.6304 27.5942 31.1406 18.6287 34.2591C9.66317 37.3775 1.70574 37.9233 0.855255 35.4785C0.567853 34.6521 1.12869 33.59 2.34373 32.4255" fill="#3F2D20"/>
<path d="M16.0332 35.0996C12.8203 36.0635 9.82619 36.6709 7.35647 36.9023C2.72268 36.0781 1.50979 30.2939 1.49904 28.5537C1.4981 28.3951 1.52856 28.2378 1.58867 28.0909C1.64878 27.9441 1.73734 27.8106 1.84926 27.6981C1.96118 27.5857 2.09425 27.4964 2.2408 27.4356C2.38735 27.3748 2.54448 27.3436 2.70315 27.3438C3.02219 27.3436 3.32814 27.2168 3.55374 26.9912C3.77934 26.7656 3.90614 26.4597 3.90627 26.1406V20.6152C3.90627 20.3704 3.95449 20.128 4.04818 19.9018C4.14187 19.6756 4.27919 19.4701 4.4523 19.297C4.62541 19.1239 4.83093 18.9866 5.05711 18.8929C5.28329 18.7992 5.52571 18.751 5.77053 18.751C6.01535 18.751 6.25777 18.7992 6.48395 18.8929C6.71013 18.9866 6.91565 19.1239 7.08876 19.297C7.26187 19.4701 7.39919 19.6756 7.49288 19.9018C7.58657 20.128 7.63479 20.3704 7.63479 20.6152C7.63479 20.6465 7.63479 20.6777 7.63283 20.709C7.43264 24.7949 7.55666 33.8506 16.0156 35.0586L16.0332 35.0996Z" fill="#FF9330"/>
<path d="M7.03125 14.0625C7.8942 14.0625 8.59375 13.3629 8.59375 12.5C8.59375 11.6371 7.8942 10.9375 7.03125 10.9375C6.16831 10.9375 5.46875 11.6371 5.46875 12.5C5.46875 13.3629 6.16831 14.0625 7.03125 14.0625Z" fill="#FF9330"/>
<path d="M12.5 8.59375C13.3629 8.59375 14.0625 7.8942 14.0625 7.03125C14.0625 6.16831 13.3629 5.46875 12.5 5.46875C11.6371 5.46875 10.9375 6.16831 10.9375 7.03125C10.9375 7.8942 11.6371 8.59375 12.5 8.59375Z" fill="#22A45D"/>
<path d="M10.1562 16.4062C10.1562 15.9748 10.506 15.625 10.9375 15.625C11.369 15.625 11.7188 15.9748 11.7188 16.4062C11.7188 16.8377 11.369 17.1875 10.9375 17.1875C10.506 17.1875 10.1562 16.8377 10.1562 16.4062Z" fill="#FF9330"/>
<path d="M9.375 23.4375C9.375 23.006 9.72478 22.6562 10.1562 22.6562C10.5877 22.6562 10.9375 23.006 10.9375 23.4375C10.9375 23.869 10.5877 24.2188 10.1562 24.2188C9.72478 24.2188 9.375 23.869 9.375 23.4375Z" fill="#FF9330"/>
<path d="M14.0625 30.4688C14.0625 30.0373 14.4123 29.6875 14.8438 29.6875C15.2752 29.6875 15.625 30.0373 15.625 30.4688C15.625 30.9002 15.2752 31.25 14.8438 31.25C14.4123 31.25 14.0625 30.9002 14.0625 30.4688Z" fill="#FF9330"/>
<path d="M1.5625 15.625C1.5625 15.1935 1.91228 14.8438 2.34375 14.8438C2.77522 14.8438 3.125 15.1935 3.125 15.625C3.125 16.0565 2.77522 16.4062 2.34375 16.4062C1.91228 16.4062 1.5625 16.0565 1.5625 15.625Z" fill="#22A45D"/>
<path d="M8.16045 35.8062C5.54424 34.0625 5.46875 32.234 5.46875 32.0312H7.03125C7.03125 32.0312 7.03125 32.0244 7.03125 32.0112C7.03389 32.0601 7.11807 33.2333 9.02744 34.5062L8.16045 35.8062Z" fill="#FDD44B"/>
<path d="M30.3623 26.7441C30.2617 27.6006 30.0664 28.5283 29.6885 28.9062L29.6963 28.9434C28.2393 29.9463 26.4092 30.9756 24.3105 31.959C24.7666 31.5771 26.7988 29.7109 27.2539 26.3604C27.3037 25.9846 27.4881 25.6396 27.7729 25.3894C28.0578 25.1393 28.4237 25.0009 28.8027 25H28.8105C29.0311 25 29.2491 25.0467 29.4502 25.137C29.6514 25.2273 29.8312 25.3592 29.9778 25.5239C30.1243 25.6886 30.2344 25.8825 30.3007 26.0929C30.3669 26.3032 30.3879 26.5251 30.3623 26.7441Z" fill="#FDD44B"/>
<g opacity="0.3">
<path opacity="0.3" d="M3.90627 29.6875C6.605 27.7826 5.94895 21.1681 5.60871 18.7582C5.14409 18.7987 4.71153 19.0119 4.39637 19.3557C4.08121 19.6995 3.90634 20.1489 3.90627 20.6153V26.1407C3.90614 26.4597 3.77934 26.7657 3.55374 26.9913C3.32814 27.2169 3.02219 27.3437 2.70315 27.3438C2.54448 27.3436 2.38735 27.3748 2.2408 27.4357C2.09425 27.4965 1.96118 27.5857 1.84926 27.6982C1.73734 27.8106 1.64878 27.9441 1.58867 28.091C1.52856 28.2378 1.4981 28.3951 1.49904 28.5537C1.50412 29.3779 1.77912 31.1087 2.55901 32.7903C2.41955 31.6851 2.69416 30.5432 3.90627 29.6875Z" fill="white"/>
</g>
<g opacity="0.3">
<path opacity="0.3" d="M7.96221 11.2474C7.79361 11.1212 7.60122 11.0304 7.39663 10.9806C7.19204 10.9307 6.97947 10.9227 6.77171 10.9571C6.56396 10.9915 6.36532 11.0676 6.18774 11.1808C6.01017 11.294 5.85733 11.442 5.73843 11.6158C5.61954 11.7896 5.53704 11.9857 5.4959 12.1922C5.45476 12.3987 5.45583 12.6115 5.49905 12.8176C5.54228 13.0237 5.62675 13.2189 5.7474 13.3915C5.86804 13.5641 6.02237 13.7105 6.20107 13.8219C6.01875 12.3668 7.09521 11.6135 7.96221 11.2474Z" fill="white"/>
</g>
<g opacity="0.3">
<path opacity="0.3" d="M13.431 5.77863C13.2624 5.65245 13.07 5.56169 12.8654 5.51181C12.6608 5.46192 12.4482 5.45395 12.2405 5.48837C12.0327 5.52279 11.8341 5.59889 11.6565 5.71208C11.4789 5.82528 11.3261 5.97324 11.2072 6.14705C11.0883 6.32086 11.0058 6.51693 10.9646 6.72346C10.9235 6.92999 10.9246 7.1427 10.9678 7.34881C11.011 7.55491 11.0955 7.75014 11.2161 7.92274C11.3368 8.09534 11.4911 8.24175 11.6698 8.35315C11.4875 6.89807 12.564 6.14475 13.431 5.77863Z" fill="white"/>
</g>
<g opacity="0.3">
<path opacity="0.3" d="M25.8818 30.12C28.501 29.0898 29.4374 26.5492 29.7455 25.3106C29.4758 25.1083 29.1476 24.9993 28.8104 25H28.8026C28.4236 25.0009 28.0577 25.1393 27.7728 25.3894C27.488 25.6396 27.3036 25.9846 27.2538 26.3604C27.0757 27.6985 26.6074 28.9816 25.8818 30.12Z" fill="white"/>
</g>
<path d="M48.9475 15.0809L48.8703 14.9265C48.6901 14.5661 48.3777 14.2892 47.9982 14.1537C47.6187 14.0182 47.2016 14.0346 46.8339 14.1993L35.375 19.4053C42.3202 18.7736 46.9839 16.3203 48.9475 15.0809Z" fill="#EFB66A"/>
<g opacity="0.3">
<path opacity="0.3" d="M11.5269 36.252C5.79385 37.4497 1.47012 37.2446 0.855469 35.4785C3.40703 42.8138 12.7433 46.2321 21.7091 43.1138C23.667 42.4373 25.5115 41.4687 27.1801 40.241C16.8263 41.9711 12.8567 38.2147 11.5269 36.252Z" fill="white"/>
</g>
</svg>
