<svg width="24" height="24" viewBox="0 0 24 24" fill="none" xmlns="http://www.w3.org/2000/svg">
<path d="M18.1568 7.52876C18.5201 7.7015 18.6757 8.1376 18.503 8.50089L18.2799 8.97031L6.99463 3.61079L7.21772 3.14138C7.39045 2.77731 7.82733 2.62239 8.19063 2.79513L18.1568 7.52876Z" fill="#F1F1F1"/>
<path d="M14.6376 8.95715L13.6895 20.3346C13.6376 20.9605 13.1047 21.4508 12.4765 21.4508H6.78001C6.15258 21.4508 5.61965 20.9605 5.56775 20.3346L4.61963 8.95715H14.6376Z" fill="#F1F1F1"/>
<path d="M18.8217 6.12903C19.9565 6.66816 20.4414 8.03069 19.9023 9.16549L19.3476 10.3344C19.2144 10.614 18.9371 10.7775 18.6474 10.7775C18.5358 10.7775 18.4228 10.7534 18.3151 10.7023L16.1307 9.66434L15.2306 20.4632C15.1121 21.8853 13.9014 23 12.4738 23H6.77729C5.35046 23 4.13975 21.8853 4.02123 20.4632L3.00262 8.24681C2.98481 8.03147 3.05839 7.81768 3.20479 7.65811C3.3512 7.49854 3.55802 7.40791 3.77491 7.40791H11.38L5.63087 4.67741C5.44574 4.58988 5.30243 4.43109 5.23349 4.23744C5.16455 4.04456 5.1754 3.83154 5.2637 3.64563L5.8191 2.47675C6.35823 1.34117 7.71999 0.85627 8.85556 1.3954L11.0245 2.42563L11.1376 2.18937C11.3754 1.68742 11.7952 1.30787 12.3188 1.12119C12.8425 0.93528 13.4072 0.96394 13.9091 1.20252L15.7782 2.08945C16.8139 2.5821 17.257 3.82534 16.7651 4.86177L16.652 5.0988L18.8217 6.12903ZM18.5033 8.50088C18.6761 8.13759 18.5204 7.70148 18.1571 7.52875L8.19095 2.79511C7.82766 2.62238 7.39078 2.7773 7.21804 3.14136L6.99495 3.61078L18.2802 8.97029L18.5033 8.50088ZM15.3654 4.19716C15.4909 3.93224 15.3778 3.61465 15.1129 3.48916L13.2445 2.60146C13.1167 2.54104 12.9726 2.5333 12.8386 2.58132C12.7046 2.62857 12.5977 2.7254 12.5365 2.85398L12.4242 3.09024L15.2531 4.43419L15.3654 4.19716ZM13.6868 20.3346L14.6349 8.95712H4.61691L5.56503 20.3346C5.61693 20.9605 6.14986 21.4508 6.77729 21.4508H12.4738C13.102 21.4508 13.6349 20.9605 13.6868 20.3346Z" fill="#3F2D20"/>
</svg>
