<svg width="252" height="252" viewBox="0 0 252 252" fill="none" xmlns="http://www.w3.org/2000/svg">
<g clip-path="url(#clip0)">
<path d="M227.973 128.697L211.759 126.571L194.408 93.3279C192.997 90.4598 189.811 89.0932 186.78 89.8297L151.408 98.4225L148.135 84.9479C147.644 82.9267 145.969 81.9067 143.948 82.3977L86.0064 96.4736C86.7391 112.706 75.7098 127.515 59.5401 131.443L75.9074 198.817C76.3985 200.838 78.0731 201.858 80.0943 201.367L96.9379 197.276C94.6465 187.843 100.257 178.632 109.69 176.34C119.122 174.049 128.334 179.659 130.625 189.091L171.049 179.271L184.524 175.998C182.232 166.565 187.843 157.354 197.276 155.062C206.708 152.771 215.919 158.381 218.211 167.814L235.055 163.722C237.076 163.231 238.096 161.556 237.605 159.535L230.812 131.575C230.485 130.228 229.484 129.044 227.973 128.697Z" fill="#FDD44B"/>
<path d="M143.948 82.3973L86.0064 96.4733C86.7391 112.706 75.7098 127.515 59.5401 131.443L66.0871 158.393L126.723 143.662C145.251 139.161 156.728 120.319 152.227 101.792L148.135 84.9481C147.644 82.9267 145.969 81.9063 143.948 82.3973Z" fill="#FF9330"/>
<path d="M130.625 189.091C128.333 179.659 119.122 174.048 109.689 176.34C100.257 178.631 94.6461 187.843 96.9376 197.275C99.229 206.708 108.44 212.318 117.873 210.027C127.306 207.735 132.916 198.524 130.625 189.091Z" fill="#FDD44B"/>
<path d="M218.211 167.814C215.919 158.382 206.708 152.771 197.275 155.062C187.843 157.354 182.232 166.565 184.523 175.998C186.815 185.43 196.026 191.041 205.459 188.749C214.891 186.458 220.502 177.246 218.211 167.814Z" fill="#FDD44B"/>
<path d="M59.54 131.443L75.9074 198.817C76.3984 200.838 78.0731 201.858 80.0943 201.367L90.2003 198.912C88.1791 199.403 86.5045 198.383 86.0134 196.362L69.6461 128.988" fill="white"/>
<path d="M227.972 128.697L211.758 126.571L194.407 93.3279C192.996 90.4598 189.811 89.0932 186.779 89.8298L176.673 92.2849C179.705 91.5483 182.891 92.9148 184.301 95.783L201.652 129.026L217.866 131.153C219.377 131.499 220.296 132.346 220.624 133.693L227.498 161.99C227.989 164.012 226.969 165.686 224.948 166.177L235.054 163.722C237.075 163.231 238.095 161.556 237.604 159.535L230.812 131.575C230.484 130.228 229.483 129.044 227.972 128.697Z" fill="#FF9330"/>
<path d="M85.0434 89.5724C80.5425 71.0448 61.7007 59.5683 43.1731 64.0693C24.6454 68.5703 13.169 87.412 17.6699 105.94C22.1709 124.467 41.0127 135.944 59.5403 131.443C78.068 126.942 89.5444 108.1 85.0434 89.5724Z" fill="#84BD93"/>
<path d="M43.1731 64.0689C44.8575 63.6597 46.6234 63.5873 48.3079 63.1781C32.7929 69.8014 23.6842 86.6406 27.776 103.484C31.8679 120.328 47.6871 131.111 64.5115 129.878C62.8271 130.287 61.2248 131.033 59.5403 131.442C41.0127 135.943 22.1709 124.467 17.6699 105.939C13.169 87.4117 24.645 68.57 43.1731 64.0689Z" fill="white"/>
<path d="M118.692 213.395C107.575 216.096 96.27 209.21 93.5694 198.093C90.8688 186.977 97.7546 175.672 108.871 172.971C119.988 170.271 131.293 177.156 133.994 188.273C136.694 199.39 129.808 210.695 118.692 213.395ZM110.508 179.709C103.097 181.509 98.5065 189.046 100.307 196.457C102.107 203.868 109.644 208.458 117.055 206.658C124.466 204.858 129.056 197.321 127.256 189.91C125.456 182.499 117.919 177.908 110.508 179.709Z" fill="#3F2D20"/>
<path d="M115.418 199.921C111.713 200.821 107.944 198.526 107.044 194.82C106.144 191.114 108.439 187.346 112.145 186.446C115.85 185.546 119.619 187.841 120.519 191.547C121.419 195.252 119.124 199.021 115.418 199.921Z" fill="#3F2D20"/>
<path d="M203.004 178.643C199.299 179.544 195.53 177.248 194.63 173.543C193.73 169.837 196.025 166.069 199.731 165.168C203.436 164.268 207.205 166.563 208.105 170.269C209.005 173.975 206.71 177.743 203.004 178.643Z" fill="#3F2D20"/>
<path d="M206.278 192.118C195.161 194.818 183.856 187.933 181.155 176.816C178.455 165.699 185.341 154.394 196.457 151.694C207.574 148.993 218.879 155.879 221.58 166.996C224.28 178.112 217.394 189.417 206.278 192.118ZM198.094 158.431C190.683 160.232 186.092 167.768 187.893 175.179C189.693 182.59 197.23 187.181 204.641 185.38C212.052 183.58 216.642 176.043 214.842 168.632C213.042 161.221 205.505 156.631 198.094 158.431Z" fill="#3F2D20"/>
<path d="M212.578 129.94L183.27 137.06C177.206 138.533 170.926 134.707 169.453 128.644L165.606 112.811C165.115 110.789 166.135 109.115 168.157 108.624C170.178 108.133 171.853 109.153 172.344 111.174L176.19 127.007C176.763 129.365 179.275 130.895 181.633 130.322L210.94 123.202C212.962 122.711 214.636 123.731 215.127 125.753C215.619 127.774 214.599 129.449 212.578 129.94Z" fill="#3F2D20"/>
<path d="M185.533 150.78L178.795 152.417C176.774 152.908 175.099 151.888 174.608 149.867C174.117 147.846 175.137 146.171 177.159 145.68L183.896 144.043C185.917 143.552 187.592 144.572 188.083 146.593C188.574 148.615 187.554 150.289 185.533 150.78Z" fill="#3F2D20"/>
<path d="M128.646 107.52L81.8207 118.895C79.7994 119.386 78.1248 118.366 77.6338 116.345C77.1427 114.324 78.1628 112.649 80.184 112.158L127.009 100.783C129.03 100.292 130.704 101.312 131.196 103.333C131.687 105.354 130.667 107.029 128.646 107.52Z" fill="#3F2D20"/>
<path d="M126.818 129.369L79.6566 140.826C77.6354 141.317 75.9607 140.297 75.4697 138.275C74.9787 136.254 75.9987 134.58 78.0199 134.089L125.182 122.631C127.203 122.14 128.878 123.16 129.369 125.182C129.86 127.203 128.84 128.878 126.818 129.369Z" fill="#3F2D20"/>
<path d="M60.3585 134.811C39.8093 139.803 19.2929 127.307 14.3009 106.758C9.30888 86.2093 21.8053 65.6925 42.3545 60.7004C62.9038 55.7083 83.4202 68.2048 88.4123 88.7541C93.4044 109.303 80.9074 129.819 60.3585 134.811ZM43.9913 67.4379C27.1477 71.5298 16.9465 88.2778 21.0384 105.121C25.1302 121.965 41.8783 132.166 58.7219 128.074C75.5654 123.982 85.7666 107.234 81.6748 90.3908C77.5829 73.5472 60.8345 63.3462 43.9913 67.4379Z" fill="#3F2D20"/>
<path d="M52.8975 118.787C51.8869 119.032 51.1312 118.859 50.2941 118.349L33.546 108.148C31.8714 107.128 31.3803 105.106 32.4003 103.431C33.4202 101.756 35.4415 101.266 37.1166 102.286L50.0963 110.192L61.4035 78.9046C62.0049 76.9746 63.9443 76.1468 65.8743 76.7482C67.8043 77.3496 68.632 79.289 68.0306 81.219L55.1834 116.447C55.0922 117.54 54.2453 118.459 52.8975 118.787C53.2347 118.705 52.8975 118.787 52.8975 118.787Z" fill="#3F2D20"/>
<path d="M235.872 167.091L219.028 171.183C217.007 171.674 215.333 170.654 214.841 168.632C213.041 161.221 205.504 156.631 198.093 158.431C190.682 160.232 186.092 167.768 187.892 175.179C188.383 177.2 187.363 178.875 185.342 179.366L131.443 192.46C129.422 192.951 127.747 191.931 127.256 189.91C125.456 182.499 117.919 177.908 110.508 179.709C103.097 181.509 98.5059 189.046 100.306 196.457C100.797 198.478 99.7772 200.153 97.756 200.644L80.9125 204.735C77.2068 205.636 73.4384 203.34 72.5382 199.635L56.1709 132.261C55.6799 130.24 56.7 128.565 58.7212 128.074C73.2064 124.555 83.2157 111.421 82.4733 96.6182C82.4008 94.8519 83.503 93.5139 85.1871 93.1048L143.128 79.029C146.834 78.1287 150.602 80.424 151.503 84.1297L153.958 94.2358L185.623 86.5432C190.34 85.3974 195.119 87.4472 197.275 91.918L213.88 123.559L228.327 125.757C231.268 126.113 233.525 128.062 234.261 131.094L240.972 158.717C241.873 162.422 239.578 166.19 235.872 167.091ZM220.424 163.709L234.236 160.353L227.443 132.393L228.054 129.034L227.443 132.393L211.23 130.267C210.137 130.176 209.218 129.329 208.636 128.4L191.284 95.1568C190.62 93.8913 188.945 92.871 187.261 93.2801L152.226 101.791C150.205 102.282 148.53 101.262 148.039 99.2409L144.766 85.7663L89.5193 99.1875C89.0777 114.992 78.4768 128.626 63.7269 133.993L79.2758 197.998L93.0875 194.643C92.4806 184.802 98.765 175.426 108.871 172.971C118.977 170.516 128.862 175.963 132.838 184.986L180.674 173.366C180.066 163.524 186.351 154.149 196.457 151.694C206.563 149.239 216.448 154.685 220.424 163.709Z" fill="#3F2D20"/>
<path d="M127.542 147.03L66.9058 161.761C64.8846 162.252 63.2099 161.232 62.7189 159.211L56.1719 132.261C55.6809 130.24 56.7009 128.565 58.7221 128.074C73.2074 124.555 83.2167 111.421 82.4742 96.6182C82.4018 94.8519 83.504 93.5139 85.1881 93.1047L143.129 79.0289C146.835 78.1287 150.603 80.424 151.504 84.1296L155.595 100.973C160.587 121.522 148.091 142.038 127.542 147.03ZM68.6376 154.205L125.905 140.293C142.749 136.201 152.95 119.453 148.858 102.609L144.766 85.7659L89.5198 99.1871C89.0782 114.992 78.4773 128.626 63.7274 133.993L68.6376 154.205Z" fill="#3F2D20"/>
</g>
<defs>
<clipPath id="clip0">
<rect width="208" height="208" fill="white" transform="translate(0.388672 49.4904) rotate(-13.6545)"/>
</clipPath>
</defs>
</svg>
