<svg width="24" height="20" viewBox="0 0 24 20" fill="none" xmlns="http://www.w3.org/2000/svg">
<path d="M0.401941 8.07892C1.04924 8.45265 2.46556 8.42465 4.01004 8.01106C4.18022 7.96582 4.345 7.9152 4.50656 7.86458L4.78444 12.1825L16.968 19.2156L24 7.0331L11.8175 0L4.24161 3.74704L4.32562 5.07073C3.98958 5.12566 3.63954 5.1989 3.28196 5.29368C1.7364 5.70834 0.496721 6.39226 0.124063 7.04064C0.00774248 7.24313 -0.0278003 7.44023 0.0217438 7.62548C0.073442 7.8075 0.200533 7.96259 0.401941 8.07892ZM17.709 14.0285C17.388 14.5843 16.9637 14.9311 16.4338 15.0722C15.9039 15.2133 15.3449 15.1142 14.7579 14.776C14.3648 14.5498 14.0675 14.2708 13.8682 13.9445C13.6668 13.6182 13.5807 13.2692 13.6097 12.8976C13.6367 12.5271 13.7465 12.1781 13.935 11.8496C14.1256 11.5222 14.3712 11.254 14.6782 11.0462C14.9851 10.8372 15.3287 10.7371 15.7143 10.7468C16.0977 10.7564 16.4876 10.8749 16.8786 11.1022C17.4677 11.4414 17.8318 11.8755 17.975 12.4043C18.1183 12.9332 18.0299 13.4738 17.709 14.0285ZM11.0841 5.17305C11.2704 4.84993 11.5181 4.58283 11.8283 4.3728C12.1374 4.1617 12.4821 4.06261 12.8634 4.07338C13.2446 4.08308 13.6334 4.20263 14.0298 4.43204C14.6136 4.76916 14.9776 5.20105 15.123 5.7288C15.2673 6.25548 15.179 6.79615 14.858 7.35191C14.536 7.91197 14.1106 8.25878 13.5807 8.39772C13.0529 8.53774 12.4961 8.43757 11.9112 8.10153C11.5149 7.8732 11.2166 7.5964 11.0173 7.27113C10.818 6.94694 10.7319 6.59798 10.7599 6.22424C10.7879 5.84943 10.8956 5.50047 11.0841 5.17305ZM18.0644 6.76061L19.0714 7.34114L10.7394 12.4657L9.74531 11.8917L18.0644 6.76061ZM6.47432 5.03626C6.79851 4.47512 7.51367 4.28341 8.07481 4.6076C8.63595 4.93179 8.82767 5.64802 8.50347 6.20916C8.17928 6.7703 7.46305 6.96202 6.90191 6.63783C6.89221 6.63137 6.88683 6.62167 6.87821 6.61521C6.99669 6.49889 7.10116 6.38149 7.16901 6.26409C7.28534 6.06161 7.3198 5.86559 7.27026 5.68034C7.21964 5.49508 7.09255 5.34322 6.89006 5.22582C6.77482 5.15905 6.62511 5.10842 6.46355 5.0675C6.46786 5.05888 6.46786 5.04703 6.47432 5.03626ZM6.65526 5.63295C6.74574 5.68572 6.80067 5.7428 6.81574 5.80312C6.83298 5.86451 6.81359 5.9399 6.76082 6.03145C6.71558 6.11008 6.63265 6.20162 6.53464 6.29533C6.37631 6.06807 6.30199 5.79235 6.32784 5.51662C6.45924 5.54894 6.57556 5.58663 6.65526 5.63295ZM0.530109 7.27328C0.779984 6.84247 1.78594 6.17901 3.40474 5.74604C3.74186 5.65556 4.05743 5.59094 4.35685 5.54247L4.47533 7.38314C4.29007 7.44669 4.09405 7.50377 3.88941 7.55762C1.9335 8.08107 0.56996 7.85597 0.476257 7.50054C0.460102 7.44238 0.477334 7.36376 0.530109 7.27328Z" fill="#F01F1F"/>
</svg>
