<svg width="20" height="17" viewBox="0 0 20 17" fill="none" xmlns="http://www.w3.org/2000/svg">
<path d="M8.94454 4.6714C8.94454 7.03132 4.67147 12.6107 4.67147 12.6107C4.67147 12.6107 0.398438 7.03136 0.398438 4.6714C0.398438 2.31144 2.31155 0.398376 4.67147 0.398376C7.03139 0.398376 8.94454 2.31148 8.94454 4.6714Z" fill="#EF8829"/>
<path d="M4.67128 7.07339C5.99786 7.07339 7.07327 5.99798 7.07327 4.6714C7.07327 3.34482 5.99786 2.26941 4.67128 2.26941C3.3447 2.26941 2.26929 3.34482 2.26929 4.6714C2.26929 5.99798 3.3447 7.07339 4.67128 7.07339Z" fill="white"/>
<path d="M19.6015 4.6714C19.6015 7.03132 15.3284 12.6107 15.3284 12.6107C15.3284 12.6107 11.0554 7.03136 11.0554 4.6714C11.0554 2.31144 12.9685 0.398376 15.3284 0.398376C17.6884 0.398376 19.6015 2.31148 19.6015 4.6714Z" fill="#EF8829"/>
<path d="M15.3285 7.07339C16.6551 7.07339 17.7305 5.99798 17.7305 4.6714C17.7305 3.34482 16.6551 2.26941 15.3285 2.26941C14.0019 2.26941 12.9265 3.34482 12.9265 4.6714C12.9265 5.99798 14.0019 7.07339 15.3285 7.07339Z" fill="white"/>
<path d="M4.66736 16.0048C5.19544 16.0048 5.62353 15.5767 5.62353 15.0486C5.62353 14.5206 5.19544 14.0925 4.66736 14.0925C4.13928 14.0925 3.71118 14.5206 3.71118 15.0486C3.71118 15.5767 4.13928 16.0048 4.66736 16.0048Z" fill="#EF8829"/>
<path d="M15.3046 16.0048C15.8326 16.0048 16.2607 15.5767 16.2607 15.0486C16.2607 14.5206 15.8326 14.0925 15.3046 14.0925C14.7765 14.0925 14.3484 14.5206 14.3484 15.0486C14.3484 15.5767 14.7765 16.0048 15.3046 16.0048Z" fill="#EF8829"/>
<path d="M4.67144 13.0101C4.79542 13.0101 4.91235 12.9523 4.98773 12.8539C4.99853 12.8398 6.0792 11.4254 7.1447 9.7399C8.60331 7.43261 9.34287 5.72767 9.34287 4.67241C9.34287 2.09655 7.24725 0.000976562 4.67144 0.000976562C2.09562 0.000976562 0 2.09655 0 4.67237C0 5.72763 0.739562 7.43261 2.19817 9.73986C3.26367 11.4253 4.34434 12.8398 4.35514 12.8539C4.43056 12.9523 4.54745 13.0101 4.67144 13.0101ZM0.796813 4.67237C0.796813 2.53592 2.53498 0.797749 4.67144 0.797749C6.80789 0.797749 8.54606 2.53592 8.54606 4.67237C8.54606 6.34934 5.98972 10.1608 4.6714 11.948C3.35299 10.161 0.796813 6.3501 0.796813 4.67237Z" fill="#3F2D20"/>
<path d="M7.47172 4.67141C7.47172 3.12727 6.21547 1.87097 4.67129 1.87097C3.1271 1.87097 1.87085 3.12723 1.87085 4.67141C1.87085 6.21559 3.1271 7.47185 4.67129 7.47185C6.21547 7.47185 7.47172 6.21559 7.47172 4.67141ZM2.6677 4.67141C2.6677 3.56663 3.56651 2.66778 4.67133 2.66778C5.77615 2.66778 6.67495 3.56659 6.67495 4.67141C6.67495 5.77623 5.77615 6.67503 4.67133 6.67503C3.56651 6.67503 2.6677 5.77623 2.6677 4.67141Z" fill="#3F2D20"/>
<path d="M5.07003 3.46469C5.07003 3.24465 4.89167 3.06628 4.67163 3.06628C3.78653 3.06628 3.06641 3.78636 3.06641 4.6715C3.06641 4.89154 3.24477 5.06991 3.46481 5.06991C3.68485 5.06991 3.86322 4.89154 3.86322 4.6715C3.86322 4.22577 4.22585 3.8631 4.67163 3.8631C4.89167 3.8631 5.07003 3.68473 5.07003 3.46469Z" fill="#3F2D20"/>
<path d="M15.3284 0C12.7526 0 10.657 2.09562 10.657 4.67143C10.657 5.72669 11.3965 7.43167 12.8551 9.73893C13.9206 11.4244 15.0013 12.8388 15.0121 12.853C15.0875 12.9514 15.2044 13.0091 15.3284 13.0091C15.4524 13.0091 15.5693 12.9514 15.6447 12.853C15.6555 12.8388 16.7362 11.4244 17.8017 9.73893C19.2603 7.43167 19.9999 5.72673 19.9999 4.67143C19.9999 2.09562 17.9043 0 15.3284 0ZM15.3284 11.9471C14.01 10.1601 11.4538 6.34916 11.4538 4.67143C11.4538 2.53498 13.192 0.796813 15.3284 0.796813C17.4649 0.796813 19.2031 2.53498 19.2031 4.67143C19.2031 6.34841 16.6467 10.1599 15.3284 11.9471Z" fill="#3F2D20"/>
<path d="M15.3285 1.87103C13.7843 1.87103 12.5281 3.12729 12.5281 4.67147C12.5281 6.21565 13.7843 7.47191 15.3285 7.47191C16.8726 7.47191 18.1289 6.21565 18.1289 4.67147C18.1289 3.12729 16.8726 1.87103 15.3285 1.87103ZM15.3285 6.67506C14.2237 6.67506 13.3249 5.77625 13.3249 4.67143C13.3249 3.56661 14.2237 2.66781 15.3285 2.66781C16.4333 2.66781 17.3321 3.56661 17.3321 4.67143C17.3321 5.77625 16.4333 6.67506 15.3285 6.67506Z" fill="#3F2D20"/>
<path d="M15.3047 13.694C14.5577 13.694 13.9501 14.3017 13.9501 15.0486C13.9501 15.7955 14.5577 16.4032 15.3047 16.4032C16.0516 16.4032 16.6592 15.7955 16.6592 15.0486C16.6592 14.3017 16.0515 13.694 15.3047 13.694ZM15.3047 15.6064C14.9971 15.6064 14.7469 15.3562 14.7469 15.0486C14.7469 14.741 14.9971 14.4908 15.3047 14.4908C15.6122 14.4908 15.8624 14.741 15.8624 15.0486C15.8624 15.3562 15.6122 15.6064 15.3047 15.6064Z" fill="#3F2D20"/>
<path d="M12.8745 14.6501H11.7988C11.5788 14.6501 11.4004 14.8285 11.4004 15.0486C11.4004 15.2686 11.5788 15.447 11.7988 15.447H12.8745C13.0945 15.447 13.2729 15.2686 13.2729 15.0486C13.2729 14.8285 13.0945 14.6501 12.8745 14.6501Z" fill="#3F2D20"/>
<path d="M10.4045 14.6502H5.96215C5.79159 14.0971 5.27573 13.694 4.66745 13.694C3.92052 13.694 3.31287 14.3017 3.31287 15.0486C3.31287 15.7955 3.92052 16.4032 4.66745 16.4032C5.27573 16.4032 5.79163 16.0001 5.96215 15.447H10.4045C10.6245 15.447 10.8029 15.2687 10.8029 15.0486C10.8029 14.8286 10.6245 14.6502 10.4045 14.6502ZM4.66745 15.6064C4.35988 15.6064 4.10968 15.3562 4.10968 15.0486C4.10968 14.741 4.35988 14.4908 4.66745 14.4908C4.97502 14.4908 5.22522 14.741 5.22522 15.0486C5.22522 15.3562 4.97502 15.6064 4.66745 15.6064Z" fill="#3F2D20"/>
</svg>
