<svg width="277" height="277" viewBox="0 0 277 277" fill="none" xmlns="http://www.w3.org/2000/svg">
<path d="M33.5057 167.511C24.0681 191.105 41.3705 220.598 51.2014 232.395C80.694 267.787 204.564 261.888 234.057 197.004C263.549 132.12 251.752 73.1342 198.665 37.743C145.578 2.3516 74.7957 37.743 80.694 73.1342C86.5926 108.526 45.3029 138.018 33.5057 167.511Z" fill="#F1F1F1"/>
<path fill-rule="evenodd" clip-rule="evenodd" d="M48.0898 91.2339C48.0898 80.2708 56.8223 71.1737 67.8506 71.1737H193.76C204.788 71.1737 213.52 80.2708 213.52 91.2339V130.806H201.979V91.2339C201.979 86.4133 198.184 82.7154 193.76 82.7154H67.8506C63.426 82.7154 59.6315 86.4133 59.6315 91.2339V162.683C59.6315 167.504 63.426 171.201 67.8506 171.201H123.111V182.743H67.8506C56.8223 182.743 48.0898 173.646 48.0898 162.683V91.2339Z" fill="#3F2D20"/>
<path fill-rule="evenodd" clip-rule="evenodd" d="M207.75 105.799H53.8608V94.2571H207.75V105.799Z" fill="#3F2D20"/>
<path fill-rule="evenodd" clip-rule="evenodd" d="M84.6384 144.271H69.2495V132.729H84.6384V144.271Z" fill="#3F2D20"/>
<path fill-rule="evenodd" clip-rule="evenodd" d="M100.027 163.507H69.2495V151.965H100.027V163.507Z" fill="#3F2D20"/>
<path opacity="0.8" d="M223.139 184.667C223.139 205.914 205.914 223.139 184.667 223.139C163.419 223.139 146.194 205.914 146.194 184.667C146.194 163.419 163.419 146.194 184.667 146.194C205.914 146.194 223.139 163.419 223.139 184.667Z" fill="#F01F1F"/>
<path fill-rule="evenodd" clip-rule="evenodd" d="M190.437 146.625C171.928 149.408 157.736 165.381 157.736 184.667C157.736 203.953 171.928 219.925 190.437 222.709C188.555 222.992 186.628 223.139 184.667 223.139C163.419 223.139 146.194 205.914 146.194 184.667C146.194 163.419 163.419 146.194 184.667 146.194C186.628 146.194 188.555 146.341 190.437 146.625Z" fill="#F01F1F"/>
<path fill-rule="evenodd" clip-rule="evenodd" d="M184.667 151.965C166.606 151.965 151.965 166.606 151.965 184.667C151.965 202.727 166.606 217.368 184.667 217.368C202.727 217.368 217.368 202.727 217.368 184.667C217.368 166.606 202.727 151.965 184.667 151.965ZM140.424 184.667C140.424 160.232 160.232 140.424 184.667 140.424C209.101 140.424 228.91 160.232 228.91 184.667C228.91 209.101 209.101 228.91 184.667 228.91C160.232 228.91 140.424 209.101 140.424 184.667Z" fill="#3F2D20"/>
<path d="M191.6 185.001L203.974 172.627C205.342 171.259 205.342 169.043 203.974 167.678L202.325 166.028C200.957 164.66 198.74 164.66 197.375 166.028L185.001 178.402L172.627 166.025C171.259 164.658 169.043 164.658 167.678 166.025L166.025 167.675C164.658 169.043 164.658 171.259 166.025 172.625L178.402 185.001L166.028 197.375C164.66 198.743 164.66 200.96 166.028 202.325L167.678 203.974C169.045 205.342 171.262 205.342 172.627 203.974L185.001 191.6L197.375 203.974C198.743 205.342 200.96 205.342 202.325 203.974L203.974 202.325C205.342 200.957 205.342 198.74 203.974 197.375L191.6 185.001Z" fill="white"/>
</svg>
