<svg width="24" height="24" viewBox="0 0 24 24" fill="#22A45D" xmlns="http://www.w3.org/2000/svg">
<g>
<path d="M12.0001 0C6.92094 0 2.78882 4.1322 2.78882 9.21123C2.78882 11.2403 3.43593 13.1648 4.66009 14.7767C5.75941 16.2243 7.28733 17.3293 8.99609 17.9205L11.2154 23.4687C11.3438 23.7896 11.6545 23.9999 12.0001 23.9999C12.3456 23.9999 12.6563 23.7896 12.7847 23.4687L15.004 17.9205C16.7129 17.3293 18.2407 16.2243 19.34 14.7767C20.5642 13.1648 21.2113 11.2403 21.2113 9.21123C21.2113 4.1322 17.0792 0 12.0001 0ZM12.0001 13.1197C12.0001 13.1197 7.81694 10.3309 7.81694 8.23935C7.81694 7.08404 8.75335 6.1478 9.9085 6.1478C11.0637 6.1478 12.0001 7.08428 12.0001 8.23943C12.0001 7.08428 12.9365 6.14788 14.0916 6.14788C15.2468 6.14788 16.1832 7.08412 16.1832 8.23943C16.1832 10.331 12.0001 13.1197 12.0001 13.1197Z" />
</g>
</svg>
