<svg width="24" height="24" viewBox="0 0 24 24" fill="none" xmlns="http://www.w3.org/2000/svg">
<path d="M7.34026 8.32209C7.41826 8.40009 7.52066 8.43929 7.62306 8.43929C7.72546 8.43929 7.82786 8.40009 7.90586 8.32209C8.06226 8.16569 8.06226 7.91289 7.90586 7.75649C7.49986 7.35009 7.49986 6.68929 7.90586 6.28289C8.25386 5.93489 8.44586 5.47249 8.44586 4.98049C8.44586 4.48849 8.25426 4.02609 7.90586 3.67809C7.74946 3.52169 7.49666 3.52169 7.34026 3.67809C7.18386 3.83449 7.18386 4.08729 7.34026 4.24369C7.53706 4.44049 7.64586 4.70209 7.64586 4.98049C7.64586 5.25889 7.53746 5.52049 7.34026 5.71729C6.62226 6.43529 6.62226 7.60409 7.34026 8.32209Z" fill="white"/>
<path d="M16.1401 8.32209C16.2181 8.40009 16.3205 8.43929 16.4229 8.43929C16.5253 8.43929 16.6277 8.40009 16.7057 8.32209C16.8621 8.16569 16.8621 7.91289 16.7057 7.75649C16.2997 7.35009 16.2997 6.68929 16.7057 6.28289C17.0537 5.93489 17.2457 5.47249 17.2457 4.98049C17.2457 4.48849 17.0541 4.02609 16.7057 3.67809C16.5493 3.52169 16.2965 3.52169 16.1401 3.67809C15.9837 3.83449 15.9837 4.08729 16.1401 4.24369C16.3369 4.44049 16.4457 4.70209 16.4457 4.98049C16.4457 5.25889 16.3373 5.52049 16.1401 5.71729C15.4221 6.43529 15.4221 7.60409 16.1401 8.32209Z" fill="white"/>
<path d="M11.7397 5.92207C11.8177 6.00007 11.9201 6.03927 12.0225 6.03927C12.1249 6.03927 12.2273 6.00007 12.3053 5.92207C12.4617 5.76567 12.4617 5.51287 12.3053 5.35647C11.8993 4.95007 11.8993 4.28927 12.3053 3.88287C12.6533 3.53487 12.8453 3.07247 12.8453 2.58047C12.8453 2.08847 12.6537 1.62607 12.3053 1.27807C12.1489 1.12167 11.8961 1.12167 11.7397 1.27807C11.5833 1.43447 11.5833 1.68727 11.7397 1.84367C11.9365 2.04047 12.0453 2.30207 12.0453 2.58047C12.0453 2.85887 11.9369 3.12047 11.7397 3.31727C11.0217 4.03527 11.0217 5.20407 11.7397 5.92207Z" fill="white"/>
<path d="M22.2496 17.4885C21.5248 13.2321 18.2068 9.85007 13.9828 9.03087C13.9896 8.96687 14 8.90247 14 8.83887C14 7.73607 13.1028 6.83887 12 6.83887C10.8972 6.83887 10 7.73607 10 8.83887C10 8.90247 10.01 8.96687 10.0172 9.03087C5.7932 9.85007 2.4752 13.2321 1.7504 17.4885C0.9144 17.9617 0 18.6581 0 19.4393C0 21.4733 6.2048 22.8393 12 22.8393C17.7952 22.8393 24 21.4733 24 19.4393C24 18.6581 23.0856 17.9617 22.2496 17.4885ZM10.8024 8.90807C10.8008 8.88487 10.8 8.86167 10.8 8.83927C10.8 8.17767 11.3384 7.63927 12 7.63927C12.6616 7.63927 13.2 8.17767 13.2 8.83927C13.2 8.86207 13.1992 8.88487 13.1976 8.90807C13.1788 8.90607 13.16 8.90527 13.1416 8.90327C13.004 8.88807 12.8656 8.87727 12.7264 8.86767C12.6752 8.86407 12.6244 8.85887 12.5732 8.85607C12.3836 8.84567 12.1928 8.83967 12.0004 8.83967C11.808 8.83967 11.6172 8.84567 11.4276 8.85607C11.3764 8.85887 11.3256 8.86407 11.2744 8.86767C11.1352 8.87727 10.9968 8.88847 10.8592 8.90327C10.84 8.90527 10.8212 8.90567 10.8024 8.90807ZM10.0504 10.6541C10.6832 10.5117 11.3372 10.4393 11.9944 10.4393C11.996 10.4393 11.998 10.4393 12 10.4393C12.2208 10.4393 12.4 10.6185 12.4 10.8397C12.4 11.0605 12.2208 11.2393 12 11.2393C11.9984 11.2393 11.9964 11.2393 11.9948 11.2393C11.3964 11.2393 10.802 11.3049 10.2264 11.4345C10.1968 11.4413 10.1672 11.4441 10.138 11.4441C9.9552 11.4441 9.79 11.3181 9.748 11.1321C9.6996 10.9165 9.8348 10.7025 10.0504 10.6541ZM7.66 11.5989C7.8504 11.4865 8.0952 11.5493 8.208 11.7393C8.3208 11.9297 8.258 12.1749 8.0676 12.2873C6.1824 13.4041 4.8088 15.4317 4.3932 17.7113C4.358 17.9041 4.1896 18.0393 4 18.0393C3.976 18.0393 3.952 18.0373 3.928 18.0325C3.7108 17.9929 3.5664 17.7849 3.606 17.5673C4.0632 15.0633 5.5788 12.8321 7.66 11.5989ZM12 22.0393C5.1616 22.0393 0.8 20.3317 0.8 19.4393C0.8 19.2861 0.9896 18.9485 1.6256 18.5081C1.624 18.5309 1.6248 18.5533 1.6232 18.5761C1.6096 18.7953 1.6 19.0161 1.6 19.2393V19.5545L1.9068 19.6285C5.2084 20.4209 8.6044 20.8225 12 20.8225C15.3956 20.8225 18.7916 20.4209 22.0932 19.6285L22.4 19.5545V19.2393C22.4 19.0161 22.3904 18.7957 22.3768 18.5761C22.3752 18.5533 22.376 18.5309 22.3744 18.5081C23.0104 18.9485 23.2 19.2861 23.2 19.4393C23.2 20.3317 18.8384 22.0393 12 22.0393Z" fill="white"/>
</svg>
