<svg width="24" height="24" viewBox="0 0 24 24" fill="none" xmlns="http://www.w3.org/2000/svg">
<path d="M23.5785 9.43398L20.5755 6.98654V3.07239C20.5755 2.63163 20.2169 2.27298 19.7761 2.27298H17.8866C17.4458 2.27298 17.0872 2.63163 17.0872 3.07239V4.14339L13.0746 0.873133C12.7844 0.636652 12.4018 0.506348 11.9975 0.506348C11.5947 0.506348 11.214 0.635853 10.9253 0.871098L0.421514 9.43391C-0.0557363 9.82279 -0.0271028 10.1615 0.0324172 10.3288C0.0917918 10.4957 0.282997 10.7758 0.896075 10.7758H2.33437V22.0364C2.33437 22.8401 2.9864 23.4938 3.78784 23.4938H8.32997C9.12466 23.4938 9.74711 22.8536 9.74711 22.0364V17.4187C9.74711 17.0229 10.1108 16.6625 10.5102 16.6625H13.5625C13.9432 16.6625 14.2529 17.0017 14.2529 17.4187V22.0364C14.2529 22.8264 14.9352 23.4938 15.7427 23.4938H20.2122C21.0136 23.4938 21.6656 22.84 21.6656 22.0364V10.7758H23.1039C23.717 10.7758 23.9081 10.4957 23.9676 10.3288C24.0271 10.1615 24.0557 9.82279 23.5785 9.43398Z" fill="#22A45D" />
</svg>
