<svg width="40" height="40" viewBox="0 0 40 40" fill="none" xmlns="http://www.w3.org/2000/svg">
<path d="M36.0425 20.1921C36.0425 12.6689 29.8872 6.51358 22.364 6.51358C14.8409 6.51358 8.68555 12.6689 8.68555 20.1921C8.68555 27.7152 14.8409 33.8706 22.364 33.8706C29.8872 33.8706 36.0425 27.7152 36.0425 20.1921Z" fill="#84BD93"/>
<path d="M20.0004 36.5588C10.8176 36.5588 3.44141 29.1826 3.44141 20C3.44141 10.8174 10.8176 3.44101 20.0004 3.44101C29.1832 3.44101 36.5594 10.8172 36.5594 20C36.5594 29.1828 29.183 36.5588 20.0004 36.5588ZM20.0004 6.45178C12.4736 6.45178 6.45218 12.4732 6.45218 20C6.45218 27.5269 12.4736 33.5482 20.0004 33.5482C27.5273 33.5482 33.5486 27.5269 33.5486 20C33.5486 12.4732 27.5271 6.45178 20.0004 6.45178Z" fill="#3F2D20"/>
<path d="M18.6614 29.0179C18.2098 29.0179 17.9087 28.8674 17.6077 28.5662L11.5863 22.5449C10.9842 21.9428 10.9842 21.0396 11.5863 20.4373C12.1884 19.8351 13.0916 19.8352 13.6939 20.4373L18.3604 25.1039L26.3389 13.0609C26.7905 12.3082 27.6937 12.1577 28.4465 12.6093C29.1992 13.0609 29.3497 13.9642 28.8981 14.7169L19.8657 28.2651C19.7153 28.7167 19.2637 29.0179 18.6614 29.0179C18.812 29.0179 18.6614 29.0179 18.6614 29.0179Z" fill="#3F2D20"/>
</svg>
