<svg width="40" height="40" viewBox="0 0 40 40" fill="none" xmlns="http://www.w3.org/2000/svg">
<g clip-path="url(#clip0)">
<path d="M32.0405 9.34691L8.25391 9.28381L12.0393 17.323H28.043L32.0405 9.34691Z" fill="#EF8829"/>
<path d="M29.5889 18.6715C29.4202 19.021 29.2058 18.6684 28.8177 18.6684H10.8465C10.4585 18.6684 9.96498 19.0211 9.79613 18.6715L7.34473 13.5889L9.34005 17.5557L11.6401 32.5257H29.0935L32.0408 13.4226L29.5889 18.6715ZM25.0852 28.6687C23.6282 29.3092 21.7129 29.662 19.6924 29.662C17.6722 29.662 15.7569 29.3092 14.2998 28.6687C12.5784 27.9119 11.6303 26.8046 11.6303 25.551C11.6303 24.2974 12.5784 23.1903 14.2998 22.4334C15.7569 21.7927 17.6722 21.44 19.6924 21.44C21.7131 21.44 23.6282 21.7927 25.0855 22.4334C26.8068 23.1903 27.755 24.2974 27.755 25.551C27.755 26.8048 26.8068 27.9119 25.0852 28.6687Z" fill="#84BD93"/>
<path d="M25.1281 24.7605C24.1275 24.4026 22.755 24.1369 21.0406 24.1369C17.1329 24.1369 15.001 25.5165 15.001 26.2253C15.001 26.4446 15.2057 26.7284 15.6036 27.0153C16.6044 27.3735 17.9769 27.6393 19.6922 27.6393C23.6001 27.6393 25.732 26.2598 25.732 25.551C25.732 25.3316 25.5265 25.0477 25.1281 24.7605Z" fill="#FDD44B"/>
<path d="M25.085 22.4334C23.6278 21.7927 21.7125 21.4399 19.692 21.4399C17.6717 21.4399 15.7566 21.7927 14.2994 22.4334C12.578 23.1901 11.6299 24.2974 11.6299 25.551C11.6299 26.8046 12.578 27.9119 14.2994 28.6686C15.7566 29.3092 17.6718 29.6619 19.692 29.6619C21.7125 29.6619 23.6278 29.3092 25.0848 28.6686C26.8064 27.9119 27.7545 26.8046 27.7545 25.551C27.7545 24.2974 26.8064 23.1903 25.085 22.4334ZM19.692 27.6393C15.7843 27.6393 13.6525 26.2597 13.6525 25.551C13.6525 24.8421 15.7844 23.4627 19.692 23.4627C23.5998 23.4627 25.7318 24.8423 25.7318 25.551C25.7318 26.2597 23.5998 27.6393 19.692 27.6393Z" fill="#3F2D20"/>
<path fill-rule="evenodd" clip-rule="evenodd" d="M17.1391 6H5.29202C4.99657 6 4.59767 6.15633 4.37178 6.59533L0.105331 15.208C-0.142622 15.7085 0.0621442 16.3153 0.562623 16.5632C1.0631 16.8114 1.66987 16.6064 1.91782 16.1058L4.78562 10.3166L8.42687 33.5881C8.50383 34.0804 8.92776 34.4431 9.42608 34.4431H29.9588C30.4571 34.4431 30.881 34.0804 30.958 33.5881L34.5991 10.3168L37.4669 16.1059C37.7147 16.6064 38.3212 16.8114 38.822 16.5633C39.3226 16.3154 39.5272 15.7088 39.2794 15.2081L35.015 6.5995C34.785 6.15997 34.4825 6.00027 34.0927 6.00027H28.5833L17.1391 6ZM7.34452 13.5855L10.2916 32.4205H29.0934L32.0406 13.5847L29.5887 18.6647C29.4201 19.0143 29.066 19.2365 28.6779 19.2365H10.7066C10.3186 19.2365 9.96477 19.0143 9.79593 18.6647L7.34452 13.5855ZM11.3416 17.2137H28.0431L32.4792 8.02263H6.90539L11.3416 17.2137Z" fill="#3F2D20"/>
</g>
<defs>
<clipPath id="clip0">
<rect width="40" height="40" fill="white"/>
</clipPath>
</defs>
</svg>
