<svg width="1024" height="1024" viewBox="0 0 1024 1024" fill="none" xmlns="http://www.w3.org/2000/svg">
<path fill-rule="evenodd" clip-rule="evenodd" d="M512 1024C794.77 1024 1024 794.77 1024 512C1024 229.23 794.77 0 512 0C229.23 0 0 229.23 0 512C0 794.77 229.23 1024 512 1024Z" fill="#FDD44B"/>
<mask id="mask0" maskUnits="userSpaceOnUse" x="0" y="0" width="1024" height="1024">
<path fill-rule="evenodd" clip-rule="evenodd" d="M512 1024C794.77 1024 1024 794.77 1024 512C1024 229.23 794.77 0 512 0C229.23 0 0 229.23 0 512C0 794.77 229.23 1024 512 1024Z" fill="white"/>
</mask>
<g mask="url(#mask0)">
<path fill-rule="evenodd" clip-rule="evenodd" d="M677.643 -117.552C1135.79 133.174 781.502 296.667 1065.25 546.947C1225.16 687.989 988.851 959.093 710.314 953.866C611.096 952.004 508.98 766.45 414.074 734.682C302.63 697.378 202.11 794.791 144.615 664.02C-99.2993 109.247 389.212 297.971 414.235 51.8803C439.258 -194.21 613.351 -150.316 677.643 -117.552Z" fill="#FBFBFB"/>
<path fill-rule="evenodd" clip-rule="evenodd" d="M930.034 826.268C939.125 823.662 944.381 814.179 941.775 805.088C939.168 795.997 929.685 790.741 920.594 793.348C911.503 795.954 906.247 805.437 908.854 814.528C911.46 823.619 920.943 828.875 930.034 826.268Z" fill="#22A45D"/>
<path fill-rule="evenodd" clip-rule="evenodd" d="M258.712 662.653C267.803 660.047 273.059 650.564 270.453 641.473C267.846 632.382 258.363 627.126 249.272 629.733C240.181 632.339 234.925 641.822 237.532 650.913C240.138 660.004 249.621 665.26 258.712 662.653Z" fill="#84BD93"/>
<path fill-rule="evenodd" clip-rule="evenodd" d="M580.71 116.41C589.8 113.803 595.057 104.32 592.45 95.2295C589.843 86.1387 580.361 80.8823 571.27 83.4891C562.179 86.0958 556.923 95.5786 559.529 104.669C562.136 113.76 571.619 119.017 580.71 116.41Z" fill="#FF9330"/>
<path fill-rule="evenodd" clip-rule="evenodd" d="M109.268 327.853C118.359 325.246 123.615 315.763 121.009 306.672C118.402 297.582 108.919 292.325 99.8283 294.932C90.7375 297.539 85.4811 307.021 88.0879 316.112C90.6946 325.203 100.177 330.459 109.268 327.853Z" fill="#22A45D"/>
</g>
<g clip-path="url(#clip0)">
<path d="M306.536 201.494L310.402 200.807L370.838 132.995L369.023 131.378L306.536 201.494Z" fill="#FDD44B"/>
<path d="M326.651 128.118L325.839 127.765L288.35 204.817L289.458 204.62L328.383 124.624L326.651 128.118Z" fill="#FDD44B"/>
<path d="M341.256 209.882L240.948 227.413L262.918 258.467L330.374 246.493L341.256 209.882Z" fill="#EF8829"/>
<path d="M337.898 251.02C337.448 252.62 336.281 251.294 334.645 251.584L258.895 265.03C257.26 265.32 255.444 267.176 254.471 265.829L240.335 246.24L251.713 261.467L272.609 322.846L346.176 309.787L344.306 227.062L337.898 251.02ZM326.395 296.528C320.732 300.318 312.923 303.238 304.407 304.75C295.892 306.262 287.555 306.208 280.933 304.598C273.111 302.696 268.287 298.738 267.349 293.454C266.411 288.17 269.579 282.794 276.268 278.316C281.931 274.525 289.74 271.605 298.255 270.094C306.772 268.582 315.109 268.636 321.731 270.246C329.552 272.149 334.377 276.106 335.315 281.39C336.253 286.675 333.085 292.051 326.395 296.528Z" fill="#84BD93"/>
<path d="M323.653 280.023C319.167 279.263 313.184 279.17 305.957 280.453C289.486 283.377 281.532 290.787 282.063 293.774C282.227 294.699 283.302 295.742 285.194 296.654C289.68 297.414 295.664 297.508 302.894 296.225C319.366 293.301 327.32 285.891 326.79 282.903C326.625 281.979 325.547 280.936 323.653 280.023Z" fill="#FDD44B"/>
<path d="M321.73 270.246C315.108 268.636 306.772 268.582 298.255 270.094C289.739 271.606 281.931 274.525 276.268 278.316C269.578 282.794 266.411 288.17 267.349 293.454C268.286 298.738 273.111 302.696 280.933 304.598C287.554 306.208 295.891 306.261 304.407 304.75C312.923 303.238 320.732 300.318 326.394 296.528C333.085 292.051 336.252 286.674 335.314 281.39C334.377 276.106 329.552 272.149 321.73 270.246ZM302.893 296.224C286.422 299.148 276.404 294.928 275.874 291.941C275.344 288.953 283.298 281.544 299.769 278.62C316.24 275.696 326.259 279.916 326.789 282.903C327.319 285.891 319.365 293.301 302.893 296.224Z" fill="#3F2D20"/>
<path d="M379.831 129.411L371.552 122.033C369.767 120.443 367.03 120.601 365.44 122.385L307.313 187.608L338.055 124.477C339.102 122.327 338.208 119.736 336.058 118.688L326.088 113.833C325.055 113.33 323.867 113.26 322.78 113.633C321.695 114.007 320.802 114.798 320.3 115.83L275.942 206.924L226.006 215.788C224.761 216.009 223.196 216.966 222.572 218.986L211.033 258.481C210.362 260.776 211.679 263.18 213.975 263.851C216.27 264.523 218.674 263.204 219.345 260.909L227.101 234.362L259.861 329.728C260.553 331.745 262.611 332.957 264.712 332.584L351.258 317.222C353.359 316.849 354.874 315.003 354.83 312.87L352.767 212.056L369.186 234.312C370.605 236.236 373.315 236.647 375.24 235.226C377.164 233.807 377.573 231.097 376.154 229.172L351.738 196.077C350.44 194.396 349.045 193.949 347.402 194.241L324.18 198.363L380.183 135.525C380.947 134.668 381.339 133.542 381.273 132.396C381.207 131.249 380.689 130.176 379.831 129.411ZM266.847 323.411L240.333 246.226L254.466 265.8C255.439 267.148 257.097 267.819 258.732 267.529L334.482 254.083C336.118 253.793 337.444 252.592 337.893 250.992L344.427 227.745L346.097 309.344L266.847 323.411ZM330.293 246.032L259.895 258.528L234.32 223.106L342.115 203.972L330.293 246.032ZM328.375 124.578L289.442 204.528L286.484 205.053L326.189 123.514L328.375 124.578ZM310.402 200.807L306.536 201.494L369.023 131.378L370.837 132.995L310.402 200.807Z" fill="#3F2D20"/>
</g>
<g clip-path="url(#clip1)">
<path d="M624.031 489.178C630.203 490.699 636.466 486.901 637.991 480.713L639.835 473.231L617.445 467.714L615.601 475.196C614.076 481.383 617.858 487.657 624.031 489.178Z" fill="#FF9330"/>
<path d="M466.335 438.413C464.81 444.601 468.592 450.874 474.765 452.395C480.937 453.916 487.201 450.118 488.726 443.931L490.569 436.449L468.179 430.931L466.335 438.413Z" fill="#FF9330"/>
<path d="M505.319 376.594L482.929 371.076L470.022 423.45L492.412 428.967L505.319 376.594Z" fill="#FF9330"/>
<path d="M654.585 413.378L632.195 407.86L619.288 460.233L641.678 465.751L654.585 413.378Z" fill="#FF9330"/>
<path d="M547.03 624.959C561.456 628.514 576.041 619.672 579.604 605.209C583.168 590.747 574.363 576.141 559.936 572.585C545.509 569.03 530.925 577.872 527.361 592.335C523.797 606.797 532.603 621.403 547.03 624.959Z" fill="#FDD44B"/>
<path d="M594.177 481.821C600.349 483.342 606.613 479.544 608.138 473.357L609.982 465.875L587.592 460.357L585.748 467.839C584.223 474.027 588.005 480.3 594.177 481.821Z" fill="#FF9330"/>
<path d="M624.732 406.021L602.342 400.503L589.435 452.877L611.825 458.394L624.732 406.021Z" fill="#FF9330"/>
<path d="M594.878 398.664L572.488 393.147L559.582 445.52L581.972 451.037L594.878 398.664Z" fill="#FF9330"/>
<path d="M535.172 383.951L512.782 378.433L499.875 430.806L522.265 436.324L535.172 383.951Z" fill="#FF9330"/>
<path d="M564.324 474.464C570.496 475.985 576.76 472.188 578.284 466L580.128 458.518L557.738 453L555.894 460.482C554.37 466.67 558.152 472.943 564.324 474.464Z" fill="#FF9330"/>
<path d="M409.419 527.557L412.513 528.32L442.366 535.676L445.459 536.439C444.991 531.705 441.612 527.554 436.746 526.355L421.82 522.677C416.954 521.478 412.034 523.583 409.419 527.557Z" fill="#FF9330"/>
<path d="M534.471 467.108C540.643 468.629 546.907 464.831 548.432 458.643L550.276 451.161L527.886 445.644L526.042 453.126C524.517 459.313 528.299 465.587 534.471 467.108Z" fill="#FF9330"/>
<path d="M565.024 391.307L542.635 385.79L529.728 438.163L552.118 443.681L565.024 391.307Z" fill="#FF9330"/>
<path d="M466.688 565.479C465.163 571.666 468.946 577.94 475.118 579.461L519.898 590.496C524.472 571.933 543.259 560.539 561.78 565.104C580.301 569.668 591.643 588.486 587.068 607.049L594.532 608.888C600.704 610.409 606.967 606.611 608.492 600.423L619.555 555.532L477.751 520.588L466.688 565.479Z" fill="#84BD93"/>
<path d="M520.422 443.805L498.032 438.288L496.189 445.77C494.664 451.957 498.446 458.231 504.618 459.752C510.791 461.273 517.054 457.475 518.579 451.287L520.422 443.805Z" fill="#FF9330"/>
<path d="M657.351 402.154L478.231 358.014C476.168 357.506 474.086 358.77 473.577 360.835L458.827 420.69L456.062 431.913C453.52 442.227 459.822 452.68 470.111 455.215C476.234 456.725 482.377 455.04 486.909 451.296C489.183 456.717 493.84 461.063 499.963 462.572C504.18 463.611 508.392 463.098 512.104 461.493L499.173 513.963L474.598 507.907L464.182 490.63C463.657 489.755 462.806 489.128 461.814 488.883L439.425 483.366L437.581 490.848L458.426 495.985L468.018 511.896L456.415 558.98C454.19 568.01 458.75 577.15 466.825 580.985L460.279 607.549L467.743 609.388L474.196 583.202L516.109 593.53C515.827 609.341 526.427 623.85 542.375 627.78C558.324 631.71 574.451 623.788 581.547 609.656L589.876 611.709C600.165 614.244 610.602 607.916 613.144 597.602L625.128 548.97C625.637 546.905 624.382 544.818 622.318 544.309L596.197 537.872L609.127 485.402C611.669 488.548 615.159 490.96 619.376 491.999C629.665 494.534 640.102 488.207 642.644 477.893L645.41 466.669L660.16 406.815C660.669 404.75 659.415 402.663 657.351 402.154ZM579.163 446.376L556.773 440.858L569.679 388.486L592.069 394.004L579.163 446.376ZM599.532 395.843L621.922 401.36L609.016 453.733L586.626 448.216L599.532 395.843ZM549.31 439.019L526.92 433.502L539.826 381.129L562.216 386.647L549.31 439.019ZM519.456 431.662L497.066 426.145L509.973 373.773L532.362 379.29L519.456 431.662ZM525.076 440.984L547.466 446.501L545.622 453.983C544.097 460.171 537.833 463.969 531.662 462.448C525.49 460.927 521.708 454.654 523.232 448.466L525.076 440.984ZM554.929 448.34L577.319 453.858L575.475 461.34C573.95 467.528 567.686 471.325 561.514 469.804C555.342 468.283 551.56 462.01 553.085 455.823L554.929 448.34ZM584.782 455.697L607.172 461.215L605.328 468.697C603.804 474.884 597.54 478.682 591.368 477.161C585.196 475.64 581.414 469.367 582.939 463.179L584.782 455.697ZM629.386 403.2L651.776 408.717L638.869 461.09L616.48 455.573L629.386 403.2V403.2ZM480.119 366.416L502.509 371.933L489.603 424.306L467.213 418.789L480.119 366.416ZM471.955 447.734C465.783 446.213 462.001 439.939 463.526 433.752L465.369 426.269L487.759 431.787L485.915 439.269C484.39 445.457 478.127 449.255 471.955 447.734ZM501.808 455.09C495.636 453.569 491.853 447.296 493.378 441.108L495.222 433.626L517.612 439.144L515.768 446.626C514.244 452.814 507.98 456.611 501.808 455.09ZM544.22 620.298C529.819 616.749 520.993 602.115 524.551 587.674C528.11 573.235 542.725 564.376 557.126 567.925C571.527 571.474 580.353 586.108 576.795 600.549C573.236 614.988 558.62 623.847 544.22 620.298ZM605.682 595.763C604.157 601.95 597.893 605.747 591.722 604.226L584.258 602.387C588.833 583.824 577.491 565.007 558.97 560.443C540.449 555.879 521.662 567.272 517.088 585.834L472.308 574.799C466.136 573.278 462.354 567.005 463.878 560.818L474.941 515.927L616.744 550.871L605.681 595.762L605.682 595.763ZM506.639 515.802L519.569 463.332C522.111 466.479 525.601 468.89 529.818 469.929C535.942 471.438 542.085 469.754 546.617 466.01C548.891 471.431 553.548 475.777 559.671 477.286C565.794 478.795 571.937 477.111 576.47 473.367C578.743 478.788 583.401 483.134 589.524 484.642C593.741 485.682 597.952 485.168 601.664 483.563L588.734 536.033L506.639 515.802ZM621.221 484.517C615.049 482.996 611.267 476.723 612.791 470.535L614.635 463.053L637.025 468.571L635.181 476.053C633.657 482.241 627.393 486.038 621.221 484.517Z" fill="#3F2D20"/>
<path d="M435.781 514.213L420.854 510.535C410.565 507.999 400.128 514.327 397.586 524.641C397.077 526.706 398.332 528.793 400.396 529.302L404.128 530.222L393.987 571.372L389.378 590.076L396.842 591.915L400.529 576.952L422.919 582.469L419.231 597.433L426.695 599.272L431.304 580.568L441.445 539.418L445.177 540.337C447.24 540.846 449.322 539.581 449.83 537.516C452.371 527.202 446.068 516.748 435.781 514.213ZM419.01 518.017L433.936 521.695C438.802 522.894 442.181 527.044 442.649 531.779L439.556 531.016L409.703 523.66L406.61 522.898C409.224 518.922 414.144 516.818 419.01 518.017ZM424.762 574.987L402.372 569.47L411.591 532.061L433.981 537.578L424.762 574.987V574.987Z" fill="#3F2D20"/>
</g>
<g clip-path="url(#clip2)">
<path d="M780.096 268.487C778.745 266.291 779.43 263.415 781.627 262.063L800.849 250.236C803.047 248.885 805.922 249.57 807.274 251.766C808.626 253.963 807.94 256.84 805.744 258.191L786.521 270.017C784.324 271.369 781.448 270.684 780.096 268.487Z" fill="#FDD44B"/>
<path d="M800.383 280.727C806.133 282.097 811.904 278.546 813.274 272.796C814.644 267.047 811.093 261.275 805.343 259.906C799.593 258.536 793.822 262.087 792.452 267.837C791.083 273.586 794.634 279.358 800.383 280.727Z" fill="#FF9330"/>
<path d="M821.739 278.29C822.195 279.032 822.369 279.948 822.151 280.863L817.023 302.391C816.704 303.73 815.61 304.746 814.25 304.963C812.89 305.181 811.533 304.559 810.811 303.386L794.412 276.73C793.69 275.557 793.746 274.064 794.553 272.949C795.361 271.834 796.76 271.314 798.1 271.634L819.628 276.762C820.542 276.98 821.282 277.548 821.739 278.29Z" fill="#84BD93"/>
<path d="M776.005 236.116C775.408 238.625 772.89 240.174 770.381 239.577L748.425 234.347C745.917 233.749 744.367 231.231 744.965 228.722C745.562 226.213 748.081 224.664 750.589 225.262L772.545 230.492C775.054 231.089 776.603 233.607 776.005 236.116Z" fill="#FDD44B"/>
<path d="M794.515 243.548C795.239 244.033 795.777 244.795 795.959 245.717L800.233 267.43C800.499 268.781 799.925 270.16 798.779 270.922C797.632 271.685 796.139 271.682 794.995 270.915L769.007 253.475C767.864 252.708 767.295 251.327 767.567 249.977C767.839 248.627 768.896 247.573 770.248 247.308L791.961 243.034C792.883 242.852 793.792 243.062 794.515 243.548Z" fill="#84BD93"/>
<path d="M760.485 240.82C759.887 243.329 757.369 244.878 754.86 244.28L732.905 239.05C730.396 238.453 728.847 235.934 729.444 233.426C730.042 230.917 732.56 229.368 735.069 229.965L757.024 235.195C759.533 235.793 761.082 238.311 760.485 240.82Z" fill="#FF9330"/>
<path d="M681.258 248.827C680.517 249.284 679.948 250.023 679.73 250.937L674.602 272.465C674.283 273.805 674.802 275.205 675.918 276.012C677.033 276.819 678.526 276.875 679.699 276.154L706.354 259.754C707.527 259.033 708.15 257.675 707.932 256.316C707.714 254.956 706.699 253.861 705.359 253.542L683.832 248.414C682.917 248.197 682.001 248.37 681.258 248.827Z" fill="#84BD93"/>
<path d="M722.406 258.75C720.21 260.101 717.334 259.416 715.982 257.22L704.155 237.997C702.804 235.8 703.489 232.924 705.685 231.572C707.882 230.221 710.759 230.906 712.11 233.102L723.937 252.325C725.287 254.522 724.602 257.398 722.406 258.75Z" fill="#FDD44B"/>
<path d="M679.11 281.241C682.455 282.038 685.813 279.972 686.609 276.627C687.406 273.282 685.34 269.924 681.995 269.127C678.65 268.331 675.293 270.396 674.496 273.741C673.699 277.086 675.765 280.444 679.11 281.241Z" fill="#84BD93"/>
<path d="M672.848 298.348C675.983 299.095 679.131 297.159 679.878 294.023C680.625 290.887 678.688 287.74 675.553 286.993C672.417 286.246 669.269 288.182 668.523 291.318C667.776 294.454 669.712 297.601 672.848 298.348Z" fill="#84BD93"/>
<path d="M808.989 330.778C812.124 331.525 815.272 329.588 816.019 326.453C816.766 323.317 814.829 320.169 811.693 319.423C808.558 318.676 805.41 320.612 804.663 323.748C803.917 326.883 805.853 330.031 808.989 330.778Z" fill="#84BD93"/>
<path d="M811.114 312.685C814.459 313.482 817.816 311.416 818.613 308.071C819.41 304.726 817.344 301.368 813.999 300.571C810.654 299.775 807.296 301.84 806.5 305.185C805.703 308.53 807.769 311.888 811.114 312.685Z" fill="#84BD93"/>
<path d="M782.639 246.897C782.041 249.406 779.523 250.955 777.014 250.357L755.058 245.127C752.55 244.53 751 242.011 751.598 239.503C752.195 236.994 754.714 235.445 757.222 236.042L779.178 241.272C781.687 241.87 783.236 244.388 782.639 246.897Z" fill="#FFBE60"/>
<path d="M699.222 260.631C704.972 262.001 710.743 258.45 712.113 252.7C713.482 246.951 709.932 241.179 704.182 239.81C698.432 238.44 692.661 241.991 691.291 247.741C689.922 253.49 693.472 259.262 699.222 260.631Z" fill="#FF9330"/>
<path d="M721.221 230.088C720.357 230.196 719.533 230.633 718.955 231.374L705.35 248.829C704.504 249.915 704.395 251.404 705.074 252.601C705.754 253.799 707.088 254.469 708.454 254.3L739.514 250.45C740.88 250.28 742.01 249.304 742.377 247.977C742.743 246.649 742.275 245.232 741.188 244.385L723.733 230.782C722.992 230.204 722.086 229.981 721.221 230.088Z" fill="#84BD93"/>
<path d="M812.947 323.722C816.606 324.593 820.278 322.334 821.15 318.675C822.021 315.016 819.762 311.344 816.103 310.472C812.444 309.601 808.772 311.86 807.9 315.519C807.029 319.178 809.288 322.85 812.947 323.722Z" fill="#FF9330"/>
<path d="M672.497 290.266C676.156 291.137 679.828 288.878 680.7 285.219C681.571 281.561 679.312 277.888 675.653 277.017C671.994 276.145 668.322 278.404 667.45 282.063C666.579 285.722 668.838 289.394 672.497 290.266Z" fill="#FF9330"/>
<path d="M676.565 303.235C673.296 302.456 671.271 299.163 672.049 295.895L674.408 285.993C682.124 253.602 714.753 233.527 747.144 241.243L768.417 246.31C800.808 254.026 820.883 286.655 813.167 319.046L810.808 328.949C810.03 332.217 806.737 334.242 803.469 333.464L676.565 303.235Z" fill="#FDD44B"/>
<path opacity="0.1" d="M686.229 299.273L688.588 289.37C696.304 256.979 728.933 236.904 761.324 244.62L747.144 241.242C714.752 233.526 682.123 253.602 674.408 285.992L672.049 295.895C671.27 299.163 673.296 302.456 676.565 303.234L690.745 306.612C687.477 305.834 685.451 302.541 686.229 299.273Z" fill="#3F2D20"/>
<path d="M704.706 293.618C703.304 293.284 702.439 291.877 702.773 290.476C702.961 289.684 702.47 288.885 701.677 288.696C700.885 288.507 700.086 288.999 699.897 289.791C699.563 291.192 698.157 292.058 696.755 291.724C695.354 291.39 694.489 289.983 694.823 288.582C695.678 284.992 699.295 282.766 702.886 283.622C706.477 284.477 708.702 288.094 707.847 291.685C707.513 293.086 706.107 293.952 704.706 293.618Z" fill="#E2C447"/>
<path d="M734.99 300.831C733.588 300.497 732.723 299.091 733.057 297.69C733.246 296.897 732.754 296.099 731.962 295.91C731.169 295.721 730.37 296.212 730.182 297.005C729.848 298.406 728.442 299.271 727.04 298.938C725.638 298.604 724.773 297.197 725.107 295.796C725.962 292.205 729.579 289.98 733.17 290.835C736.761 291.691 738.987 295.308 738.131 298.898C737.797 300.3 736.391 301.165 734.99 300.831Z" fill="#E2C447"/>
<path d="M724.374 279.902C722.972 279.568 722.107 278.162 722.441 276.761C722.63 275.968 722.139 275.169 721.346 274.981C720.554 274.792 719.755 275.283 719.566 276.076C719.232 277.477 717.826 278.342 716.424 278.009C715.023 277.675 714.158 276.268 714.492 274.867C715.347 271.276 718.964 269.051 722.555 269.906C726.145 270.761 728.371 274.378 727.515 277.969C727.182 279.37 725.775 280.236 724.374 279.902Z" fill="#E2C447"/>
<path d="M775.091 278.582C773.69 278.248 772.825 276.842 773.159 275.441C773.347 274.648 772.856 273.85 772.063 273.661C771.271 273.472 770.472 273.963 770.283 274.756C769.95 276.157 768.543 277.023 767.142 276.689C765.74 276.355 764.875 274.948 765.209 273.547C766.064 269.956 769.681 267.731 773.272 268.586C776.863 269.442 779.088 273.059 778.233 276.649C777.899 278.051 776.493 278.916 775.091 278.582Z" fill="#E2C447"/>
<path d="M790.898 299.549C789.497 299.215 788.632 297.808 788.965 296.407C789.154 295.615 788.663 294.816 787.87 294.627C787.078 294.438 786.279 294.929 786.09 295.722C785.757 297.124 784.35 297.989 782.949 297.655C781.547 297.321 780.682 295.915 781.016 294.513C781.871 290.923 785.488 288.697 789.079 289.553C792.67 290.408 794.895 294.025 794.04 297.616C793.706 299.017 792.3 299.883 790.898 299.549Z" fill="#E2C447"/>
</g>
<g clip-path="url(#clip3)">
<path d="M163.239 523.105C161.888 520.909 162.572 518.033 164.769 516.681L183.992 504.854C186.189 503.503 189.065 504.188 190.416 506.385C191.768 508.581 191.083 511.458 188.886 512.809L169.663 524.636C167.467 525.987 164.591 525.302 163.239 523.105Z" fill="#FDD44B"/>
<path d="M183.525 535.346C189.275 536.715 195.046 533.165 196.416 527.415C197.786 521.665 194.235 515.894 188.485 514.524C182.736 513.155 176.964 516.705 175.595 522.455C174.225 528.205 177.776 533.976 183.525 535.346Z" fill="#FF9330"/>
<path d="M204.881 532.908C205.337 533.651 205.511 534.567 205.293 535.481L200.165 557.009C199.846 558.349 198.752 559.365 197.392 559.582C196.032 559.8 194.675 559.177 193.953 558.004L177.554 531.348C176.832 530.175 176.888 528.683 177.696 527.568C178.503 526.452 179.902 525.933 181.242 526.252L202.77 531.38C203.684 531.598 204.425 532.166 204.881 532.908Z" fill="#84BD93"/>
<path d="M159.148 490.735C158.55 493.244 156.032 494.793 153.524 494.195L131.568 488.965C129.059 488.368 127.51 485.85 128.107 483.341C128.705 480.832 131.224 479.283 133.732 479.88L155.688 485.11C158.196 485.708 159.745 488.226 159.148 490.735Z" fill="#FDD44B"/>
<path d="M177.657 498.166C178.381 498.652 178.919 499.413 179.101 500.335L183.375 522.049C183.641 523.4 183.067 524.778 181.921 525.541C180.774 526.304 179.281 526.3 178.137 525.533L152.149 508.093C151.006 507.326 150.438 505.946 150.709 504.595C150.981 503.245 152.038 502.192 153.39 501.926L175.103 497.652C176.025 497.471 176.934 497.68 177.657 498.166Z" fill="#84BD93"/>
<path d="M143.627 495.438C143.029 497.947 140.511 499.496 138.002 498.898L116.047 493.668C113.538 493.071 111.989 490.553 112.586 488.044C113.184 485.535 115.702 483.986 118.211 484.584L140.166 489.814C142.675 490.411 144.224 492.929 143.627 495.438Z" fill="#FF9330"/>
<path d="M64.4002 503.445C63.6585 503.902 63.09 504.641 62.8722 505.556L57.7442 527.084C57.4251 528.423 57.944 529.823 59.0597 530.63C60.175 531.438 61.6676 531.493 62.8405 530.772L89.4958 514.372C90.6688 513.651 91.292 512.294 91.0737 510.934C90.856 509.574 89.8413 508.479 88.5011 508.16L66.9736 503.033C66.0588 502.815 65.1425 502.989 64.4002 503.445Z" fill="#84BD93"/>
<path d="M105.548 513.368C103.352 514.72 100.475 514.034 99.1239 511.838L87.2968 492.615C85.9456 490.418 86.6307 487.542 88.8271 486.191C91.0239 484.839 93.9004 485.524 95.2516 487.721L107.078 506.944C108.429 509.141 107.744 512.016 105.548 513.368Z" fill="#FDD44B"/>
<path d="M62.2518 535.859C65.5968 536.656 68.9545 534.59 69.7513 531.245C70.5481 527.9 68.4823 524.542 65.1373 523.746C61.7923 522.949 58.4346 525.015 57.6378 528.36C56.841 531.705 58.9068 535.062 62.2518 535.859Z" fill="#84BD93"/>
<path d="M55.9892 552.966C59.1248 553.713 62.2723 551.777 63.0192 548.641C63.7661 545.506 61.8297 542.358 58.6941 541.611C55.5584 540.864 52.411 542.801 51.6641 545.936C50.9171 549.072 52.8536 552.22 55.9892 552.966Z" fill="#84BD93"/>
<path d="M192.13 585.396C195.266 586.143 198.414 584.207 199.16 581.071C199.907 577.935 197.971 574.788 194.835 574.041C191.7 573.294 188.552 575.23 187.805 578.366C187.058 581.502 188.995 584.649 192.13 585.396Z" fill="#84BD93"/>
<path d="M194.256 567.303C197.601 568.1 200.959 566.034 201.755 562.689C202.552 559.344 200.486 555.987 197.141 555.19C193.796 554.393 190.439 556.459 189.642 559.804C188.845 563.149 190.911 566.506 194.256 567.303Z" fill="#84BD93"/>
<path d="M165.781 501.515C165.183 504.024 162.665 505.573 160.156 504.976L138.2 499.746C135.692 499.148 134.142 496.63 134.74 494.121C135.338 491.612 137.856 490.063 140.365 490.661L162.32 495.891C164.829 496.488 166.378 499.006 165.781 501.515Z" fill="#FFBE60"/>
<path d="M82.364 515.25C88.1137 516.619 93.8851 513.068 95.2547 507.319C96.6243 501.569 93.0735 495.798 87.3238 494.428C81.5741 493.058 75.8028 496.609 74.4332 502.359C73.0636 508.109 76.6143 513.88 82.364 515.25Z" fill="#FF9330"/>
<path d="M104.363 484.707C103.498 484.814 102.674 485.251 102.097 485.992L88.492 503.447C87.6459 504.533 87.5366 506.022 88.2161 507.22C88.8955 508.417 90.23 509.088 91.5962 508.919L122.656 505.068C124.022 504.899 125.152 503.923 125.519 502.595C125.885 501.268 125.417 499.85 124.329 499.004L106.875 485.4C106.133 484.822 105.228 484.6 104.363 484.707Z" fill="#84BD93"/>
<path d="M196.089 578.34C199.748 579.212 203.42 576.952 204.292 573.293C205.163 569.635 202.904 565.962 199.245 565.091C195.586 564.219 191.914 566.479 191.042 570.137C190.171 573.796 192.43 577.469 196.089 578.34Z" fill="#FF9330"/>
<path d="M55.6389 544.884C59.2976 545.756 62.9701 543.496 63.8416 539.838C64.7132 536.179 62.4537 532.506 58.795 531.635C55.1363 530.763 51.4638 533.023 50.5923 536.682C49.7207 540.34 51.9802 544.013 55.6389 544.884Z" fill="#FF9330"/>
<path d="M59.7069 557.853C56.4384 557.075 54.4128 553.782 55.1912 550.514L57.5501 540.611C65.2657 508.22 97.8949 488.145 130.286 495.861L151.559 500.928C183.95 508.644 204.025 541.273 196.309 573.664L193.95 583.567C193.172 586.835 189.879 588.861 186.611 588.082L59.7069 557.853Z" fill="#FDD44B"/>
<path opacity="0.1" d="M69.3715 553.891L71.7304 543.988C79.446 511.598 112.075 491.523 144.466 499.238L130.286 495.861C97.8946 488.145 65.2657 508.22 57.5501 540.611L55.1912 550.513C54.4127 553.782 56.4387 557.074 59.7069 557.853L73.8875 561.231C70.6195 560.453 68.5929 557.16 69.3715 553.891Z" fill="#3F2D20"/>
<path d="M87.8479 548.236C86.4463 547.902 85.5813 546.495 85.915 545.094C86.1037 544.302 85.6123 543.503 84.8198 543.315C84.0273 543.126 83.2282 543.617 83.0395 544.409C82.7057 545.811 81.2991 546.676 79.8978 546.342C78.4962 546.008 77.6312 544.602 77.965 543.201C78.8203 539.61 82.4376 537.385 86.0285 538.24C89.6192 539.095 91.8448 542.713 90.9895 546.303C90.6556 547.705 89.2495 548.57 87.8479 548.236Z" fill="#E2C447"/>
<path d="M118.131 555.45C116.73 555.116 115.865 553.709 116.198 552.308C116.387 551.516 115.896 550.717 115.103 550.528C114.311 550.34 113.512 550.831 113.323 551.623C112.989 553.024 111.583 553.89 110.182 553.556C108.78 553.222 107.915 551.815 108.249 550.414C109.104 546.824 112.721 544.598 116.312 545.454C119.903 546.309 122.128 549.926 121.273 553.517C120.939 554.918 119.533 555.783 118.131 555.45Z" fill="#E2C447"/>
<path d="M107.516 534.521C106.114 534.187 105.249 532.78 105.583 531.379C105.772 530.586 105.281 529.788 104.488 529.599C103.696 529.41 102.897 529.901 102.708 530.694C102.374 532.095 100.968 532.961 99.5665 532.627C98.1652 532.293 97.2999 530.886 97.6336 529.485C98.4889 525.895 102.106 523.669 105.697 524.524C109.288 525.38 111.513 528.997 110.658 532.588C110.324 533.989 108.917 534.854 107.516 534.521Z" fill="#E2C447"/>
<path d="M158.233 533.201C156.832 532.867 155.967 531.46 156.3 530.059C156.489 529.267 155.998 528.468 155.205 528.279C154.413 528.091 153.614 528.582 153.425 529.374C153.091 530.775 151.685 531.641 150.284 531.307C148.882 530.973 148.017 529.566 148.351 528.165C149.206 524.575 152.823 522.349 156.414 523.205C160.005 524.06 162.23 527.677 161.375 531.268C161.041 532.669 159.635 533.535 158.233 533.201Z" fill="#E2C447"/>
<path d="M174.04 554.167C172.639 553.833 171.774 552.427 172.108 551.025C172.296 550.233 171.805 549.434 171.012 549.245C170.22 549.057 169.421 549.548 169.233 550.341C168.899 551.742 167.492 552.607 166.091 552.273C164.689 551.939 163.824 550.533 164.158 549.132C165.013 545.541 168.63 543.316 172.221 544.171C175.812 545.027 178.037 548.644 177.182 552.234C176.848 553.635 175.442 554.501 174.04 554.167Z" fill="#E2C447"/>
</g>
<g clip-path="url(#clip4)">
<path d="M743.259 510.041C727.728 503.392 709.748 510.593 703.1 526.124C696.451 541.654 703.302 578.619 712.259 582.454C721.216 586.288 752.692 565.731 759.341 550.201C765.99 534.67 758.79 516.69 743.259 510.041ZM725.703 551.051C717.527 547.551 713.737 538.086 717.237 529.911C720.737 521.735 730.201 517.945 738.377 521.445C746.552 524.945 750.343 534.41 746.843 542.585C743.343 550.761 733.878 554.551 725.703 551.051Z" fill="#3F2D20"/>
</g>
<g clip-path="url(#clip5)">
<path d="M458.854 180.807C442.249 183.915 431.307 199.897 434.416 216.502C437.524 233.108 463.771 260.024 473.348 258.231C482.924 256.439 497.658 221.851 494.55 205.246C491.441 188.64 475.46 177.699 458.854 180.807ZM467.062 224.655C458.321 226.291 449.908 220.532 448.272 211.79C446.636 203.049 452.395 194.636 461.137 193C469.878 191.364 478.291 197.124 479.927 205.865C481.563 214.606 475.804 223.019 467.062 224.655Z" fill="#84BD93"/>
</g>
<g clip-path="url(#clip6)">
<path d="M632.962 910.702L624.452 888.41L564.606 911.259L573.117 933.55L632.962 910.702Z" fill="#FDD44B"/>
<path d="M540.193 907.124C536.495 915.389 540.198 925.087 548.463 928.784C556.728 932.482 566.426 928.78 570.124 920.515C573.821 912.249 570.119 902.552 561.854 898.854C553.589 895.156 543.891 898.859 540.193 907.124Z" fill="#FDD44B"/>
<path d="M549.401 931.243C545.703 939.508 549.406 949.206 557.671 952.904C565.936 956.601 575.634 952.899 579.332 944.634C583.03 936.369 579.327 926.671 571.062 922.973C562.797 919.275 553.099 922.978 549.401 931.243Z" fill="#FDD44B"/>
<path d="M650.963 927.051C648.006 926.02 625.265 918.272 612.11 918.582L603.653 896.431C613.666 887.898 625.455 866.97 626.977 864.226C632.33 855.123 640.827 847.99 650.907 844.142C674.565 835.109 700.806 846.085 709.405 868.607L709.497 868.848C713.652 879.731 713.118 891.664 707.994 902.451C702.842 913.298 693.679 921.689 682.188 926.075C672.109 929.923 661.021 930.271 650.963 927.051Z" fill="#FF9330"/>
<path d="M676.364 878.576C674.853 881.952 676.366 885.914 679.742 887.425C683.119 888.935 687.081 887.423 688.591 884.046C690.102 880.67 688.589 876.708 685.213 875.198C681.836 873.687 677.875 875.2 676.364 878.576Z" fill="#FDD44B"/>
<path d="M688.19 895.035C686.679 898.411 688.192 902.373 691.568 903.884C694.945 905.394 698.906 903.882 700.417 900.505C701.928 897.129 700.415 893.167 697.038 891.657C693.662 890.146 689.7 891.659 688.19 895.035Z" fill="#FDD44B"/>
<path d="M667.992 897.287C666.482 900.663 667.994 904.625 671.371 906.136C674.747 907.646 678.709 906.134 680.22 902.757C681.73 899.381 680.218 895.419 676.841 893.908C673.465 892.398 669.503 893.91 667.992 897.287Z" fill="#FDD44B"/>
</g>
<g clip-path="url(#clip7)">
<path d="M920.801 678.337L807.569 704.724L812.11 724.211L925.342 697.823L920.801 678.337Z" fill="#84BD93"/>
<path d="M912.627 643.262L799.395 669.649L803.936 689.136L917.168 662.748L912.627 643.262Z" fill="#84BD93"/>
<path d="M916.26 658.851L904.745 661.534L910.194 684.917L921.709 682.234C928.042 680.758 931.998 674.289 930.499 667.859C929.001 661.428 922.593 657.375 916.26 658.851Z" fill="#3F2D20"/>
<path d="M904.745 661.534C911.078 660.058 917.486 664.112 918.984 670.542C920.483 676.973 916.527 683.441 910.194 684.917L808.477 708.621C802.143 710.097 795.736 706.044 794.237 699.613C792.739 693.183 796.694 686.714 803.028 685.238L904.745 661.534Z" fill="#B1786B"/>
<path d="M920.595 694.82L903.014 723.57L914.529 720.887C927.25 717.923 935.12 705.052 932.11 692.137L920.595 694.82Z" fill="#FF9330"/>
<path d="M918.486 633.678L921.211 645.37L905.857 648.948L862.367 683.736L851.469 636.969L918.486 633.678Z" fill="#FDD44B"/>
<path d="M904.177 637.013L862.368 683.736L807.979 671.758L792.625 675.336L789.901 663.644L851.469 636.969L904.177 637.013Z" fill="#FEFDCA"/>
<path d="M872.135 591.065L860.62 593.749L906.972 636.362L918.487 633.679L914.4 616.141C910.154 597.921 891.135 586.637 872.135 591.065Z" fill="#FF9330"/>
<path d="M803.524 722.102L920.595 694.82C923.605 707.736 915.734 720.606 903.014 723.57L832.004 740.119C819.283 743.083 806.534 735.018 803.524 722.102Z" fill="#FF9330"/>
<path d="M902.885 618.824L906.972 636.362L789.901 663.644L785.814 646.107C781.568 627.887 793.64 609.358 812.64 604.93L860.62 593.749C879.62 589.321 898.639 600.605 902.885 618.824Z" fill="#FF9330"/>
<path d="M820.741 626.668C822.331 626.297 823.315 624.688 822.939 623.074C822.563 621.459 820.969 620.451 819.379 620.822C817.789 621.192 816.805 622.801 817.181 624.416C817.557 626.03 819.151 627.038 820.741 626.668Z" fill="#FEFDCA"/>
<path d="M836.9 635.229C838.49 634.858 839.474 633.249 839.098 631.635C838.722 630.021 837.128 629.012 835.538 629.383C833.948 629.753 832.964 631.362 833.34 632.977C833.716 634.591 835.31 635.6 836.9 635.229Z" fill="#FEFDCA"/>
<path d="M863.769 628.967C865.359 628.597 866.343 626.988 865.967 625.373C865.591 623.759 863.997 622.751 862.407 623.121C860.817 623.492 859.833 625.101 860.209 626.715C860.585 628.33 862.179 629.338 863.769 628.967Z" fill="#FEFDCA"/>
<path d="M847.61 620.406C849.2 620.036 850.184 618.427 849.807 616.812C849.431 615.198 847.837 614.19 846.247 614.56C844.657 614.931 843.673 616.54 844.05 618.154C844.426 619.769 846.02 620.777 847.61 620.406Z" fill="#FEFDCA"/>
<path d="M874.478 614.145C876.068 613.774 877.052 612.165 876.676 610.551C876.3 608.936 874.706 607.928 873.116 608.299C871.526 608.669 870.542 610.278 870.918 611.893C871.294 613.507 872.888 614.515 874.478 614.145Z" fill="#FEFDCA"/>
</g>
<g clip-path="url(#clip8)">
<path d="M403.813 874.349L293.395 837.938L287.129 856.94L397.547 893.351L403.813 874.349Z" fill="#84BD93"/>
<path d="M415.091 840.146L304.673 803.735L298.407 822.737L408.825 859.147L415.091 840.146Z" fill="#84BD93"/>
<path d="M410.078 855.347L398.849 851.644L391.33 874.446L402.559 878.149C408.735 880.185 415.479 876.721 417.547 870.451C419.615 864.18 416.254 857.384 410.078 855.347Z" fill="#3F2D20"/>
<path d="M398.849 851.644C405.025 853.681 408.386 860.477 406.319 866.748C404.251 873.019 397.506 876.483 391.33 874.446L292.141 841.738C285.966 839.702 282.604 832.905 284.672 826.634C286.74 820.364 293.485 816.9 299.66 818.936L398.849 851.644Z" fill="#B1786B"/>
<path d="M395.057 888.316L365.08 903.712L376.309 907.415C388.713 911.506 402.132 904.613 406.285 892.019L395.057 888.316Z" fill="#FF9330"/>
<path d="M425.083 835.013L421.324 846.414L406.352 841.477L351.11 848.543L366.148 802.938L425.083 835.013Z" fill="#FDD44B"/>
<path d="M411.13 830.412L351.11 848.543L310.906 810.004L295.934 805.067L299.694 793.665L366.148 802.938L411.13 830.412Z" fill="#FEFDCA"/>
<path d="M407.688 774.5L396.459 770.798L413.855 831.311L425.083 835.014L430.723 817.912C436.581 800.145 426.216 780.61 407.688 774.5Z" fill="#FF9330"/>
<path d="M280.896 850.671L395.057 888.316C390.903 900.911 377.484 907.803 365.08 903.712L295.835 880.878C283.43 876.788 276.743 863.265 280.896 850.671Z" fill="#FF9330"/>
<path d="M419.494 814.209L413.854 831.31L299.694 793.665L305.333 776.564C311.192 758.797 331.144 749.26 349.672 755.369L396.459 770.798C414.986 776.907 425.352 796.442 419.494 814.209Z" fill="#FF9330"/>
<path d="M345.273 778.147C346.824 778.658 348.501 777.797 349.021 776.222C349.54 774.648 348.704 772.958 347.153 772.446C345.603 771.935 343.925 772.797 343.406 774.371C342.887 775.945 343.723 777.636 345.273 778.147Z" fill="#FEFDCA"/>
<path d="M354.614 793.868C356.164 794.38 357.842 793.518 358.361 791.944C358.88 790.369 358.044 788.679 356.493 788.168C354.943 787.656 353.265 788.518 352.746 790.092C352.227 791.666 353.063 793.357 354.614 793.868Z" fill="#FEFDCA"/>
<path d="M380.815 802.508C382.365 803.02 384.043 802.158 384.562 800.584C385.081 799.009 384.245 797.319 382.695 796.807C381.144 796.296 379.467 797.158 378.948 798.732C378.428 800.306 379.264 801.997 380.815 802.508Z" fill="#FEFDCA"/>
<path d="M371.474 786.787C373.024 787.298 374.702 786.437 375.221 784.862C375.74 783.288 374.904 781.597 373.354 781.086C371.803 780.575 370.125 781.437 369.606 783.011C369.087 784.585 369.923 786.276 371.474 786.787Z" fill="#FEFDCA"/>
<path d="M397.675 795.427C399.225 795.938 400.903 795.076 401.422 793.502C401.941 791.928 401.105 790.237 399.555 789.726C398.004 789.215 396.326 790.076 395.807 791.651C395.288 793.225 396.124 794.916 397.675 795.427Z" fill="#FEFDCA"/>
</g>
<defs>
<clipPath id="clip0">
<rect width="205.485" height="205.485" fill="white" transform="translate(181.512 138.655) rotate(-10.0654)"/>
</clipPath>
<clipPath id="clip1">
<rect width="291.104" height="246.582" fill="white" transform="translate(415.174 342.475) rotate(13.8436)"/>
</clipPath>
<clipPath id="clip2">
<rect width="158" height="158" fill="white" transform="translate(697.884 154.298) rotate(13.3985)"/>
</clipPath>
<clipPath id="clip3">
<rect width="158" height="158" fill="white" transform="translate(81.0264 408.916) rotate(13.3985)"/>
</clipPath>
<clipPath id="clip4">
<rect width="78.7692" height="78.7692" fill="white" transform="translate(707.053 494.541) rotate(23.1758)"/>
</clipPath>
<clipPath id="clip5">
<rect width="78.7692" height="78.7692" fill="white" transform="translate(420.142 188.054) rotate(-10.6026)"/>
</clipPath>
<clipPath id="clip6">
<rect width="151.274" height="151.274" fill="white" transform="translate(725.901 862.456) rotate(114.104)"/>
</clipPath>
<clipPath id="clip7">
<rect width="140" height="135.758" fill="white" transform="translate(773.89 614.266) rotate(-13.1181)"/>
</clipPath>
<clipPath id="clip8">
<rect width="140" height="135.758" fill="white" transform="translate(311.726 743.171) rotate(18.2502)"/>
</clipPath>
</defs>
</svg>
