<svg width="24" height="24" viewBox="0 0 24 24" fill="none" xmlns="http://www.w3.org/2000/svg">
<path d="M5.19984 4.20984C4.5373 4.20984 4 4.74711 4 5.40964C4 6.07217 4.5373 6.60947 5.19984 6.60947C5.86237 6.60947 6.39967 6.07213 6.39967 5.40964C6.39967 4.74711 5.86237 4.20984 5.19984 4.20984Z" fill="#22A45D"/>
<path d="M9.12621 6.81883H18.5906C19.369 6.81883 20 6.18783 20 5.40941C20 4.631 19.369 4 18.5906 4H9.12621C8.34779 4 7.7168 4.631 7.7168 5.40941C7.7168 6.18783 8.34779 6.81883 9.12621 6.81883Z" fill="#22A45D"/>
<path d="M5.19984 8.65088C4.5373 8.65088 4 9.18815 4 9.85068C4 10.5132 4.5373 11.0505 5.19984 11.0505C5.86237 11.0505 6.39967 10.5132 6.39967 9.85068C6.39967 9.18815 5.86237 8.65088 5.19984 8.65088Z" fill="#22A45D"/>
<path d="M18.5906 8.44104H9.12621C8.34779 8.44104 7.7168 9.07204 7.7168 9.85045C7.7168 10.6289 8.34779 11.2599 9.12621 11.2599H18.5906C19.369 11.2599 20 10.6289 20 9.85045C20 9.07204 19.369 8.44104 18.5906 8.44104Z" fill="#22A45D"/>
<path d="M5.19984 13.0929C4.5373 13.0929 4 13.6302 4 14.2927C4 14.9552 4.5373 15.4925 5.19984 15.4925C5.86237 15.4925 6.39967 14.9552 6.39967 14.2927C6.39967 13.6302 5.86237 13.0929 5.19984 13.0929Z" fill="#22A45D"/>
<path d="M18.5906 12.8831H9.12621C8.34779 12.8831 7.7168 13.5141 7.7168 14.2925C7.7168 15.0709 8.34779 15.7019 9.12621 15.7019H18.5906C19.369 15.7019 20 15.0709 20 14.2925C20 13.5141 19.369 12.8831 18.5906 12.8831Z" fill="#22A45D"/>
<path d="M5.19984 17.5349C4.5373 17.5349 4 18.0722 4 18.7347C4 19.3972 4.5373 19.9346 5.19984 19.9346C5.86237 19.9346 6.39967 19.3972 6.39967 18.7347C6.39967 18.0722 5.86237 17.5349 5.19984 17.5349Z" fill="#22A45D"/>
<path d="M18.5906 17.326H9.12621C8.34779 17.326 7.7168 17.957 7.7168 18.7355C7.7168 19.5139 8.34779 20.1449 9.12621 20.1449H18.5906C19.369 20.1449 20 19.5139 20 18.7355C20 17.957 19.369 17.326 18.5906 17.326Z" fill="#22A45D"/>
</svg>
