<svg width="24" height="24" viewBox="0 0 24 24" fill="none" xmlns="http://www.w3.org/2000/svg">
<g clip-path="url(#clip0)">
<path d="M11.468 15.0144C11.6201 15.1482 11.8101 15.2153 12.0003 15.2153C12.1904 15.2153 12.3805 15.1482 12.5326 15.0144C12.7253 14.8446 17.251 10.8106 17.251 6.62703C17.251 3.7307 14.8956 1.37433 12.0004 1.37433C9.10499 1.37433 6.74951 3.7307 6.74951 6.62703C6.74935 10.8106 11.2753 14.8446 11.468 15.0144ZM12.0003 5.25458C12.7519 5.25458 13.3615 5.86889 13.3615 6.62703C13.3615 7.3851 12.7519 7.99948 12.0003 7.99948C11.2483 7.99948 10.6389 7.38502 10.6389 6.62703C10.6389 5.86889 11.2483 5.25458 12.0003 5.25458Z" fill="#010F07"/>
<path d="M22.0896 15.012L21.4814 12.8805C21.3826 12.5346 21.0666 12.2961 20.707 12.2961H16.366C16.2091 12.5294 16.0435 12.7636 15.8684 12.9991C14.6517 14.6338 13.4148 15.7396 13.2776 15.8605C12.9245 16.1715 12.4709 16.3427 12.0002 16.3427C11.5298 16.3427 11.0762 16.1716 10.7226 15.8604C10.5857 15.7396 9.34856 14.6337 8.13191 12.9991C7.9568 12.7636 7.79122 12.5294 7.63429 12.2961H3.29326C2.93367 12.2961 2.61762 12.5346 2.51888 12.8805L1.79395 15.4208L17.9984 18.3889L22.0896 15.012Z" fill="#010F07"/>
<path d="M23.9692 21.5993L22.4153 16.1531L14.7052 22.6257H23.1949C23.4476 22.6257 23.6856 22.5072 23.8377 22.3055C23.9899 22.1037 24.0385 21.8422 23.9692 21.5993Z" fill="#010F07"/>
<path d="M3.94295 16.9607L1.48315 16.5101L0.0310205 21.5993C-0.0382322 21.8422 0.0103336 22.1037 0.162577 22.3054C0.314739 22.5071 0.552719 22.6256 0.805407 22.6256H3.94295V16.9607Z" fill="#010F07"/>
<path d="M5.07043 17.1674V22.6257H12.9514L16.8774 19.33L5.07043 17.1674Z" fill="#010F07"/>
</g>
<defs>
<clipPath id="clip0">
<rect width="24" height="24" fill="white"/>
</clipPath>
</defs>
</svg>
