<svg width="26" height="24" viewBox="0 0 26 24" fill="none" xmlns="http://www.w3.org/2000/svg">
<g clip-path="url(#clip0)">
<path d="M2.85083 9.04622L9.379 13.3987C9.379 13.3987 8.57333 9.93887 6.51761 6.2937C6.51811 6.2937 3.33449 7.70692 2.85083 9.04622Z" fill="#22A45D" />
<path d="M3.13288 18.3828L9.37939 23.8514V13.9937L2.85079 9.38086C2.2872 12.1337 3.13288 18.3828 3.13288 18.3828Z" fill="#22A45D" />
<path d="M17.8416 4.52672V0.788417C17.8416 0.29536 17.4122 -0.054182 16.8818 0.00693647L7.73955 1.06756C7.20885 1.12868 6.77991 1.57878 6.77991 2.07197V5.97745C6.77991 5.97745 9.56058 10.7762 10.2256 15.0168C10.8901 19.2575 9.62069 24 9.62069 24L21.7102 20.7079C21.7102 20.7079 24.5513 16.9136 22.7379 11.7803C20.9249 6.64704 17.8416 4.52672 17.8416 4.52672ZM14.6779 3.73012L10.85 4.36265C10.7886 4.37293 10.7275 4.37737 10.6676 4.37737C10.1796 4.37737 9.746 4.05507 9.65753 3.59569C9.55721 3.08043 9.92927 2.58724 10.4877 2.49516L14.3158 1.86303C14.8739 1.77102 15.4082 2.11393 15.5083 2.62933C15.6088 3.14526 15.2368 3.63792 14.6779 3.73012Z" fill="#22A45D" />
</g>
<defs>
<clipPath id="clip0">
<rect width="26" height="24" fill="white"/>
</clipPath>
</defs>
</svg>
