<svg width="18" height="12" viewBox="0 0 18 12" fill="none" xmlns="http://www.w3.org/2000/svg">
<path fill-rule="evenodd" clip-rule="evenodd" d="M0.666626 1.83342C0.666626 0.912942 1.41282 0.166748 2.33329 0.166748H15.6666C16.5871 0.166748 17.3333 0.91294 17.3333 1.83341V2.66675H0.666626V1.83342ZM0.666626 5.16675H17.3333V10.1667C17.3333 11.0872 16.5871 11.8334 15.6666 11.8334H2.33329C1.41282 11.8334 0.666626 11.0872 0.666626 10.1667V5.16675ZM13.1666 7.66675C12.7064 7.66675 12.3333 8.03984 12.3333 8.50008C12.3333 8.96032 12.7064 9.33342 13.1666 9.33342H14.8333C15.2935 9.33342 15.6666 8.96032 15.6666 8.50008C15.6666 8.03984 15.2935 7.66675 14.8333 7.66675H13.1666Z" fill="#010F07"/>
</svg>
