<svg width="15" height="20" viewBox="0 0 15 20" fill="none" xmlns="http://www.w3.org/2000/svg">
<path d="M7.337 4.81467C8.66434 4.81467 9.74408 3.73473 9.74408 2.40749C9.74418 1.07994 8.66434 0 7.337 0C6.00965 0 4.92981 1.07994 4.92981 2.40739C4.92981 3.73473 6.00975 4.81467 7.337 4.81467ZM7.337 1.5055C7.83411 1.5055 8.23859 1.91007 8.23859 2.40739C8.23859 2.9046 7.83411 3.30908 7.337 3.30908C6.83978 3.30908 6.4353 2.9046 6.4353 2.40739C6.4353 1.91007 6.83978 1.5055 7.337 1.5055Z" fill="#010F07"/>
<path d="M9.68385 15.3027V12.9457C10.2189 12.5029 10.537 11.8427 10.537 11.1332V7.79802C10.537 6.49978 9.4809 5.44373 8.18287 5.44373H6.50444C5.2063 5.44373 4.15035 6.49978 4.15035 7.79802V11.1332C4.15035 11.8427 4.46831 12.5028 5.00316 12.9457L5.00346 15.303C2.87218 15.4951 0 16.0428 0 17.6C0 19.8842 6.11984 19.9999 7.34652 19.9999C8.57229 19.9999 14.6872 19.8842 14.6872 17.6C14.6873 16.0418 11.8152 15.4944 9.68385 15.3027ZM7.34661 18.4945C4.23727 18.4945 2.27721 17.9695 1.65454 17.6021C2.07477 17.3586 3.14889 16.9978 5.00376 16.8155L5.00386 17.5998C5.00396 18.0156 5.34099 18.3525 5.75671 18.3524C6.17253 18.3523 6.50946 18.0153 6.50936 17.5996L6.50856 12.5484C6.50856 12.2702 6.3552 12.0149 6.1098 11.8841C5.82978 11.735 5.65584 11.4471 5.65584 11.1332V7.79802C5.65584 7.33001 6.03653 6.94922 6.50444 6.94922H8.18287C8.65077 6.94922 9.03146 7.33001 9.03146 7.79802V11.1332C9.03146 11.447 8.85743 11.7348 8.57711 11.8841C8.33171 12.015 8.17835 12.2704 8.17835 12.5485V17.5997C8.17835 18.0155 8.51528 18.3524 8.9311 18.3524C9.34692 18.3524 9.68385 18.0155 9.68385 17.5997V16.8152C11.5401 16.9972 12.6143 17.3585 13.0337 17.6021C12.4128 17.9693 10.4546 18.4945 7.34661 18.4945Z" fill="#010F07"/>
</svg>
