<svg width="24" height="24" viewBox="0 0 24 24" fill="#010F07" xmlns="http://www.w3.org/2000/svg">
<path d="M7.36909 19.59C7.05564 20.1247 7.07272 20.7844 7.6098 21.1811C8.06938 21.5198 8.88747 21.4758 9.2016 20.9408C9.85102 19.8331 11.0287 18.999 11.0287 18.999C11.0287 18.999 10.595 18.0436 10.3898 16.2534C10.3895 16.2538 8.10796 18.3291 7.36909 19.59Z" />
<path d="M16.6327 9.95534C15.3 8.76917 13.8704 7.7049 12.3059 6.8489C12.1376 6.72155 11.945 6.62185 11.7419 6.55527C11.606 6.50029 11.4725 6.47366 11.3441 6.4699C11.1293 6.44532 10.9142 6.45625 10.7172 6.50917C10.1972 6.64848 9.8462 6.9667 9.64646 7.37165C8.68257 8.49738 7.87745 9.72077 7.15496 11.0135C6.43759 12.2959 8.40361 13.4435 9.1203 12.1621C9.34428 11.7609 9.57509 11.3655 9.81615 10.9776C10.0241 12.3789 10.2317 13.7802 10.4389 15.1811C10.4809 15.4652 10.6161 15.7096 10.805 15.9084C11.1068 17.9031 11.661 19.8708 12.5347 21.6811C13.1722 23.0025 15.1344 21.8474 14.5 20.5322C13.8472 19.1797 13.4108 17.6825 13.1421 16.1723C13.7328 15.7609 13.9469 15.0199 13.8363 14.2708C13.6307 12.8873 13.4262 11.5031 13.2207 10.1192C13.8428 10.5682 14.443 11.0497 15.0218 11.5649C16.1168 12.5363 17.7321 10.9325 16.6327 9.95534Z" />
<path d="M11.173 5.96618C12.2683 5.96618 13.1561 5.07832 13.1561 3.98309C13.1561 2.88786 12.2683 2 11.173 2C10.0778 2 9.18994 2.88786 9.18994 3.98309C9.18994 5.07832 10.0778 5.96618 11.173 5.96618Z" />
</svg>
