<svg width="16" height="20" viewBox="0 0 16 20" fill="#010F07" xmlns="http://www.w3.org/2000/svg">
<path d="M13.8751 12C15.0138 12 15.9438 12.8955 15.9975 14.0214L16 14.1243V14.5C16 16.3778 15.0292 17.7834 13.5399 18.6901C12.0754 19.5816 10.1069 20 8 20C5.89305 20 3.92455 19.5816 2.4601 18.6901C1.01596 17.8109 0.0593144 16.4625 0.00266171 14.6694L0 14.5V14.1245C0 12.9852 0.896475 12.0561 2.02202 12.0024L2.12495 12H13.8751ZM8 0C10.7614 0 13 2.23857 13 5C13 7.7614 10.7614 10 8 10C5.2386 10 3 7.7614 3 5C3 2.23857 5.2386 0 8 0Z" />
</svg>
