<svg width="24" height="24" viewBox="0 0 24 24" fill="#22A45D" xmlns="http://www.w3.org/2000/svg">
<g>
<path d="M17.8751 14C19.0138 14 19.9438 14.8955 19.9975 16.0214L20 16.1243V16.5C20 18.3778 19.0292 19.7834 17.5399 20.6901C16.0754 21.5816 14.1069 22 12 22C9.89305 22 7.92455 21.5816 6.4601 20.6901C5.01596 19.8109 4.05931 18.4625 4.00266 16.6694L4 16.5V16.1245C4 14.9852 4.89647 14.0561 6.02202 14.0024L6.12495 14H17.8751ZM12 2C14.7614 2 17 4.23857 17 7C17 9.7614 14.7614 12 12 12C9.2386 12 7 9.7614 7 7C7 4.23857 9.2386 2 12 2Z" />
</g>
</svg>
