<svg width="14" height="17" viewBox="0 0 14 17" fill="none" xmlns="http://www.w3.org/2000/svg">
<path d="M12.6099 10.7607L12.3195 8.89691C12.1797 8.14374 12.0933 7.08023 11.7998 5.33885C11.1234 4.88655 10.309 5.75019 10.1032 6.49387L9.35037 2.02686C9.19855 1.12615 7.39929 1.30971 7.58629 2.41929L8.15704 5.92845L7.46526 1.70124C7.30182 0.731505 5.51402 0.635959 5.8067 2.37238C5.66079 1.50666 3.86924 1.5192 4.08887 2.82226L4.30067 4.17615L4.3284 4.37766L4.26796 3.95442C4.13651 3.17456 2.60765 3.36181 2.77714 4.36754L3.07261 5.97062" fill="#EF8829"/>
<path d="M12.6099 10.7607L12.3195 8.89691C12.1797 8.14374 12.0933 7.08023 11.7998 5.33885C11.1234 4.88655 10.309 5.75019 10.1032 6.49387L9.35037 2.02686C9.19855 1.12615 7.39929 1.30971 7.58629 2.41929L8.15704 5.92845L7.46526 1.70124C7.30182 0.731505 5.51402 0.635959 5.8067 2.37238C5.66079 1.50666 3.86924 1.5192 4.08887 2.82226L4.30067 4.17615L4.3284 4.37766L4.26796 3.95442C4.13651 3.17456 2.60765 3.36181 2.77714 4.36754L3.07261 5.97062" stroke="#EF8829" stroke-width="0.666667" stroke-miterlimit="10" stroke-linecap="round" stroke-linejoin="round"/>
<path d="M3.41891 6.58694C2.5458 5.7912 3.88065 4.67043 4.58938 5.31636L9.05003 9.38177L8.10439 8.51991C7.78679 7.80765 7.88315 6.66945 8.72412 6.66945C10.0944 7.9183 11.0416 8.89626 11.6447 9.4294C13.3476 10.9815 13.3476 13.4979 11.6447 15.05C9.94169 16.6021 7.21749 16.6099 5.51451 15.0579L0.799636 10.7608C0.00824901 10.0395 1.12213 9.06185 1.73579 9.62114L4.43239 12.1246L2.0873 9.94746L0.854365 8.80286C-0.170979 7.86837 1.26886 6.88998 1.95008 7.51084C0.583732 6.26556 2.09085 5.37656 2.85393 6.072L6.51642 9.40996" fill="#EF8829"/>
<path d="M3.41879 6.58682C2.54568 5.79108 3.88052 4.67031 4.58926 5.31624L9.04991 9.38164L8.10426 8.51979C7.78667 7.80753 7.88303 6.66933 8.724 6.66933C10.0943 7.91818 11.0414 8.89614 11.6445 9.42928C13.3475 10.9814 13.3475 13.4978 11.6445 15.0499C9.94156 16.602 7.21737 16.6098 5.51439 15.0577L0.799514 10.7606C0.00812696 10.0394 1.122 9.06173 1.73567 9.62102L4.43227 12.1244L2.08718 9.94734L0.854243 8.80274C-0.171101 7.86825 1.26874 6.88986 1.94996 7.51072C0.583609 6.26544 2.09073 5.37644 2.85381 6.07188L6.51629 9.40984" stroke="#3F2D20" stroke-width="0.666667" stroke-miterlimit="10" stroke-linecap="round" stroke-linejoin="round"/>
<path d="M2.7655 4.36536L2.84236 4.82142" stroke="#3F2D20" stroke-width="0.666667" stroke-miterlimit="10" stroke-linecap="round" stroke-linejoin="round"/>
<path d="M5.37954 10.6972L1.80151 7.37549" stroke="#3F2D20" stroke-width="0.666667" stroke-miterlimit="10" stroke-linecap="round" stroke-linejoin="round"/>
<path d="M6.51612 9.40986L2.85364 6.0719" stroke="#3F2D20" stroke-width="0.666667" stroke-miterlimit="10" stroke-linecap="round" stroke-linejoin="round"/>
<path d="M0.79947 10.7607C0.00808252 10.0394 1.12196 9.06175 1.73562 9.62104L4.43222 12.1245" stroke="#3F2D20" stroke-width="0.666667" stroke-miterlimit="10" stroke-linecap="round" stroke-linejoin="round"/>
<path d="M0.854243 8.80275C-0.171101 7.86826 1.26874 6.88987 1.94996 7.51073" stroke="#3F2D20" stroke-width="0.666667" stroke-miterlimit="10" stroke-linecap="round" stroke-linejoin="round"/>
<path d="M2.85354 6.07194C2.09046 5.37647 0.583336 6.26547 1.94969 7.51078" stroke="#3F2D20" stroke-width="0.666667" stroke-miterlimit="10" stroke-linecap="round" stroke-linejoin="round"/>
<path d="M11.6444 9.42941C11.0413 8.89625 10.0941 7.91828 8.72382 6.66946C7.88284 6.66946 7.78649 7.80766 8.10408 8.51992L9.04973 9.38178L4.5891 5.31637C3.88034 4.67041 2.54553 5.79121 3.41864 6.58695" stroke="#3F2D20" stroke-width="0.666667" stroke-miterlimit="10" stroke-linecap="round" stroke-linejoin="round"/>
<path d="M0.854004 8.80273L2.08694 9.94736" stroke="#3F2D20" stroke-width="0.666667" stroke-miterlimit="10" stroke-linecap="round" stroke-linejoin="round"/>
<path d="M11.6444 9.42938C13.3474 10.9815 13.3474 13.4979 11.6444 15.05C9.94146 16.6021 7.21726 16.6099 5.51428 15.0578" stroke="#3F2D20" stroke-width="0.666667" stroke-miterlimit="10" stroke-linecap="round" stroke-linejoin="round"/>
<path d="M0.799561 10.7607L5.51441 15.0578" stroke="#3F2D20" stroke-width="0.666667" stroke-miterlimit="10" stroke-linecap="round" stroke-linejoin="round"/>
<path d="M6.32862 5.70264L5.77075 2.17621" stroke="#3F2D20" stroke-width="0.666667" stroke-miterlimit="10" stroke-linecap="round" stroke-linejoin="round"/>
<path d="M8.15856 5.93012L7.46509 1.69257" stroke="#3F2D20" stroke-width="0.666667" stroke-miterlimit="10" stroke-linecap="round" stroke-linejoin="round"/>
<path d="M2.76545 4.3654C2.59553 3.3572 4.12814 3.16947 4.25991 3.95126L4.3205 4.37552" stroke="#3F2D20" stroke-width="0.666667" stroke-miterlimit="10" stroke-linecap="round" stroke-linejoin="round"/>
<path d="M4.08032 2.81628C3.86015 1.51002 5.6561 1.49746 5.80237 2.3653" stroke="#3F2D20" stroke-width="0.666667" stroke-miterlimit="10" stroke-linecap="round" stroke-linejoin="round"/>
<path d="M7.46492 1.69251C7.30107 0.720375 5.50889 0.624605 5.80228 2.36531" stroke="#3F2D20" stroke-width="0.666667" stroke-miterlimit="10" stroke-linecap="round" stroke-linejoin="round"/>
<path d="M12.3313 8.90583C12.1911 8.15081 12.1046 7.08468 11.8104 5.33904C11.1323 4.88564 10.3159 5.75139 10.1096 6.49688L9.35492 2.01893C9.20274 1.116 7.39906 1.30001 7.58652 2.41231" stroke="#3F2D20" stroke-width="0.666667" stroke-miterlimit="10" stroke-linecap="round" stroke-linejoin="round"/>
<path d="M4.08044 2.81622L4.29277 4.17345" stroke="#3F2D20" stroke-width="0.666667" stroke-miterlimit="10" stroke-linecap="round" stroke-linejoin="round"/>
<path d="M2.7655 4.36536L2.84236 4.82142" stroke="#3F2D20" stroke-width="0.666667" stroke-miterlimit="10" stroke-linecap="round" stroke-linejoin="round"/>
</svg>
