<svg width="16" height="16" viewBox="0 0 16 16" fill="none" xmlns="http://www.w3.org/2000/svg">
<path d="M15.0229 6.30976V9.32528C15.0229 11.7654 13.0382 13.7504 10.5981 13.7504H3.87743C3.53236 13.7504 3.19809 13.7065 2.87549 13.6316C3.55432 14.2161 4.43603 14.5718 5.40207 14.5718H12.1226C14.264 14.5718 16 12.8359 16 10.6944V7.67888C16 6.563 15.5262 5.56019 14.7716 4.85266C14.9315 5.30964 15.0229 5.79872 15.0229 6.30976Z" fill="#22A45D"/>
<path d="M10.5981 13.2026C12.7393 13.2026 14.4752 11.4667 14.4752 9.32522V6.3097C14.4752 5.53716 14.2469 4.81918 13.8575 4.21484C13.1676 3.14373 11.9672 2.4323 10.5981 2.4323H10.3063V2.21212C10.3063 2.19382 10.3021 2.17652 10.3008 2.15847C10.2941 2.06126 10.2716 1.96903 10.2326 1.88465C10.1082 1.61579 9.83789 1.42822 9.52234 1.42822C9.20703 1.42822 8.93671 1.61584 8.81262 1.88465C8.77358 1.96903 8.75086 2.06126 8.74417 2.15847C8.7431 2.17652 8.73884 2.19376 8.73884 2.21212V2.4323L5.65122 2.4323V2.21212C5.65122 2.19382 5.64706 2.17652 5.64575 2.15847C5.6392 2.06126 5.61644 1.96903 5.57754 1.88465C5.45321 1.61579 5.18298 1.42822 4.86743 1.42822C4.55202 1.42822 4.28154 1.61584 4.15746 1.88465C4.11857 1.96903 4.09585 2.06126 4.08926 2.15847C4.08794 2.17652 4.08378 2.19376 4.08378 2.21212V2.4323H3.87735C1.73599 2.4323 0 4.16829 0 6.3097L0 9.32522C0 10.8422 0.873195 12.1523 2.14247 12.7892C2.66482 13.0515 3.25273 13.2026 3.8774 13.2026H10.5981V13.2026ZM6.82045 11.8972C6.55454 12.1881 6.1613 12.3338 5.64027 12.3338C4.99866 12.3338 4.55258 12.1245 4.30284 11.7046C4.17141 11.4818 4.09829 11.1902 4.08383 10.8289H4.95972C4.95972 11.0107 4.98913 11.161 5.04739 11.2795C5.15555 11.4988 5.35184 11.6081 5.63718 11.6081C5.81192 11.6081 5.96409 11.5482 6.09446 11.4281C6.22453 11.3081 6.28913 11.1359 6.28913 10.9105C6.28913 10.6122 6.1687 10.4126 5.92748 10.3125C5.79026 10.2564 5.5742 10.228 5.27872 10.228V9.58996C5.56796 9.58596 5.76942 9.55787 5.88362 9.50548C6.08113 9.41781 6.17991 9.24074 6.17991 8.97335C6.17991 8.80034 6.1295 8.65967 6.02859 8.55085C5.92753 8.44279 5.78565 8.38828 5.60249 8.38828C5.39221 8.38828 5.23775 8.45537 5.13892 8.58827C5.03999 8.7225 4.99293 8.90059 4.99709 9.12365H4.16487C4.17318 8.89851 4.21167 8.68482 4.28038 8.4824C4.3535 8.30507 4.46825 8.14118 4.62413 7.99088C4.74101 7.88475 4.87924 7.80316 5.03994 7.74702C5.20027 7.69059 5.39707 7.66239 5.63064 7.66239C6.06409 7.66239 6.41372 7.77456 6.67913 7.99889C6.94464 8.22302 7.07754 8.52408 7.07754 8.90114C7.07754 9.16853 6.99839 9.39372 6.83982 9.57688C6.73952 9.69209 6.63527 9.76993 6.52685 9.81191C6.60864 9.81191 6.72512 9.88199 6.8774 10.0216C7.10457 10.2323 7.21851 10.5203 7.21851 10.8853C7.21876 11.2688 7.08576 11.606 6.82045 11.8972ZM10.4511 12.221H9.53729V9.09211H8.47034V8.48508C8.75111 8.4722 8.94791 8.4538 9.06023 8.42839C9.23938 8.38884 9.38487 8.30963 9.49718 8.19092C9.57421 8.10959 9.63222 8.00107 9.67152 7.86548C9.69449 7.78414 9.7063 7.72375 9.7063 7.68405H10.4505V12.221H10.4511ZM1.64842 6.72231H1.12765L1.12765 5.82848C1.12765 4.49987 2.42471 3.40843 4.08353 3.28384V3.66527C4.08353 3.78828 4.11416 3.90299 4.16481 4.00648C4.29184 4.26773 4.5575 4.44906 4.86743 4.44906C5.25382 4.44906 5.57283 4.1691 5.63743 3.80142C5.64544 3.75705 5.65117 3.71182 5.65117 3.66532V3.27126L8.73849 3.27126V3.66532C8.73849 3.71182 8.74462 3.75705 8.75218 3.80142C8.81683 4.1691 9.13614 4.44906 9.52234 4.44906C9.90843 4.44906 10.2277 4.1691 10.2922 3.80142C10.3002 3.75705 10.3059 3.71182 10.3059 3.66532V3.28039C10.9655 3.3165 11.5699 3.50457 12.0643 3.80116C12.843 4.26859 13.3477 5.00158 13.3477 5.82828V6.72206L1.64842 6.72206V6.72231Z" fill="#22A45D"/>
</svg>
