<svg width="24" height="24" viewBox="0 0 24 24" fill="none" xmlns="http://www.w3.org/2000/svg">
<path d="M19.0909 8.93362C18.6853 8.1974 18.1103 7.54062 17.382 6.98153C15.934 5.87003 14.0227 5.25787 12.0001 5.25787C9.97756 5.25787 8.06628 5.87003 6.61825 6.98153C5.88994 7.54062 5.31494 8.1974 4.90931 8.93362C4.477 9.71819 4.25781 10.5549 4.25781 11.4207C4.25781 12.2864 4.477 13.1232 4.90931 13.9077C5.283 14.5859 5.80075 15.1964 6.44931 15.7256L6.08987 19.1419C6.05241 19.4978 6.41534 19.7602 6.74159 19.613L11.2957 17.5582C11.5286 17.5747 11.7636 17.5834 12.0001 17.5834C14.0226 17.5834 15.9339 16.9713 17.3819 15.8598C18.1102 15.3007 18.6852 14.6439 19.0908 13.9077C19.5231 13.1231 19.7423 12.2864 19.7423 11.4207C19.7423 10.5549 19.5232 9.71819 19.0909 8.93362Z" fill="#FF9330"/>
<path d="M16.231 14.3607C15.1112 15.2202 13.6086 15.6936 11.9999 15.6936C10.3911 15.6936 8.88852 15.2202 7.76877 14.3607C6.72327 13.5581 6.14746 12.514 6.14746 11.4207C6.14746 10.3274 6.72327 9.28323 7.7688 8.48067C8.88852 7.62114 10.3911 7.14777 11.9999 7.14777C13.6086 7.14777 15.1113 7.62111 16.231 8.48067C17.2765 9.28323 17.8523 10.3274 17.8523 11.4207C17.8523 12.514 17.2765 13.5581 16.231 14.3607Z" fill="white"/>
<path opacity="0.1" d="M6.83468 12.1079C6.83468 11.0146 7.41049 9.97048 8.45602 9.16792C9.57574 8.30839 11.0784 7.83502 12.6871 7.83502C14.2959 7.83502 15.7985 8.30836 16.9182 9.16792C16.9629 9.2022 17.0064 9.23711 17.0494 9.27227C16.8216 8.98983 16.5481 8.72408 16.231 8.4807C15.1113 7.62117 13.6086 7.1478 11.9999 7.1478C10.3912 7.1478 8.88855 7.62114 7.7688 8.4807C6.72327 9.28327 6.14746 10.3274 6.14746 11.4207C6.14746 12.4673 6.67543 13.4686 7.63765 14.2564C7.11452 13.6074 6.83468 12.8696 6.83468 12.1079Z" fill="#3F2D20"/>
<path d="M6.1785 15.8354L5.83347 19.1147C5.80613 19.3748 5.91631 19.6216 6.12825 19.7747C6.25453 19.866 6.40097 19.9126 6.54919 19.9126C6.64972 19.9126 6.75113 19.8911 6.8475 19.8477L11.3427 17.8194C11.5628 17.8337 11.7837 17.8409 12 17.8409C13.8303 17.8409 15.549 17.3637 16.9704 16.4609C17.0905 16.3846 17.1261 16.2254 17.0498 16.1052C16.9735 15.985 16.8142 15.9495 16.694 16.0258C15.3554 16.876 13.7323 17.3254 12 17.3254C11.7745 17.3254 11.5437 17.3172 11.3138 17.3008C11.2712 17.2977 11.2285 17.3054 11.1896 17.323L6.63553 19.3778C6.53747 19.4221 6.45925 19.378 6.43019 19.357C6.40116 19.336 6.33481 19.2756 6.34606 19.1686L6.70547 15.7523C6.71456 15.6659 6.67944 15.5806 6.61206 15.5257C5.98878 15.0172 5.49178 14.4309 5.13484 13.7831C4.72378 13.0371 4.51538 12.2422 4.51538 11.4204C4.51538 10.5987 4.72378 9.80375 5.13484 9.05775C5.52325 8.35284 6.07506 7.723 6.775 7.18572C8.17831 6.10862 10.0339 5.51541 12 5.51541C13.9661 5.51541 15.8217 6.10862 17.2249 7.18575C17.9249 7.72303 18.4767 8.35284 18.8651 9.05778C19.2762 9.80378 19.4846 10.5987 19.4846 11.4204C19.4846 12.2422 19.2762 13.0371 18.8651 13.7831C18.5316 14.3882 18.0752 14.9407 17.5084 15.4251C17.4002 15.5176 17.3874 15.6802 17.4799 15.7884C17.5723 15.8966 17.735 15.9094 17.8433 15.8169C18.4573 15.2921 18.953 14.6915 19.3165 14.0318C19.77 13.2088 20 12.3302 20 11.4205C20 10.5107 19.7701 9.63216 19.3165 8.80906C18.8936 8.0415 18.2955 7.35778 17.5387 6.77691C16.046 5.63103 14.079 5 12 5C9.92106 5 7.954 5.63103 6.46125 6.77691C5.70456 7.35775 5.10641 8.04147 4.6835 8.80906C4.22994 9.63212 4 10.5107 4 11.4205C4 12.3302 4.22994 13.2088 4.68347 14.0319C5.05147 14.6997 5.554 15.3059 6.1785 15.8354Z" fill="#3F2D20"/>
<path d="M7.55101 9.00374C7.65464 8.90617 7.65951 8.74308 7.56198 8.63946C7.46436 8.53583 7.30132 8.53092 7.1977 8.62849C6.34229 9.43386 5.89014 10.3993 5.89014 11.4205C5.89014 12.5957 6.50173 13.7124 7.61226 14.5649C8.77673 15.4588 10.3351 15.9511 12.0003 15.9511C13.6654 15.9511 15.2238 15.4588 16.3882 14.5649C17.4988 13.7124 18.1104 12.5957 18.1104 11.4205C18.1104 10.2452 17.4988 9.12855 16.3882 8.27605C15.2238 7.38214 13.6654 6.88989 12.0003 6.88989C10.5373 6.88989 9.17589 7.26067 8.06332 7.96214C7.94292 8.03805 7.90686 8.19717 7.98276 8.31758C8.0587 8.43796 8.21779 8.47405 8.33823 8.39811C9.36839 7.74861 10.6347 7.4053 12.0003 7.4053C13.5526 7.4053 14.9995 7.85974 16.0744 8.68489C17.055 9.43761 17.595 10.4091 17.595 11.4205C17.595 12.4318 17.0549 13.4034 16.0744 14.1561C14.9995 14.9813 13.5526 15.4357 12.0003 15.4357C10.448 15.4357 9.00104 14.9812 7.92611 14.1561C6.94557 13.4034 6.40557 12.4319 6.40557 11.4205C6.40554 10.545 6.80161 9.70927 7.55101 9.00374Z" fill="#3F2D20"/>
<path d="M12.0001 12.8605C11.649 12.8605 11.3148 12.7463 11.1278 12.5624C11.0265 12.4627 10.8632 12.4639 10.7634 12.5654C10.6636 12.6669 10.665 12.8301 10.7665 12.9299C11.0504 13.2091 11.5116 13.3759 12.0001 13.3759C12.4915 13.3759 12.9542 13.2076 13.2379 12.9257C13.3388 12.8254 13.3394 12.6623 13.239 12.5613C13.1387 12.4604 12.9756 12.4598 12.8746 12.5601C12.6882 12.7454 12.3531 12.8605 12.0001 12.8605Z" fill="#3F2D20"/>
<path d="M10.6893 11.1276C10.9613 11.1276 11.1818 10.9071 11.1818 10.6351C11.1818 10.3631 10.9613 10.1426 10.6893 10.1426C10.4173 10.1426 10.1968 10.3631 10.1968 10.6351C10.1968 10.9071 10.4173 11.1276 10.6893 11.1276Z" fill="#3F2D20"/>
<path d="M13.3138 11.1276C13.5858 11.1276 13.8063 10.9071 13.8063 10.6351C13.8063 10.3631 13.5858 10.1426 13.3138 10.1426C13.0418 10.1426 12.8213 10.3631 12.8213 10.6351C12.8213 10.9071 13.0418 11.1276 13.3138 11.1276Z" fill="#3F2D20"/>
</svg>
