<svg width="16" height="16" viewBox="0 0 16 16" fill="none" xmlns="http://www.w3.org/2000/svg">
<path d="M13.6569 2.34314C12.1459 0.832144 10.1369 0 8 0C5.86314 0 3.85413 0.832144 2.34314 2.34314C0.832144 3.85413 0 5.86314 0 8C0 10.1369 0.832144 12.1459 2.34314 13.6569C3.85413 15.1679 5.86314 16 8 16C10.1369 16 12.1459 15.1679 13.6569 13.6569C15.1679 12.1459 16 10.1369 16 8C16 5.86314 15.1679 3.85413 13.6569 2.34314ZM10.9036 5.88969L9.49209 7.28316C9.59649 7.50005 9.655 7.74318 9.655 8C9.655 8.91401 8.91405 9.655 8 9.655C7.08599 9.655 6.34501 8.91405 6.34501 8C6.34501 7.27444 6.81213 6.65837 7.46188 6.43498V3.01345C7.46188 2.71627 7.70282 2.47534 8 2.47534C8.29718 2.47534 8.53812 2.71627 8.53812 3.01345V6.43498C8.6061 6.45833 8.67207 6.48588 8.73571 6.51752L10.1475 5.12377C10.359 4.91501 10.6997 4.91713 10.9085 5.12868C11.1173 5.34016 11.1151 5.6809 10.9036 5.88969Z" fill="#EF8829"/>
</svg>
