<svg width="18" height="22" viewBox="0 0 18 22" fill="none" xmlns="http://www.w3.org/2000/svg">
<path d="M15.157 6.52864C15.5203 6.70138 15.676 7.13748 15.5033 7.50077L15.2802 7.97018L3.99487 2.61067L4.21796 2.14126C4.3907 1.77719 4.82758 1.62227 5.19087 1.79501L15.157 6.52864Z" fill="#F1F1F1"/>
<path d="M11.6376 7.95703L10.6895 19.3345C10.6376 19.9604 10.1047 20.4507 9.47647 20.4507H3.78001C3.15258 20.4507 2.61965 19.9604 2.56775 19.3345L1.61963 7.95703H11.6376Z" fill="#F1F1F1"/>
<path d="M15.8217 5.12903C16.9565 5.66816 17.4414 7.03069 16.9023 8.16549L16.3476 9.33438C16.2144 9.61401 15.9371 9.77745 15.6474 9.77745C15.5358 9.77745 15.4228 9.75344 15.3151 9.70232L13.1307 8.66434L12.2306 19.4632C12.1121 20.8853 10.9014 22 9.47376 22H3.77729C2.35046 22 1.13975 20.8853 1.02123 19.4632L0.00262193 7.24681C-0.0151941 7.03147 0.0583937 6.81768 0.204795 6.65811C0.351196 6.49854 0.558016 6.40791 0.774907 6.40791H8.38001L2.63087 3.67741C2.44574 3.58988 2.30243 3.43109 2.23349 3.23744C2.16455 3.04456 2.1754 2.83154 2.2637 2.64563L2.8191 1.47675C3.35823 0.341175 4.71999 -0.14373 5.85556 0.395397L8.02447 1.42563L8.13756 1.18937C8.37537 0.687425 8.7952 0.307867 9.31884 0.121186C9.84247 -0.0647201 10.4072 -0.0360596 10.9091 0.20252L12.7782 1.08945C13.8139 1.5821 14.257 2.82534 13.7651 3.86177L13.652 4.0988L15.8217 5.12903ZM15.5033 7.50088C15.6761 7.13759 15.5204 6.70148 15.1571 6.52875L5.19095 1.79511C4.82766 1.62238 4.39078 1.7773 4.21804 2.14136L3.99495 2.61078L15.2802 7.97029L15.5033 7.50088ZM12.3654 3.19716C12.4909 2.93224 12.3778 2.61465 12.1129 2.48916L10.2445 1.60146C10.1167 1.54104 9.97261 1.5333 9.8386 1.58132C9.70459 1.62857 9.5977 1.7254 9.5365 1.85398L9.42419 2.09024L12.2531 3.43419L12.3654 3.19716ZM10.6868 19.3346L11.6349 7.95712H1.61691L2.56503 19.3346C2.61693 19.9605 3.14986 20.4508 3.77729 20.4508H9.47376C10.102 20.4508 10.6349 19.9605 10.6868 19.3346Z" fill="#010F07"/>
</svg>
