<svg width="24" height="24" viewBox="0 0 24 24" fill="#010F07" xmlns="http://www.w3.org/2000/svg">
<g clip-path="url(#clip0)">
<path d="M22.4659 11.533C22.3906 11.5172 22.3195 11.5023 22.2562 11.4859C21.539 11.2994 21.2117 11.1971 20.9697 10.7299L20.053 8.87389C19.7584 8.30513 18.9976 7.84238 18.3571 7.84238H16.7251V5.69919C16.7251 5.31438 16.4119 5.00128 16.027 5.00128L4.65962 5.0127C4.28508 5.0127 4.00265 5.31033 4.00265 5.70506V6.33852H1.09061C0.489265 6.33858 0 6.82779 0 7.42919C0 8.03059 0.489265 8.5198 1.09061 8.5198H4.00259V9.56511H2.09602C1.49467 9.56511 1.00541 10.0544 1.00541 10.6557C1.00541 11.2571 1.49467 11.7463 2.09602 11.7463H4.00259V12.7916H3.10143C2.50008 12.7916 2.01082 13.2809 2.01082 13.8823C2.01082 14.4836 2.50008 14.9729 3.10143 14.9729H4.00259V16.0662C4.00259 16.451 4.3157 16.7641 4.70051 16.7641H5.88296C6.06712 18.0262 7.15643 18.9987 8.46898 18.9987C9.78162 18.9987 10.871 18.0262 11.0552 16.7641H15.8406C15.8655 16.7641 15.891 16.7624 15.9164 16.7608C16.0992 18.0245 17.1891 18.9987 18.5028 18.9987C19.8155 18.9987 20.9048 18.0262 21.0891 16.7641H22.7875C23.4561 16.7641 24.0001 16.2202 24.0001 15.5516V13.4943C24 11.8549 23.0768 11.6612 22.4659 11.533ZM18.5028 15.435C19.0269 15.435 19.4533 15.8612 19.4533 16.3851C19.4533 16.9091 19.0269 17.3353 18.5028 17.3353C17.979 17.3353 17.5527 16.9091 17.5527 16.3851C17.5527 15.8612 17.979 15.435 18.5028 15.435ZM16.7251 11.3852V8.85459H17.9723C18.4516 8.85459 19.043 9.21429 19.2624 9.63781L20.0782 11.2894C20.0955 11.3228 20.1134 11.3547 20.1321 11.3852H16.7251V11.3852ZM9.41944 16.3851C9.41944 16.909 8.99306 17.3352 8.46898 17.3352C7.9451 17.3352 7.51893 16.909 7.51893 16.3851C7.51893 15.8612 7.9451 15.4349 8.46898 15.4349C8.99306 15.435 9.41944 15.8612 9.41944 16.3851Z" />
</g>
<defs>
<clipPath id="clip0">
<rect width="24" height="24" fill="white"/>
</clipPath>
</defs>
</svg>
